<?xml version="1.0" encoding="UTF-8" standalone="no"?>
<!-- Created with Inkscape (http://www.inkscape.org/) -->

<svg
   version="1.1"
   id="svg2"
   xml:space="preserve"
   width="219.30739"
   height="99.941132"
   viewBox="0 0 219.30739 99.941132"
   sodipodi:docname="edbb4db53777f1886247c98c872d9570.eps"
   xmlns:inkscape="http://www.inkscape.org/namespaces/inkscape"
   xmlns:sodipodi="http://sodipodi.sourceforge.net/DTD/sodipodi-0.dtd"
   xmlns="http://www.w3.org/2000/svg"
   xmlns:svg="http://www.w3.org/2000/svg"><defs
     id="defs6" /><sodipodi:namedview
     id="namedview4"
     pagecolor="#ffffff"
     bordercolor="#666666"
     borderopacity="1.0"
     inkscape:pageshadow="2"
     inkscape:pageopacity="0.0"
     inkscape:pagecheckerboard="0" /><g
     id="g8"
     inkscape:groupmode="layer"
     inkscape:label="ink_ext_XXXXXX"
     transform="matrix(1.3333333,0,0,-1.3333333,2.9792516e-4,99.941392)"><g
       id="g10"
       transform="scale(0.1)">
       <path
         d="m 156.457,564.895 19.883,-4.887 -12.004,-48.793 c -7.289,-1.938 -16.484,-2.754 -27.621,-2.426 -11.117,0.32 -21.863,1.742 -32.223,4.301 -19.0623,4.683 -35.6131,11.066 -49.6639,19.137 -14.0586,8.066 -25.1914,18.003 -33.375,29.793 -8.1992,11.796 -13.35154,25.414 -15.47654,40.875 -2.13281,15.476 -0.77343,33.035 4.06644,52.714 4.9922,20.309 12.3476,36.782 22.0429,49.45 9.7071,12.656 20.9571,22.195 33.7344,28.609 12.7852,6.418 26.6172,9.992 41.5237,10.715 14.89,0.73 30.011,-0.789 45.344,-4.57 7.46,-1.833 14.125,-3.747 20.007,-5.747 5.879,-1.992 11.125,-4.113 15.743,-6.339 4.597,-2.231 8.796,-4.582 12.589,-7.055 3.793,-2.477 7.45,-5.012 10.973,-7.633 l -13.066,-53.141 -19.883,4.887 8.015,32.633 -2.812,7.281 c -2.031,1.594 -5.297,3.727 -9.813,6.367 -4.503,2.645 -12.152,5.297 -22.914,7.946 -11.191,2.75 -22.089,3.57 -32.687,2.441 C 108.23,720.324 98.4414,716.906 89.4609,711.211 80.4883,705.504 72.4805,697.313 65.4531,686.633 58.4336,675.945 52.9141,662.418 48.8867,646.063 41.5898,616.43 43.4805,591.75 54.5664,572 65.625,552.254 84.7266,539.035 111.863,532.371 c 7.461,-1.832 13.864,-2.816 19.231,-2.922 5.347,-0.109 9.508,0.453 12.445,1.711 l 5.809,4.832 7.109,28.903"
         
         id="path12" /><path
         d="m 156.457,564.895 19.883,-4.887 -12.004,-48.793 c -7.289,-1.938 -16.484,-2.754 -27.621,-2.426 -11.117,0.32 -21.863,1.742 -32.223,4.301 -19.0623,4.683 -35.6131,11.066 -49.6639,19.137 -14.0586,8.066 -25.1914,18.003 -33.375,29.793 -8.1992,11.796 -13.35154,25.414 -15.47654,40.875 -2.13281,15.476 -0.77343,33.035 4.06644,52.714 4.9922,20.309 12.3476,36.782 22.0429,49.45 9.7071,12.656 20.9571,22.195 33.7344,28.609 12.7852,6.418 26.6172,9.992 41.5237,10.715 14.89,0.73 30.011,-0.789 45.344,-4.57 7.46,-1.833 14.125,-3.747 20.007,-5.747 5.879,-1.992 11.125,-4.113 15.743,-6.339 4.597,-2.231 8.796,-4.582 12.589,-7.055 3.793,-2.477 7.45,-5.012 10.973,-7.633 l -13.066,-53.141 -19.883,4.887 8.015,32.633 -2.812,7.281 c -2.031,1.594 -5.297,3.727 -9.813,6.367 -4.503,2.645 -12.152,5.297 -22.914,7.946 -11.191,2.75 -22.089,3.57 -32.687,2.441 C 108.23,720.324 98.4414,716.906 89.4609,711.211 80.4883,705.504 72.4805,697.313 65.4531,686.633 58.4336,675.945 52.9141,662.418 48.8867,646.063 41.5898,616.43 43.4805,591.75 54.5664,572 65.625,552.254 84.7266,539.035 111.863,532.371 c 7.461,-1.832 13.864,-2.816 19.231,-2.922 5.347,-0.109 9.508,0.453 12.445,1.711 l 5.809,4.832 z"
         
         id="path14" /><path
         d="m 283.559,480.094 -79.543,15.066 2.972,15.715 23.27,-4.402 25.312,133.629 -23.261,4.394 2.968,15.734 56.286,-10.664 -28.29,-149.336 23.266,-4.417 z m -22.286,227.969 c 1.165,6.07 4.215,10.484 9.188,13.238 4.973,2.758 10.805,3.492 17.516,2.215 7.121,-1.344 12.41,-4.184 15.812,-8.52 3.406,-4.344 4.547,-9.551 3.399,-15.625 -1.165,-6.086 -4.102,-10.523 -8.864,-13.308 -4.777,-2.793 -10.722,-3.504 -17.844,-2.161 -6.71,1.282 -11.871,4.094 -15.5,8.481 -3.625,4.371 -4.863,9.597 -3.707,15.68"
         
         id="path16" /><path
         d="m 283.559,480.094 -79.543,15.066 2.972,15.715 23.27,-4.402 25.312,133.629 -23.261,4.394 2.968,15.734 56.286,-10.664 -28.29,-149.336 23.266,-4.417 z m -22.286,227.969 c 1.165,6.07 4.215,10.484 9.188,13.238 4.973,2.758 10.805,3.492 17.516,2.215 7.121,-1.344 12.41,-4.184 15.812,-8.52 3.406,-4.344 4.547,-9.551 3.399,-15.625 -1.165,-6.086 -4.102,-10.523 -8.864,-13.308 -4.777,-2.793 -10.722,-3.504 -17.844,-2.161 -6.71,1.282 -11.871,4.094 -15.5,8.481 -3.625,4.371 -4.863,9.597 -3.707,15.68 z"
         
         id="path18" /><path
         d="m 418.137,617.18 c -6.578,0.929 -12.496,0.781 -17.75,-0.407 -5.242,-1.199 -9.992,-3.765 -14.227,-7.691 -4.219,-3.93 -7.918,-9.383 -11.066,-16.371 -3.145,-6.988 -5.793,-15.836 -7.946,-26.52 l 76.668,-10.796 c 0.493,1.867 0.914,3.8 1.321,5.789 0.375,1.996 0.695,3.832 0.933,5.523 1.969,13.938 0.711,25.434 -3.75,34.465 -4.461,9.027 -12.523,14.355 -24.183,16.008 z M 464.52,475.23 c -6.614,-7.035 -15.286,-12.109 -26.004,-15.238 -10.711,-3.121 -22.754,-3.734 -36.125,-1.851 -14,1.972 -26.075,5.781 -36.211,11.406 -10.133,5.625 -18.278,12.703 -24.442,21.215 -6.148,8.519 -10.336,18.363 -12.531,29.562 -2.215,11.188 -2.398,23.34 -0.559,36.438 3.985,28.304 14.125,48.793 30.411,61.472 16.285,12.676 37.257,17.207 62.929,13.598 8.481,-1.207 16.66,-3.434 24.532,-6.695 7.875,-3.27 14.64,-7.778 20.324,-13.528 5.683,-5.757 9.922,-12.925 12.707,-21.504 2.797,-8.582 3.363,-18.792 1.699,-30.621 -0.512,-3.586 -1.258,-7.355 -2.246,-11.316 -1,-3.953 -2.227,-8.086 -3.711,-12.398 l -111.199,15.671 c -1.305,-9.308 -1.281,-17.921 0.109,-25.871 1.367,-7.957 4.172,-15.027 8.414,-21.226 4.227,-6.203 9.86,-11.356 16.887,-15.469 7.027,-4.113 15.668,-6.891 25.883,-8.332 8.304,-1.164 16.23,-0.891 23.761,0.859 7.532,1.727 13.672,4.098 18.45,7.094 l 6.922,-13.266"
         
         id="path20" /><path
         d="m 418.137,617.18 c -6.578,0.929 -12.496,0.781 -17.75,-0.407 -5.242,-1.199 -9.992,-3.765 -14.227,-7.691 -4.219,-3.93 -7.918,-9.383 -11.066,-16.371 -3.145,-6.988 -5.793,-15.836 -7.946,-26.52 l 76.668,-10.796 c 0.493,1.867 0.914,3.8 1.321,5.789 0.375,1.996 0.695,3.832 0.933,5.523 1.969,13.938 0.711,25.434 -3.75,34.465 -4.461,9.027 -12.523,14.355 -24.183,16.008 z M 464.52,475.23 c -6.614,-7.035 -15.286,-12.109 -26.004,-15.238 -10.711,-3.121 -22.754,-3.734 -36.125,-1.851 -14,1.972 -26.075,5.781 -36.211,11.406 -10.133,5.625 -18.278,12.703 -24.442,21.215 -6.148,8.519 -10.336,18.363 -12.531,29.562 -2.215,11.188 -2.398,23.34 -0.559,36.438 3.985,28.304 14.125,48.793 30.411,61.472 16.285,12.676 37.257,17.207 62.929,13.598 8.481,-1.207 16.66,-3.434 24.532,-6.695 7.875,-3.27 14.64,-7.778 20.324,-13.528 5.683,-5.757 9.922,-12.925 12.707,-21.504 2.797,-8.582 3.363,-18.792 1.699,-30.621 -0.512,-3.586 -1.258,-7.355 -2.246,-11.316 -1,-3.953 -2.227,-8.086 -3.711,-12.398 l -111.199,15.671 c -1.305,-9.308 -1.281,-17.921 0.109,-25.871 1.367,-7.957 4.172,-15.027 8.414,-21.226 4.227,-6.203 9.86,-11.356 16.887,-15.469 7.027,-4.113 15.668,-6.891 25.883,-8.332 8.304,-1.164 16.23,-0.891 23.761,0.859 7.532,1.727 13.672,4.098 18.45,7.094 z"
         
         id="path22" /><path
         d="m 698.473,433.258 -78.184,5.926 1.207,15.953 21.07,-1.594 6.047,80.09 c 1.282,16.805 -0.281,30.078 -4.679,39.816 -4.395,9.758 -13.407,15.145 -27.016,16.18 -5.957,0.449 -11.508,-0.094 -16.652,-1.625 -5.145,-1.539 -9.809,-3.758 -13.985,-6.649 -4.176,-2.886 -7.863,-6.351 -11.051,-10.394 -3.195,-4.035 -5.714,-8.344 -7.558,-12.91 l -7.449,-98.266 21.062,-1.601 -1.211,-15.954 -78.16,5.915 1.207,15.953 23.606,-1.782 10.269,135.606 -23.605,1.785 1.211,15.953 57.117,-4.316 -2.531,-33.184 0.332,-0.023 c 5.66,9.832 13.488,17.906 23.484,24.215 10.008,6.289 21.707,8.945 35.098,7.933 9.57,-0.73 18,-2.383 25.304,-4.965 7.293,-2.597 13.239,-6.73 17.828,-12.425 4.606,-5.7 7.895,-13.106 9.875,-22.243 1.977,-9.144 2.442,-20.632 1.403,-34.453 l -6.457,-85.195 23.617,-1.785 -1.199,-15.961"
         
         id="path24" /><path
         d="m 698.473,433.258 -78.184,5.926 1.207,15.953 21.07,-1.594 6.047,80.09 c 1.282,16.805 -0.281,30.078 -4.679,39.816 -4.395,9.758 -13.407,15.145 -27.016,16.18 -5.957,0.449 -11.508,-0.094 -16.652,-1.625 -5.145,-1.539 -9.809,-3.758 -13.985,-6.649 -4.176,-2.886 -7.863,-6.351 -11.051,-10.394 -3.195,-4.035 -5.714,-8.344 -7.558,-12.91 l -7.449,-98.266 21.062,-1.601 -1.211,-15.954 -78.16,5.915 1.207,15.953 23.606,-1.782 10.269,135.606 -23.605,1.785 1.211,15.953 57.117,-4.316 -2.531,-33.184 0.332,-0.023 c 5.66,9.832 13.488,17.906 23.484,24.215 10.008,6.289 21.707,8.945 35.098,7.933 9.57,-0.73 18,-2.383 25.304,-4.965 7.293,-2.597 13.239,-6.73 17.828,-12.425 4.606,-5.7 7.895,-13.106 9.875,-22.243 1.977,-9.144 2.442,-20.632 1.403,-34.453 l -6.457,-85.195 23.617,-1.785 z"
         
         id="path26" /><path
         d="m 867.754,452.516 c -4.566,-6.137 -11.731,-11.746 -21.508,-16.844 -9.781,-5.09 -21.273,-7.547 -34.504,-7.371 -14.078,0.179 -26.367,2.437 -36.875,6.73 -10.492,4.305 -19.215,10.289 -26.16,17.957 -6.934,7.664 -12.043,16.91 -15.309,27.739 -3.265,10.808 -4.808,22.832 -4.625,36.054 0.387,28.367 8.192,49.918 23.434,64.649 15.231,14.734 35.758,21.933 61.57,21.578 11.723,-0.156 21.426,-1.043 29.09,-2.633 7.653,-1.598 14.668,-4.031 21.024,-7.316 l -0.559,-41.606 -28.801,0.387 0.399,30.133 c -3.18,1.929 -9.606,2.961 -19.246,3.093 -8.141,0.102 -15.344,-0.968 -21.59,-3.218 -6.242,-2.25 -11.543,-6.004 -15.906,-11.246 -4.348,-5.254 -7.668,-12.325 -9.918,-21.211 -2.266,-8.895 -3.485,-19.805 -3.661,-32.758 -0.117,-8.5 0.954,-16.621 3.2,-24.41 2.238,-7.774 5.687,-14.618 10.316,-20.516 4.637,-5.91 10.516,-10.602 17.629,-14.098 7.117,-3.492 15.5,-5.296 25.129,-5.429 5.125,-0.067 9.68,0.398 13.648,1.414 3.989,1.019 7.481,2.09 10.496,3.219 3.004,1.128 5.692,2.433 8.075,3.902 2.378,1.445 4.636,3.019 6.804,4.707 l 7.848,-12.906"
         
         id="path28" /><path
         d="m 867.754,452.516 c -4.566,-6.137 -11.731,-11.746 -21.508,-16.844 -9.781,-5.09 -21.273,-7.547 -34.504,-7.371 -14.078,0.179 -26.367,2.437 -36.875,6.73 -10.492,4.305 -19.215,10.289 -26.16,17.957 -6.934,7.664 -12.043,16.91 -15.309,27.739 -3.265,10.808 -4.808,22.832 -4.625,36.054 0.387,28.367 8.192,49.918 23.434,64.649 15.231,14.734 35.758,21.933 61.57,21.578 11.723,-0.156 21.426,-1.043 29.09,-2.633 7.653,-1.598 14.668,-4.031 21.024,-7.316 l -0.559,-41.606 -28.801,0.387 0.399,30.133 c -3.18,1.929 -9.606,2.961 -19.246,3.093 -8.141,0.102 -15.344,-0.968 -21.59,-3.218 -6.242,-2.25 -11.543,-6.004 -15.906,-11.246 -4.348,-5.254 -7.668,-12.325 -9.918,-21.211 -2.266,-8.895 -3.485,-19.805 -3.661,-32.758 -0.117,-8.5 0.954,-16.621 3.2,-24.41 2.238,-7.774 5.687,-14.618 10.316,-20.516 4.637,-5.91 10.516,-10.602 17.629,-14.098 7.117,-3.492 15.5,-5.296 25.129,-5.429 5.125,-0.067 9.68,0.398 13.648,1.414 3.989,1.019 7.481,2.09 10.496,3.219 3.004,1.128 5.692,2.433 8.075,3.902 2.378,1.445 4.636,3.019 6.804,4.707 z"
         
         id="path30" /><path
         d="m 981.996,434.582 -80.91,-2.523 -0.504,15.984 23.668,0.742 -4.258,135.945 -23.668,-0.746 -0.5,15.985 57.25,1.793 4.754,-151.918 23.664,0.746 z M 910.84,652.313 c -0.199,6.171 1.824,11.156 6.09,14.906 4.25,3.773 9.797,5.754 16.625,5.98 7.242,0.215 13.008,-1.422 17.281,-4.91 4.273,-3.492 6.504,-8.34 6.695,-14.516 0.199,-6.187 -1.73,-11.148 -5.769,-14.918 -4.047,-3.75 -9.696,-5.738 -16.949,-5.96 -6.825,-0.211 -12.473,1.414 -16.95,4.902 -4.488,3.488 -6.836,8.324 -7.023,14.516"
         
         id="path32" /><path
         d="m 981.996,434.582 -80.91,-2.523 -0.504,15.984 23.668,0.742 -4.258,135.945 -23.668,-0.746 -0.5,15.985 57.25,1.793 4.754,-151.918 23.664,0.746 z M 910.84,652.313 c -0.199,6.171 1.824,11.156 6.09,14.906 4.25,3.773 9.797,5.754 16.625,5.98 7.242,0.215 13.008,-1.422 17.281,-4.91 4.273,-3.492 6.504,-8.34 6.695,-14.516 0.199,-6.187 -1.73,-11.148 -5.769,-14.918 -4.047,-3.75 -9.696,-5.738 -16.949,-5.96 -6.825,-0.211 -12.473,1.414 -16.95,4.902 -4.488,3.488 -6.836,8.324 -7.023,14.516 z"
         
         id="path34" /><path
         d="m 1078.17,458.48 c 5.1,0.411 9.61,1.567 13.53,3.477 3.92,1.902 7.33,4.203 10.21,6.902 2.89,2.676 5.34,5.59 7.34,8.762 2,3.133 3.64,6.152 4.91,9.039 l -2.98,37.969 c -13.82,-1.094 -24.98,-2.871 -33.45,-5.359 -8.47,-2.481 -15.03,-5.407 -19.69,-8.766 -4.65,-3.367 -7.72,-7.184 -9.22,-11.469 -1.48,-4.293 -2.03,-8.785 -1.66,-13.453 0.75,-9.57 3.87,-16.664 9.36,-21.25 5.51,-4.609 12.72,-6.551 21.65,-5.852 z m 68.43,32.008 c 0.38,-4.894 0.87,-9.828 1.48,-14.804 0.61,-4.989 1.28,-9.481 2.02,-13.489 l 21.37,1.672 1.25,-15.941 -50.98,-4 -5.63,30.051 -1.58,-0.133 c -0.74,-4.336 -2.39,-8.633 -4.93,-12.895 -2.55,-4.269 -5.89,-8.168 -10,-11.699 -4.12,-3.531 -9.07,-6.492 -14.87,-8.867 -5.81,-2.379 -12.32,-3.867 -19.56,-4.434 -7.23,-0.558 -13.96,-0.015 -20.19,1.637 -6.23,1.641 -11.72,4.215 -16.49,7.691 -4.76,3.469 -8.6,7.832 -11.45,13.063 -2.88,5.23 -4.58,11.246 -5.11,18.055 -0.83,10.421 0.68,19.195 4.5,26.359 3.83,7.148 9.84,13.016 18.05,17.625 8.19,4.598 18.61,8.25 31.24,10.953 12.62,2.695 27.44,4.824 44.43,6.371 0.17,3.402 0.13,6.625 -0.11,9.684 -0.24,3.031 -0.49,6.035 -0.7,8.988 -1.03,13.039 -4.05,22.809 -9.05,29.293 -5,6.492 -13.25,9.289 -24.74,8.379 -4.25,-0.328 -8.8,-0.899 -13.66,-1.692 -4.86,-0.804 -9.22,-2.417 -13.09,-4.812 l 2.25,-28.797 -28.72,-2.25 -2.77,35.406 c 7.38,4.645 16.18,8.981 26.41,12.993 10.22,4.007 22.4,6.57 36.5,7.679 12.19,0.949 22.1,0.176 29.72,-2.324 7.61,-2.508 13.59,-6.109 17.94,-10.801 4.35,-4.683 7.36,-10.117 9.02,-16.301 1.68,-6.175 2.74,-12.347 3.24,-18.527 1.05,-13.391 1.79,-26.23 2.22,-38.496 0.41,-12.273 1.09,-24.148 1.99,-35.637"
         
         id="path36" /><path
         d="m 1078.17,458.48 c 5.1,0.411 9.61,1.567 13.53,3.477 3.92,1.902 7.33,4.203 10.21,6.902 2.89,2.676 5.34,5.59 7.34,8.762 2,3.133 3.64,6.152 4.91,9.039 l -2.98,37.969 c -13.82,-1.094 -24.98,-2.871 -33.45,-5.359 -8.47,-2.481 -15.03,-5.407 -19.69,-8.766 -4.65,-3.367 -7.72,-7.184 -9.22,-11.469 -1.48,-4.293 -2.03,-8.785 -1.66,-13.453 0.75,-9.57 3.87,-16.664 9.36,-21.25 5.51,-4.609 12.72,-6.551 21.65,-5.852 z m 68.43,32.008 c 0.38,-4.894 0.87,-9.828 1.48,-14.804 0.61,-4.989 1.28,-9.481 2.02,-13.489 l 21.37,1.672 1.25,-15.941 -50.98,-4 -5.63,30.051 -1.58,-0.133 c -0.74,-4.336 -2.39,-8.633 -4.93,-12.895 -2.55,-4.269 -5.89,-8.168 -10,-11.699 -4.12,-3.531 -9.07,-6.492 -14.87,-8.867 -5.81,-2.379 -12.32,-3.867 -19.56,-4.434 -7.23,-0.558 -13.96,-0.015 -20.19,1.637 -6.23,1.641 -11.72,4.215 -16.49,7.691 -4.76,3.469 -8.6,7.832 -11.45,13.063 -2.88,5.23 -4.58,11.246 -5.11,18.055 -0.83,10.421 0.68,19.195 4.5,26.359 3.83,7.148 9.84,13.016 18.05,17.625 8.19,4.598 18.61,8.25 31.24,10.953 12.62,2.695 27.44,4.824 44.43,6.371 0.17,3.402 0.13,6.625 -0.11,9.684 -0.24,3.031 -0.49,6.035 -0.7,8.988 -1.03,13.039 -4.05,22.809 -9.05,29.293 -5,6.492 -13.25,9.289 -24.74,8.379 -4.25,-0.328 -8.8,-0.899 -13.66,-1.692 -4.86,-0.804 -9.22,-2.417 -13.09,-4.812 l 2.25,-28.797 -28.72,-2.25 -2.77,35.406 c 7.38,4.645 16.18,8.981 26.41,12.993 10.22,4.007 22.4,6.57 36.5,7.679 12.19,0.949 22.1,0.176 29.72,-2.324 7.61,-2.508 13.59,-6.109 17.94,-10.801 4.35,-4.683 7.36,-10.117 9.02,-16.301 1.68,-6.175 2.74,-12.347 3.24,-18.527 1.05,-13.391 1.79,-26.23 2.22,-38.496 0.41,-12.273 1.09,-24.148 1.99,-35.637 z"
         
         id="path38" /><path
         d="m 1370.74,493.844 c 11.61,1.976 20.12,6.765 25.57,14.406 5.44,7.629 8.55,17.461 9.32,29.492 l -15.8,93.067 c -4.59,1.39 -9.55,2.168 -14.9,2.336 -5.35,0.175 -12.26,-0.457 -20.7,-1.891 -7.81,-1.328 -14.45,-4.188 -19.89,-8.559 -5.45,-4.398 -9.69,-10.097 -12.74,-17.101 -3.03,-7.016 -4.85,-15.156 -5.45,-24.461 -0.6,-9.305 0.04,-19.414 1.91,-30.352 1.5,-8.836 3.7,-17.004 6.6,-24.519 2.91,-7.52 6.54,-13.875 10.9,-19.086 4.36,-5.207 9.46,-9.047 15.32,-11.512 5.84,-2.476 12.47,-3.078 19.86,-1.82 z m 37.96,22.027 c -0.44,-5.047 -1.71,-10.027 -3.78,-14.926 -2.09,-4.902 -4.9,-9.382 -8.43,-13.441 -3.54,-4.066 -7.77,-7.481 -12.71,-10.27 -4.94,-2.789 -10.45,-4.695 -16.55,-5.722 -23.34,-3.981 -42.03,-0.071 -56.04,11.73 -14.01,11.785 -23.51,32.301 -28.47,61.531 -2.39,14.09 -2.57,26.879 -0.51,38.375 2.06,11.497 6.01,21.532 11.92,30.11 5.9,8.574 13.58,15.617 23.03,21.117 9.45,5.496 20.38,9.305 32.8,11.41 4.41,0.75 8.21,1.289 11.4,1.613 3.19,0.329 6.2,0.504 8.99,0.563 2.81,0.043 5.54,-0.102 8.2,-0.398 2.63,-0.313 5.51,-0.641 8.6,-0.973 l -9.77,57.414 -26.18,-4.445 -2.67,15.769 59.31,10.074 37.51,-220.828 22.08,3.75 2.68,-15.773 -51.7,-8.785 -8.44,32.324 -1.27,-0.219"
         
         id="path40" /><path
         d="m 1370.74,493.844 c 11.61,1.976 20.12,6.765 25.57,14.406 5.44,7.629 8.55,17.461 9.32,29.492 l -15.8,93.067 c -4.59,1.39 -9.55,2.168 -14.9,2.336 -5.35,0.175 -12.26,-0.457 -20.7,-1.891 -7.81,-1.328 -14.45,-4.188 -19.89,-8.559 -5.45,-4.398 -9.69,-10.097 -12.74,-17.101 -3.03,-7.016 -4.85,-15.156 -5.45,-24.461 -0.6,-9.305 0.04,-19.414 1.91,-30.352 1.5,-8.836 3.7,-17.004 6.6,-24.519 2.91,-7.52 6.54,-13.875 10.9,-19.086 4.36,-5.207 9.46,-9.047 15.32,-11.512 5.84,-2.476 12.47,-3.078 19.86,-1.82 z m 37.96,22.027 c -0.44,-5.047 -1.71,-10.027 -3.78,-14.926 -2.09,-4.902 -4.9,-9.382 -8.43,-13.441 -3.54,-4.066 -7.77,-7.481 -12.71,-10.27 -4.94,-2.789 -10.45,-4.695 -16.55,-5.722 -23.34,-3.981 -42.03,-0.071 -56.04,11.73 -14.01,11.785 -23.51,32.301 -28.47,61.531 -2.39,14.09 -2.57,26.879 -0.51,38.375 2.06,11.497 6.01,21.532 11.92,30.11 5.9,8.574 13.58,15.617 23.03,21.117 9.45,5.496 20.38,9.305 32.8,11.41 4.41,0.75 8.21,1.289 11.4,1.613 3.19,0.329 6.2,0.504 8.99,0.563 2.81,0.043 5.54,-0.102 8.2,-0.398 2.63,-0.313 5.51,-0.641 8.6,-0.973 l -9.77,57.414 -26.18,-4.445 -2.67,15.769 59.31,10.074 37.51,-220.828 22.08,3.75 2.68,-15.773 -51.7,-8.785 -8.44,32.324 z"
         
         id="path42" /><path
         d="m 1544.29,669.684 c -6.47,-1.52 -11.94,-3.786 -16.39,-6.797 -4.47,-3.012 -7.97,-7.117 -10.48,-12.313 -2.53,-5.183 -4.01,-11.605 -4.43,-19.258 -0.39,-7.664 0.32,-16.863 2.17,-27.593 l 75.41,17.617 c -0.23,1.918 -0.53,3.883 -0.89,5.879 -0.35,1.992 -0.72,3.828 -1.11,5.484 -3.21,13.711 -8.52,23.985 -15.95,30.781 -7.41,6.813 -16.86,8.879 -28.33,6.2 z m 94.54,-115.61 c -3.64,-8.949 -9.88,-16.816 -18.75,-23.597 -8.87,-6.782 -19.88,-11.707 -33.02,-14.786 -13.77,-3.211 -26.39,-4.043 -37.88,-2.445 -11.48,1.574 -21.63,5.238 -30.45,10.961 -8.82,5.707 -16.27,13.391 -22.38,23.027 -6.1,9.629 -10.66,20.903 -13.67,33.778 -6.51,27.828 -4.46,50.597 6.15,68.304 10.59,17.707 28.52,29.512 53.77,35.403 8.34,1.965 16.77,2.832 25.29,2.633 8.52,-0.2 16.46,-1.954 23.83,-5.274 7.39,-3.32 13.92,-8.465 19.62,-15.465 5.71,-6.984 9.92,-16.304 12.65,-27.929 0.82,-3.539 1.48,-7.317 1.98,-11.368 0.51,-4.039 0.85,-8.339 1.04,-12.902 l -109.36,-25.547 c 2.14,-9.148 5.28,-17.176 9.43,-24.094 4.17,-6.921 9.34,-12.507 15.52,-16.75 6.19,-4.25 13.31,-7.027 21.35,-8.324 8.03,-1.297 17.09,-0.765 27.14,1.586 8.17,1.91 15.45,5.035 21.84,9.383 6.4,4.328 11.27,8.758 14.64,13.27 l 11.26,-9.864"
         
         id="path44" /><path
         d="m 1544.29,669.684 c -6.47,-1.52 -11.94,-3.786 -16.39,-6.797 -4.47,-3.012 -7.97,-7.117 -10.48,-12.313 -2.53,-5.183 -4.01,-11.605 -4.43,-19.258 -0.39,-7.664 0.32,-16.863 2.17,-27.593 l 75.41,17.617 c -0.23,1.918 -0.53,3.883 -0.89,5.879 -0.35,1.992 -0.72,3.828 -1.11,5.484 -3.21,13.711 -8.52,23.985 -15.95,30.781 -7.41,6.813 -16.86,8.879 -28.33,6.2 z m 94.54,-115.61 c -3.64,-8.949 -9.88,-16.816 -18.75,-23.597 -8.87,-6.782 -19.88,-11.707 -33.02,-14.786 -13.77,-3.211 -26.39,-4.043 -37.88,-2.445 -11.48,1.574 -21.63,5.238 -30.45,10.961 -8.82,5.707 -16.27,13.391 -22.38,23.027 -6.1,9.629 -10.66,20.903 -13.67,33.778 -6.51,27.828 -4.46,50.597 6.15,68.304 10.59,17.707 28.52,29.512 53.77,35.403 8.34,1.965 16.77,2.832 25.29,2.633 8.52,-0.2 16.46,-1.954 23.83,-5.274 7.39,-3.32 13.92,-8.465 19.62,-15.465 5.71,-6.984 9.92,-16.304 12.65,-27.929 0.82,-3.539 1.48,-7.317 1.98,-11.368 0.51,-4.039 0.85,-8.339 1.04,-12.902 l -109.36,-25.547 c 2.14,-9.148 5.28,-17.176 9.43,-24.094 4.17,-6.921 9.34,-12.507 15.52,-16.75 6.19,-4.25 13.31,-7.027 21.35,-8.324 8.03,-1.297 17.09,-0.765 27.14,1.586 8.17,1.91 15.45,5.035 21.84,9.383 6.4,4.328 11.27,8.758 14.64,13.27 z"
         
         id="path46" /><path
         d="m 378.668,68.2383 4.77,-8.3399 c 3.484,-3.2148 8.449,-6.1445 14.878,-8.7695 6.457,-2.6211 13.7,-4.4336 21.743,-5.4219 7.625,-0.9453 14.769,-1.0195 21.425,-0.2265 6.649,0.7968 12.602,2.4765 17.875,5.0508 5.254,2.5703 9.551,6.1289 12.914,10.6601 3.348,4.5313 5.45,10.1758 6.286,16.9492 1.07,8.6836 -0.957,16.2461 -6.067,22.6754 -5.117,6.434 -11.75,12.422 -19.875,17.934 -8.129,5.52 -17.012,11.016 -26.656,16.512 -9.637,5.492 -18.449,11.636 -26.418,18.418 -7.984,6.785 -14.395,14.562 -19.207,23.328 -4.836,8.762 -6.492,19.277 -4.981,31.57 2.231,17.985 10.79,31.18 25.684,39.547 14.895,8.367 33.988,11.121 57.281,8.246 14.61,-1.808 27.086,-4.316 37.442,-7.527 10.351,-3.211 19.039,-6.871 26.054,-10.953 l -6.746,-54.621 -20.328,2.503 4.238,34.301 -4.101,8.567 c -3.816,2.195 -9.477,4.183 -17,5.972 -7.52,1.778 -14.977,3.133 -22.391,4.051 -12.707,1.566 -23.011,-0.117 -30.929,-5.051 -7.911,-4.941 -12.532,-12.699 -13.836,-23.285 -1.075,-8.683 0.945,-16.285 6.05,-22.828 5.098,-6.543 11.711,-12.68 19.821,-18.406 8.09,-5.735 16.961,-11.395 26.59,-16.985 9.632,-5.601 18.433,-11.734 26.414,-18.41 8.004,-6.695 14.418,-14.312 19.273,-22.855 4.852,-8.555 6.567,-18.6682 5.121,-30.2971 C 511.469,60 501.582,45.2617 484.352,36.3203 467.129,27.3672 444.754,24.6055 417.234,28.0039 c -15.031,1.8516 -27.863,5.0547 -38.48,9.582 -10.613,4.543 -18.238,8.9102 -22.879,13.1446 l 7.133,57.8045 20.332,-2.512 -4.672,-37.7847"
         
         id="path48" /><path
         d="m 378.668,68.2383 4.77,-8.3399 c 3.484,-3.2148 8.449,-6.1445 14.878,-8.7695 6.457,-2.6211 13.7,-4.4336 21.743,-5.4219 7.625,-0.9453 14.769,-1.0195 21.425,-0.2265 6.649,0.7968 12.602,2.4765 17.875,5.0508 5.254,2.5703 9.551,6.1289 12.914,10.6601 3.348,4.5313 5.45,10.1758 6.286,16.9492 1.07,8.6836 -0.957,16.2461 -6.067,22.6754 -5.117,6.434 -11.75,12.422 -19.875,17.934 -8.129,5.52 -17.012,11.016 -26.656,16.512 -9.637,5.492 -18.449,11.636 -26.418,18.418 -7.984,6.785 -14.395,14.562 -19.207,23.328 -4.836,8.762 -6.492,19.277 -4.981,31.57 2.231,17.985 10.79,31.18 25.684,39.547 14.895,8.367 33.988,11.121 57.281,8.246 14.61,-1.808 27.086,-4.316 37.442,-7.527 10.351,-3.211 19.039,-6.871 26.054,-10.953 l -6.746,-54.621 -20.328,2.503 4.238,34.301 -4.101,8.567 c -3.816,2.195 -9.477,4.183 -17,5.972 -7.52,1.778 -14.977,3.133 -22.391,4.051 -12.707,1.566 -23.011,-0.117 -30.929,-5.051 -7.911,-4.941 -12.532,-12.699 -13.836,-23.285 -1.075,-8.683 0.945,-16.285 6.05,-22.828 5.098,-6.543 11.711,-12.68 19.821,-18.406 8.09,-5.735 16.961,-11.395 26.59,-16.985 9.632,-5.601 18.433,-11.734 26.414,-18.41 8.004,-6.695 14.418,-14.312 19.273,-22.855 4.852,-8.555 6.567,-18.6682 5.121,-30.2971 C 511.469,60 501.582,45.2617 484.352,36.3203 467.129,27.3672 444.754,24.6055 417.234,28.0039 c -15.031,1.8516 -27.863,5.0547 -38.48,9.582 -10.613,4.543 -18.238,8.9102 -22.879,13.1446 l 7.133,57.8045 20.332,-2.512 z"
         
         id="path50" /><path
         d="m 557.574,35.6836 c 0.485,6.5937 3.125,11.6367 7.875,15.1367 4.762,3.4805 10.848,4.9453 18.305,4.3867 7.449,-0.5664 13.363,-2.9414 17.754,-7.1289 4.387,-4.1758 6.336,-9.5664 5.844,-16.1679 -0.493,-6.3672 -3.227,-11.3008 -8.18,-14.7774 -4.977,-3.4687 -11.18,-4.9297 -18.625,-4.3672 -7.445,0.5586 -13.254,2.9219 -17.442,7.0899 -4.167,4.1679 -6.015,9.4375 -5.531,15.8281"
         
         id="path52" /><path
         d="m 557.574,35.6836 c 0.485,6.5937 3.125,11.6367 7.875,15.1367 4.762,3.4805 10.848,4.9453 18.305,4.3867 7.449,-0.5664 13.363,-2.9414 17.754,-7.1289 4.387,-4.1758 6.336,-9.5664 5.844,-16.1679 -0.493,-6.3672 -3.227,-11.3008 -8.18,-14.7774 -4.977,-3.4687 -11.18,-4.9297 -18.625,-4.3672 -7.445,0.5586 -13.254,2.9219 -17.442,7.0899 -4.167,4.1679 -6.015,9.4375 -5.531,15.8281 z"
         
         id="path54" /><path
         d="m 746.527,23.1055 c 8.321,-0.2032 16.067,0.75 23.27,2.8281 7.199,2.0781 13.394,5.0781 18.613,9.0117 5.211,3.9258 9.324,8.6875 12.332,14.2735 3.012,5.582 4.59,11.7968 4.754,18.6171 0.192,8.5313 -1.398,15.6602 -4.797,21.3985 -3.383,5.7265 -7.961,10.3086 -13.765,13.7616 -5.793,3.438 -12.602,5.887 -20.465,7.359 -7.852,1.454 -16.168,2.282 -24.91,2.489 l -26.227,0.609 -2.012,-86.703 c 3.176,-0.9219 7.047,-1.7109 11.633,-2.3477 4.563,-0.6406 11.766,-1.0664 21.574,-1.2968 z M 732.98,129.047 c 4.25,-0.094 9.004,-0.055 14.235,0.148 5.234,0.2 9.66,0.481 13.316,0.825 10.949,3.191 19.828,8.515 26.614,15.996 6.789,7.476 10.296,16.371 10.539,26.683 0.32,14.18 -3.918,24.699 -12.711,31.571 -8.817,6.867 -20.895,10.484 -36.254,10.832 -7.25,0.175 -13.379,0.152 -18.403,-0.055 -5.011,-0.203 -9.242,-0.473 -12.656,-0.832 l -1.972,-84.762 z M 647.945,9.38281 l 0.418,17.91409 29.102,-0.6719 4.359,188.102 -29.117,0.691 0.418,17.91 41.91,-0.976 c 4.473,-0.102 8.746,-0.094 12.805,0.031 4.051,0.113 8.32,0.226 12.808,0.34 4.485,0.097 9.34,0.203 14.575,0.3 5.222,0.09 11.039,0.071 17.433,-0.074 9.399,-0.226 18.961,-1.144 28.75,-2.765 9.774,-1.629 18.563,-4.442 26.375,-8.493 7.793,-4.039 14.117,-9.601 18.973,-16.671 4.851,-7.086 7.144,-16.192 6.883,-27.336 -0.129,-5.786 -1.274,-11.45 -3.434,-16.961 -2.144,-5.532 -5.258,-10.606 -9.305,-15.223 -4.058,-4.637 -9.117,-8.695 -15.16,-12.199 -6.066,-3.5 -13.058,-6.028 -20.988,-7.547 l -0.031,-1.289 c 7.011,-1.231 14.004,-3.195 20.996,-5.91 6.98,-2.715 13.242,-6.305 18.789,-10.789 5.547,-4.485 9.961,-9.9496 13.226,-16.3949 3.254,-6.4609 4.79,-14.1484 4.586,-23.0586 C 842.051,56.8516 838.98,47.0313 833.156,38.875 827.309,30.7148 819.73,24.0977 810.441,19.0039 801.148,13.9063 790.672,10.2656 778.988,8.10156 767.301,5.92578 755.492,4.97266 743.543,5.26172 735.227,5.4375 725.918,5.98047 715.578,6.85547 705.246,7.74219 695.293,8.28906 685.691,8.51172 l -37.746,0.87109"
         
         id="path56" /><path
         d="m 746.527,23.1055 c 8.321,-0.2032 16.067,0.75 23.27,2.8281 7.199,2.0781 13.394,5.0781 18.613,9.0117 5.211,3.9258 9.324,8.6875 12.332,14.2735 3.012,5.582 4.59,11.7968 4.754,18.6171 0.192,8.5313 -1.398,15.6602 -4.797,21.3985 -3.383,5.7265 -7.961,10.3086 -13.765,13.7616 -5.793,3.438 -12.602,5.887 -20.465,7.359 -7.852,1.454 -16.168,2.282 -24.91,2.489 l -26.227,0.609 -2.012,-86.703 c 3.176,-0.9219 7.047,-1.7109 11.633,-2.3477 4.563,-0.6406 11.766,-1.0664 21.574,-1.2968 z M 732.98,129.047 c 4.25,-0.094 9.004,-0.055 14.235,0.148 5.234,0.2 9.66,0.481 13.316,0.825 10.949,3.191 19.828,8.515 26.614,15.996 6.789,7.476 10.296,16.371 10.539,26.683 0.32,14.18 -3.918,24.699 -12.711,31.571 -8.817,6.867 -20.895,10.484 -36.254,10.832 -7.25,0.175 -13.379,0.152 -18.403,-0.055 -5.011,-0.203 -9.242,-0.473 -12.656,-0.832 l -1.972,-84.762 z M 647.945,9.38281 l 0.418,17.91409 29.102,-0.6719 4.359,188.102 -29.117,0.691 0.418,17.91 41.91,-0.976 c 4.473,-0.102 8.746,-0.094 12.805,0.031 4.051,0.113 8.32,0.226 12.808,0.34 4.485,0.097 9.34,0.203 14.575,0.3 5.222,0.09 11.039,0.071 17.433,-0.074 9.399,-0.226 18.961,-1.144 28.75,-2.765 9.774,-1.629 18.563,-4.442 26.375,-8.493 7.793,-4.039 14.117,-9.601 18.973,-16.671 4.851,-7.086 7.144,-16.192 6.883,-27.336 -0.129,-5.786 -1.274,-11.45 -3.434,-16.961 -2.144,-5.532 -5.258,-10.606 -9.305,-15.223 -4.058,-4.637 -9.117,-8.695 -15.16,-12.199 -6.066,-3.5 -13.058,-6.028 -20.988,-7.547 l -0.031,-1.289 c 7.011,-1.231 14.004,-3.195 20.996,-5.91 6.98,-2.715 13.242,-6.305 18.789,-10.789 5.547,-4.485 9.961,-9.9496 13.226,-16.3949 3.254,-6.4609 4.79,-14.1484 4.586,-23.0586 C 842.051,56.8516 838.98,47.0313 833.156,38.875 827.309,30.7148 819.73,24.0977 810.441,19.0039 801.148,13.9063 790.672,10.2656 778.988,8.10156 767.301,5.92578 755.492,4.97266 743.543,5.26172 735.227,5.4375 725.918,5.98047 715.578,6.85547 705.246,7.74219 695.293,8.28906 685.691,8.51172 Z"
         
         id="path58" /><path
         d="m 890.715,25.4023 c -0.195,6.6133 1.894,11.9063 6.265,15.879 4.364,3.9648 10.274,6.0585 17.739,6.2695 7.457,0.2226 13.594,-1.5078 18.394,-5.2149 4.809,-3.6953 7.317,-8.8593 7.496,-15.4687 0.196,-6.4024 -2.011,-11.582 -6.582,-15.5625 -4.578,-3.96486 -10.605,-6.06251 -18.062,-6.28517 -7.461,-0.21875 -13.496,1.52735 -18.086,5.23437 -4.586,3.707 -6.969,8.7461 -7.164,15.1484"
         
         id="path60" /><path
         d="m 890.715,25.4023 c -0.195,6.6133 1.894,11.9063 6.265,15.879 4.364,3.9648 10.274,6.0585 17.739,6.2695 7.457,0.2226 13.594,-1.5078 18.394,-5.2149 4.809,-3.6953 7.317,-8.8593 7.496,-15.4687 0.196,-6.4024 -2.011,-11.582 -6.582,-15.5625 -4.578,-3.96486 -10.605,-6.06251 -18.062,-6.28517 -7.461,-0.21875 -13.496,1.52735 -18.086,5.23437 -4.586,3.707 -6.969,8.7461 -7.164,15.1484 z"
         
         id="path62" /><path
         d="m 1039.68,118.969 c 1.09,-0.34 2.76,-0.477 5,-0.406 2.26,0.078 4.65,0.097 7.23,0.097 2.57,-0.012 5.07,0.09 7.52,0.293 2.43,0.195 4.3,0.344 5.58,0.445 8.28,0.668 16.01,2.309 23.19,4.922 7.18,2.602 13.36,6.254 18.55,10.953 5.18,4.704 9.09,10.582 11.74,17.645 2.64,7.055 3.59,15.371 2.81,24.945 -1.41,17.43 -7.92,29.86 -19.53,37.282 -11.63,7.402 -26.89,10.339 -45.83,8.835 -5.73,-0.48 -10.51,-1.023 -14.3,-1.644 -3.82,-0.621 -7.17,-1.383 -10.09,-2.258 z m -72.84,95.258 -1.438,17.863 33.188,2.664 c 9.56,0.773 19.89,2.039 30.99,3.789 11.09,1.738 21.85,3.035 32.26,3.883 11.69,0.937 23.27,0.746 34.73,-0.578 11.45,-1.328 21.73,-4.297 30.9,-8.914 9.13,-4.61 16.77,-11.125 22.91,-19.5 6.13,-8.387 9.73,-19.176 10.79,-32.368 1.01,-12.539 -0.89,-23.558 -5.69,-33.035 -4.8,-9.488 -11.48,-17.461 -20.07,-23.926 -8.57,-6.468 -18.65,-11.57 -30.22,-15.281 -11.58,-3.711 -23.64,-6.07 -36.19,-7.078 -1.28,-0.105 -3.2,-0.25 -5.74,-0.465 -2.55,-0.207 -5.27,-0.379 -8.15,-0.5 -2.87,-0.125 -5.6,-0.183 -8.17,-0.172 -2.57,0 -4.51,0.067 -5.79,0.172 l 5.54,-68.8904 31.9,2.5625 1.44,-17.8593 -96.655,-7.7813 -1.426,17.8594 29.021,2.3437 -15.095,187.5394 -29.035,-2.328"
         
         id="path64" /><path
         d="m 1039.68,118.969 c 1.09,-0.34 2.76,-0.477 5,-0.406 2.26,0.078 4.65,0.097 7.23,0.097 2.57,-0.012 5.07,0.09 7.52,0.293 2.43,0.195 4.3,0.344 5.58,0.445 8.28,0.668 16.01,2.309 23.19,4.922 7.18,2.602 13.36,6.254 18.55,10.953 5.18,4.704 9.09,10.582 11.74,17.645 2.64,7.055 3.59,15.371 2.81,24.945 -1.41,17.43 -7.92,29.86 -19.53,37.282 -11.63,7.402 -26.89,10.339 -45.83,8.835 -5.73,-0.48 -10.51,-1.023 -14.3,-1.644 -3.82,-0.621 -7.17,-1.383 -10.09,-2.258 z m -72.84,95.258 -1.438,17.863 33.188,2.664 c 9.56,0.773 19.89,2.039 30.99,3.789 11.09,1.738 21.85,3.035 32.26,3.883 11.69,0.937 23.27,0.746 34.73,-0.578 11.45,-1.328 21.73,-4.297 30.9,-8.914 9.13,-4.61 16.77,-11.125 22.91,-19.5 6.13,-8.387 9.73,-19.176 10.79,-32.368 1.01,-12.539 -0.89,-23.558 -5.69,-33.035 -4.8,-9.488 -11.48,-17.461 -20.07,-23.926 -8.57,-6.468 -18.65,-11.57 -30.22,-15.281 -11.58,-3.711 -23.64,-6.07 -36.19,-7.078 -1.28,-0.105 -3.2,-0.25 -5.74,-0.465 -2.55,-0.207 -5.27,-0.379 -8.15,-0.5 -2.87,-0.125 -5.6,-0.183 -8.17,-0.172 -2.57,0 -4.51,0.067 -5.79,0.172 l 5.54,-68.8904 31.9,2.5625 1.44,-17.8593 -96.655,-7.7813 -1.426,17.8594 29.021,2.3437 -15.095,187.5394 z"
         
         id="path66" /><path
         d="m 1170.63,43.7656 c -0.78,6.5625 0.84,12.0235 4.84,16.3633 4,4.332 9.71,6.9414 17.12,7.8086 7.41,0.8828 13.67,-0.3242 18.79,-3.5937 5.1,-3.2579 8.05,-8.1797 8.84,-14.7461 0.73,-6.3477 -1.01,-11.7071 -5.21,-16.0743 -4.22,-4.3671 -10.02,-6.9882 -17.44,-7.8632 -7.42,-0.875 -13.57,0.3437 -18.47,3.6328 -4.9,3.289 -7.73,8.1133 -8.47,14.4726"
         
         id="path68" /><path
         d="m 1170.63,43.7656 c -0.78,6.5625 0.84,12.0235 4.84,16.3633 4,4.332 9.71,6.9414 17.12,7.8086 7.41,0.8828 13.67,-0.3242 18.79,-3.5937 5.1,-3.2579 8.05,-8.1797 8.84,-14.7461 0.73,-6.3477 -1.01,-11.7071 -5.21,-16.0743 -4.22,-4.3671 -10.02,-6.9882 -17.44,-7.8632 -7.42,-0.875 -13.57,0.3437 -18.47,3.6328 -4.9,3.289 -7.73,8.1133 -8.47,14.4726 z"
         
         id="path70" /></g></g></svg>
