<?xml version="1.0" encoding="UTF-8" standalone="no"?>
<!-- Created with Inkscape (http://www.inkscape.org/) -->

<svg
   version="1.1"
   id="svg2"
   xml:space="preserve"
   width="152.56523"
   height="34.775566"
   viewBox="0 0 152.56523 34.775567"
   sodipodi:docname="f5656ba50fcc1a93e5c7d3c7b1fc8b7b.eps"
   xmlns:inkscape="http://www.inkscape.org/namespaces/inkscape"
   xmlns:sodipodi="http://sodipodi.sourceforge.net/DTD/sodipodi-0.dtd"
   xmlns="http://www.w3.org/2000/svg"
   xmlns:svg="http://www.w3.org/2000/svg"><defs
     id="defs6" /><sodipodi:namedview
     id="namedview4"
     pagecolor="#ffffff"
     bordercolor="#666666"
     borderopacity="1.0"
     inkscape:pageshadow="2"
     inkscape:pageopacity="0.0"
     inkscape:pagecheckerboard="0" /><g
     id="g8"
     inkscape:groupmode="layer"
     inkscape:label="ink_ext_XXXXXX"
     transform="matrix(1.3333333,0,0,-1.3333333,2.2004804e-4,34.775334)"><g
       id="g10"
       transform="scale(0.1)"><path
         d="m 190.387,81.2344 21.718,3.5117 8.657,-53.2813 C 214.371,26.4766 205.605,21.7969 194.473,17.4375 183.344,13.082 172.109,9.98047 160.801,8.14453 139.984,4.76953 120.93,4.10547 103.648,6.17578 86.3516,8.24219 71.168,13.3906 58.1172,21.6016 45.0625,29.8125 34.2188,41.1172 25.6172,55.5234 17.0078,69.8984 10.957,87.8438 7.46875,109.344 3.86719,131.52 4.21094,150.902 8.47266,167.516 12.75,184.102 19.8555,198.27 29.7969,209.984 c 9.9375,11.707 22.1133,21.067 36.5429,28.043 14.4258,6.989 30.0079,11.852 46.7542,14.559 8.144,1.324 15.543,2.234 22.207,2.742 6.637,0.504 12.726,0.613 18.226,0.344 5.5,-0.266 10.633,-0.828 15.426,-1.664 4.777,-0.852 9.461,-1.836 14.067,-2.953 l 9.418,-58.028 -21.727,-3.535 -5.781,35.649 -5.856,6.004 c -2.676,0.738 -6.797,1.457 -12.371,2.179 -5.574,0.719 -14.238,0.121 -26.004,-1.797 -12.23,-1.976 -23.3357,-5.754 -33.3396,-11.324 C 77.3398,214.625 69.0938,207.137 62.6172,197.727 56.1328,188.309 51.668,176.844 49.2148,163.328 46.7578,149.805 46.9922,134.105 49.8984,116.227 55.1523,83.8711 67.3945,60.2656 86.6523,45.3945 105.898,30.5234 130.34,25.4922 159.988,30.3047 c 8.153,1.3203 14.891,3.0508 20.231,5.1953 5.34,2.1445 9.199,4.4609 11.586,6.9414 l 3.707,7.2227 -5.125,31.5703"
         
         id="path12" /><path
         d="m 190.387,81.2344 21.718,3.5117 8.657,-53.2813 C 214.371,26.4766 205.605,21.7969 194.473,17.4375 183.344,13.082 172.109,9.98047 160.801,8.14453 139.984,4.76953 120.93,4.10547 103.648,6.17578 86.3516,8.24219 71.168,13.3906 58.1172,21.6016 45.0625,29.8125 34.2188,41.1172 25.6172,55.5234 17.0078,69.8984 10.957,87.8438 7.46875,109.344 3.86719,131.52 4.21094,150.902 8.47266,167.516 12.75,184.102 19.8555,198.27 29.7969,209.984 c 9.9375,11.707 22.1133,21.067 36.5429,28.043 14.4258,6.989 30.0079,11.852 46.7542,14.559 8.144,1.324 15.543,2.234 22.207,2.742 6.637,0.504 12.726,0.613 18.226,0.344 5.5,-0.266 10.633,-0.828 15.426,-1.664 4.777,-0.852 9.461,-1.836 14.067,-2.953 l 9.418,-58.028 -21.727,-3.535 -5.781,35.649 -5.856,6.004 c -2.676,0.738 -6.797,1.457 -12.371,2.179 -5.574,0.719 -14.238,0.121 -26.004,-1.797 -12.23,-1.976 -23.3357,-5.754 -33.3396,-11.324 C 77.3398,214.625 69.0938,207.137 62.6172,197.727 56.1328,188.309 51.668,176.844 49.2148,163.328 46.7578,149.805 46.9922,134.105 49.8984,116.227 55.1523,83.8711 67.3945,60.2656 86.6523,45.3945 105.898,30.5234 130.34,25.4922 159.988,30.3047 c 8.153,1.3203 14.891,3.0508 20.231,5.1953 5.34,2.1445 9.199,4.4609 11.586,6.9414 l 3.707,7.2227 z"
         
         id="path14" /><path
         d="m 263.68,98.9961 c -1.367,15.0699 -2.426,30.5119 -3.176,46.3199 -0.754,15.809 -1.785,30.911 -3.094,45.293 l -26.023,-2.367 -1.563,17.121 61.641,5.606 c 1.164,-17.836 2.316,-34.949 3.457,-51.285 1.152,-16.364 2.523,-33.329 4.117,-50.903 0.859,-9.3787 2.129,-17.5935 3.797,-24.6912 1.691,-7.0898 4.18,-13.039 7.5,-17.7929 3.305,-4.7617 7.594,-8.168 12.836,-10.2188 5.25,-2.0625 11.762,-2.7265 19.519,-2.0195 11.418,1.0352 20.668,5.5625 27.77,13.5703 7.098,8.0195 12.133,18.3672 15.121,31.0703 l -9.348,102.7308 -24.996,-2.282 -1.562,17.114 60.949,5.554 14.805,-162.6441 25.351,2.3047 1.551,-17.1211 -57.184,-5.2149 -5.949,38.8321 -1.711,-0.1524 c -0.707,-4.9062 -2.492,-10.0156 -5.343,-15.3398 -2.852,-5.3282 -6.598,-10.2696 -11.247,-14.8282 -4.652,-4.5664 -10.171,-8.4765 -16.535,-11.7031 -6.39,-3.2187 -13.465,-5.1914 -21.218,-5.8906 -10.274,-0.9375 -19.399,-0.6758 -27.348,0.7852 -7.953,1.457 -14.828,4.8007 -20.598,10.0312 -5.769,5.2305 -10.457,12.5156 -14.078,21.8633 -3.605,9.3242 -6.094,21.418 -7.441,36.2578"
         
         id="path16" /><path
         d="m 263.68,98.9961 c -1.367,15.0699 -2.426,30.5119 -3.176,46.3199 -0.754,15.809 -1.785,30.911 -3.094,45.293 l -26.023,-2.367 -1.563,17.121 61.641,5.606 c 1.164,-17.836 2.316,-34.949 3.457,-51.285 1.152,-16.364 2.523,-33.329 4.117,-50.903 0.859,-9.3787 2.129,-17.5935 3.797,-24.6912 1.691,-7.0898 4.18,-13.039 7.5,-17.7929 3.305,-4.7617 7.594,-8.168 12.836,-10.2188 5.25,-2.0625 11.762,-2.7265 19.519,-2.0195 11.418,1.0352 20.668,5.5625 27.77,13.5703 7.098,8.0195 12.133,18.3672 15.121,31.0703 l -9.348,102.7308 -24.996,-2.282 -1.562,17.114 60.949,5.554 14.805,-162.6441 25.351,2.3047 1.551,-17.1211 -57.184,-5.2149 -5.949,38.8321 -1.711,-0.1524 c -0.707,-4.9062 -2.492,-10.0156 -5.343,-15.3398 -2.852,-5.3282 -6.598,-10.2696 -11.247,-14.8282 -4.652,-4.5664 -10.171,-8.4765 -16.535,-11.7031 -6.39,-3.2187 -13.465,-5.1914 -21.218,-5.8906 -10.274,-0.9375 -19.399,-0.6758 -27.348,0.7852 -7.953,1.457 -14.828,4.8007 -20.598,10.0312 -5.769,5.2305 -10.457,12.5156 -14.078,21.8633 -3.605,9.3242 -6.094,21.418 -7.441,36.2578 z"
         
         id="path18" /><path
         d="m 551.203,196.898 c -5.176,-2.941 -9.41,-6.296 -12.715,-10.085 -3.316,-3.79 -6.793,-9.18 -10.445,-16.196 l 3.734,-106.8631 29.899,1.0313 0.59,-17.1797 -91.395,-3.1836 -0.598,17.1797 25.43,0.8789 -5.113,146.0545 -25.426,-0.894 -0.598,17.183 61.504,2.153 1.215,-34.719 1.375,0.051 c 3.621,7.703 7.981,14.445 13.047,20.254 5.07,5.785 10.859,10.984 17.356,15.558 l 32.984,1.16 1.082,-30.926 -41.926,-1.457"
         
         id="path20" /><path
         d="m 551.203,196.898 c -5.176,-2.941 -9.41,-6.296 -12.715,-10.085 -3.316,-3.79 -6.793,-9.18 -10.445,-16.196 l 3.734,-106.8631 29.899,1.0313 0.59,-17.1797 -91.395,-3.1836 -0.598,17.1797 25.43,0.8789 -5.113,146.0545 -25.426,-0.894 -0.598,17.183 61.504,2.153 1.215,-34.719 1.375,0.051 c 3.621,7.703 7.981,14.445 13.047,20.254 5.07,5.785 10.859,10.984 17.356,15.558 l 32.984,1.16 1.082,-30.926 z"
         
         id="path22" /><path
         d="m 719.359,89.3164 c 0.079,6.1094 -2.156,11.5196 -6.679,16.2186 -4.532,4.703 -10.207,9.074 -17.039,13.121 -6.828,4.055 -14.231,8.137 -22.2,12.25 -7.976,4.106 -15.371,8.778 -22.187,14.024 -6.813,5.25 -12.469,11.375 -16.961,18.425 -4.512,7.047 -6.691,15.497 -6.57,25.352 0.074,6.652 1.761,12.645 5.062,18 3.285,5.336 7.668,9.926 13.137,13.762 5.461,3.824 11.894,6.781 19.305,8.875 7.398,2.09 15.253,3.082 23.546,2.98 6.922,-0.078 13.024,-0.386 18.325,-0.902 5.297,-0.52 10.129,-1.227 14.5,-2.074 4.375,-0.86 8.507,-1.875 12.41,-3.071 3.91,-1.207 7.93,-2.496 12.07,-3.937 l -0.57,-46.406 -22.004,0.277 0.328,26.641 -6.437,7.515 c -2.981,0.711 -6.18,1.305 -9.61,1.797 -3.433,0.496 -7.101,0.77 -10.996,0.813 -11.004,0.128 -19.23,-1.864 -24.664,-5.985 -5.437,-4.129 -8.187,-9.359 -8.266,-15.695 -0.074,-6.121 2.149,-11.477 6.676,-16.055 4.535,-4.59 10.211,-8.902 17.043,-12.949 6.82,-4.043 14.223,-8.07 22.207,-12.059 7.969,-4 15.367,-8.5 22.184,-13.511 6.816,-5.012 12.476,-10.75 16.984,-17.215 4.496,-6.488 6.703,-14.192 6.594,-23.1252 -0.102,-8.2539 -2.098,-15.5703 -5.977,-21.9297 -3.879,-6.3828 -9.117,-11.7617 -15.75,-16.1523 -6.621,-4.3828 -14.382,-7.7383 -23.277,-10.0352 -8.906,-2.2929 -18.313,-3.3789 -28.215,-3.2539 -11.07,0.1172 -21.82,1.6875 -32.269,4.6836 -10.446,2.9883 -18.653,6.461 -24.59,10.4453 l 0.554,45.0394 22.004,-0.274 -0.316,-25.6833 6.793,-7.1954 c 2.949,-2.289 6.48,-4.1289 10.59,-5.5429 4.109,-1.3867 9.484,-2.1289 16.133,-2.2227 11,-0.1172 20.086,2.0391 27.246,6.4805 7.156,4.4336 10.789,10.625 10.886,18.5742"
         
         id="path24" /><path
         d="m 719.359,89.3164 c 0.079,6.1094 -2.156,11.5196 -6.679,16.2186 -4.532,4.703 -10.207,9.074 -17.039,13.121 -6.828,4.055 -14.231,8.137 -22.2,12.25 -7.976,4.106 -15.371,8.778 -22.187,14.024 -6.813,5.25 -12.469,11.375 -16.961,18.425 -4.512,7.047 -6.691,15.497 -6.57,25.352 0.074,6.652 1.761,12.645 5.062,18 3.285,5.336 7.668,9.926 13.137,13.762 5.461,3.824 11.894,6.781 19.305,8.875 7.398,2.09 15.253,3.082 23.546,2.98 6.922,-0.078 13.024,-0.386 18.325,-0.902 5.297,-0.52 10.129,-1.227 14.5,-2.074 4.375,-0.86 8.507,-1.875 12.41,-3.071 3.91,-1.207 7.93,-2.496 12.07,-3.937 l -0.57,-46.406 -22.004,0.277 0.328,26.641 -6.437,7.515 c -2.981,0.711 -6.18,1.305 -9.61,1.797 -3.433,0.496 -7.101,0.77 -10.996,0.813 -11.004,0.128 -19.23,-1.864 -24.664,-5.985 -5.437,-4.129 -8.187,-9.359 -8.266,-15.695 -0.074,-6.121 2.149,-11.477 6.676,-16.055 4.535,-4.59 10.211,-8.902 17.043,-12.949 6.82,-4.043 14.223,-8.07 22.207,-12.059 7.969,-4 15.367,-8.5 22.184,-13.511 6.816,-5.012 12.476,-10.75 16.984,-17.215 4.496,-6.488 6.703,-14.192 6.594,-23.1252 -0.102,-8.2539 -2.098,-15.5703 -5.977,-21.9297 -3.879,-6.3828 -9.117,-11.7617 -15.75,-16.1523 -6.621,-4.3828 -14.382,-7.7383 -23.277,-10.0352 -8.906,-2.2929 -18.313,-3.3789 -28.215,-3.2539 -11.07,0.1172 -21.82,1.6875 -32.269,4.6836 -10.446,2.9883 -18.653,6.461 -24.59,10.4453 l 0.554,45.0394 22.004,-0.274 -0.316,-25.6833 6.793,-7.1954 c 2.949,-2.289 6.48,-4.1289 10.59,-5.5429 4.109,-1.3867 9.484,-2.1289 16.133,-2.2227 11,-0.1172 20.086,2.0391 27.246,6.4805 7.156,4.4336 10.789,10.625 10.886,18.5742 z"
         
         id="path26" /><path
         d="m 828.73,134.281 c -0.761,-10.98 -0.437,-21.215 0.977,-30.746 1.414,-9.5233 4.223,-17.8592 8.453,-25.0467 4.223,-7.2031 9.926,-13.043 17.11,-17.5664 7.171,-4.5235 16.164,-7.1524 26.941,-7.918 13.535,-0.9258 25.09,4.4609 34.664,16.2109 9.57,11.7422 15.301,30.9842 17.164,57.7422 0.762,10.973 0.438,21.277 -0.965,30.91 -1.402,9.637 -4.109,18.098 -8.09,25.391 -3.988,7.273 -9.343,13.101 -16.074,17.472 -6.726,4.383 -15.133,6.926 -25.222,7.629 -15.153,1.059 -27.622,-4.277 -37.426,-16.007 -9.813,-11.727 -15.653,-31.082 -17.532,-58.071 z m -38.417,2.68 c 1.054,15.094 4.156,28.324 9.292,39.687 5.157,11.352 11.938,20.7 20.364,28.04 8.429,7.339 18.433,12.675 30.015,16.011 11.579,3.332 24.219,4.516 37.914,3.571 15.973,-1.122 29.582,-4.297 40.797,-9.563 11.207,-5.266 20.184,-12.219 26.926,-20.828 6.742,-8.641 11.481,-18.859 14.223,-30.633 2.734,-11.801 3.597,-24.781 2.613,-38.969 -1.055,-15.093 -4.086,-28.2731 -9.117,-39.5231 -5.031,-11.25 -11.754,-20.5391 -20.184,-27.8828 -8.418,-7.332 -18.422,-12.668 -30,-15.9922 -11.582,-3.3437 -24.34,-4.5195 -38.265,-3.5586 -15.516,1.082 -28.828,4.25 -39.93,9.5 -11.109,5.2539 -20.137,12.2031 -27.106,20.8399 -6.964,8.6523 -11.875,18.8086 -14.734,30.4961 -2.859,11.6917 -3.789,24.6287 -2.808,38.8047"
         
         id="path28" /><path
         d="m 828.73,134.281 c -0.761,-10.98 -0.437,-21.215 0.977,-30.746 1.414,-9.5233 4.223,-17.8592 8.453,-25.0467 4.223,-7.2031 9.926,-13.043 17.11,-17.5664 7.171,-4.5235 16.164,-7.1524 26.941,-7.918 13.535,-0.9258 25.09,4.4609 34.664,16.2109 9.57,11.7422 15.301,30.9842 17.164,57.7422 0.762,10.973 0.438,21.277 -0.965,30.91 -1.402,9.637 -4.109,18.098 -8.09,25.391 -3.988,7.273 -9.343,13.101 -16.074,17.472 -6.726,4.383 -15.133,6.926 -25.222,7.629 -15.153,1.059 -27.622,-4.277 -37.426,-16.007 -9.813,-11.727 -15.653,-31.082 -17.532,-58.071 z m -38.417,2.68 c 1.054,15.094 4.156,28.324 9.292,39.687 5.157,11.352 11.938,20.7 20.364,28.04 8.429,7.339 18.433,12.675 30.015,16.011 11.579,3.332 24.219,4.516 37.914,3.571 15.973,-1.122 29.582,-4.297 40.797,-9.563 11.207,-5.266 20.184,-12.219 26.926,-20.828 6.742,-8.641 11.481,-18.859 14.223,-30.633 2.734,-11.801 3.597,-24.781 2.613,-38.969 -1.055,-15.093 -4.086,-28.2731 -9.117,-39.5231 -5.031,-11.25 -11.754,-20.5391 -20.184,-27.8828 -8.418,-7.332 -18.422,-12.668 -30,-15.9922 -11.582,-3.3437 -24.34,-4.5195 -38.265,-3.5586 -15.516,1.082 -28.828,4.25 -39.93,9.5 -11.109,5.2539 -20.137,12.2031 -27.106,20.8399 -6.964,8.6523 -11.875,18.8086 -14.734,30.4961 -2.859,11.6917 -3.789,24.6287 -2.808,38.8047 z"
         
         id="path30" /><path
         d="m 1096.99,59.4844 c 0.79,6.0664 -0.81,11.6992 -4.76,16.8828 -3.97,5.1914 -9.09,10.1992 -15.43,15 -6.3,4.8047 -13.19,9.7188 -20.64,14.7148 -7.45,4.992 -14.26,10.484 -20.43,16.473 -6.16,5.996 -11.07,12.738 -14.73,20.269 -3.67,7.512 -4.87,16.156 -3.61,25.922 0.84,6.598 3.2,12.352 7.09,17.297 3.88,4.937 8.76,8.996 14.63,12.164 5.87,3.188 12.59,5.379 20.19,6.606 7.59,1.218 15.5,1.308 23.75,0.25 6.86,-0.868 12.88,-1.872 18.09,-2.997 5.21,-1.128 9.92,-2.382 14.17,-3.722 4.24,-1.348 8.23,-2.844 11.97,-4.481 3.75,-1.633 7.59,-3.39 11.54,-5.293 l -5.9,-46.039 -21.82,2.789 3.38,26.457 -5.54,8.196 c -2.86,1.043 -5.97,2 -9.34,2.882 -3.34,0.887 -6.96,1.571 -10.82,2.075 -10.92,1.39 -19.31,0.359 -25.18,-3.114 -5.88,-3.468 -9.22,-8.363 -10.03,-14.656 -0.76,-6.062 0.82,-11.629 4.81,-16.699 3.96,-5.078 9.11,-10.023 15.42,-14.828 6.32,-4.809 13.22,-9.641 20.68,-14.52 7.46,-4.883 14.29,-10.211 20.49,-15.972 6.19,-5.7582 11.15,-12.1176 14.9,-19.0707 3.72,-6.9453 5.02,-14.8359 3.9,-23.7226 -1.06,-8.1797 -3.88,-15.2188 -8.47,-21.0938 -4.58,-5.8867 -10.41,-10.6328 -17.49,-14.2266 -7.09,-3.6054 -15.18,-6.0312 -24.28,-7.289 -9.11,-1.2813 -18.58,-1.2735 -28.41,-0.0156 -10.97,1.4062 -21.48,4.2031 -31.51,8.3632 -10.04,4.1758 -17.78,8.5664 -23.23,13.2071 l 5.71,44.6718 21.84,-2.8007 -3.26,-25.4844 5.91,-7.9141 c 2.67,-2.6054 5.97,-4.8476 9.89,-6.7109 3.92,-1.875 9.18,-3.2227 15.78,-4.0586 10.9,-1.4063 20.17,-0.3086 27.8,3.2891 7.62,3.5976 11.94,9.3281 12.94,17.1992"
         
         id="path32" /><path
         d="m 1096.99,59.4844 c 0.79,6.0664 -0.81,11.6992 -4.76,16.8828 -3.97,5.1914 -9.09,10.1992 -15.43,15 -6.3,4.8047 -13.19,9.7188 -20.64,14.7148 -7.45,4.992 -14.26,10.484 -20.43,16.473 -6.16,5.996 -11.07,12.738 -14.73,20.269 -3.67,7.512 -4.87,16.156 -3.61,25.922 0.84,6.598 3.2,12.352 7.09,17.297 3.88,4.937 8.76,8.996 14.63,12.164 5.87,3.188 12.59,5.379 20.19,6.606 7.59,1.218 15.5,1.308 23.75,0.25 6.86,-0.868 12.88,-1.872 18.09,-2.997 5.21,-1.128 9.92,-2.382 14.17,-3.722 4.24,-1.348 8.23,-2.844 11.97,-4.481 3.75,-1.633 7.59,-3.39 11.54,-5.293 l -5.9,-46.039 -21.82,2.789 3.38,26.457 -5.54,8.196 c -2.86,1.043 -5.97,2 -9.34,2.882 -3.34,0.887 -6.96,1.571 -10.82,2.075 -10.92,1.39 -19.31,0.359 -25.18,-3.114 -5.88,-3.468 -9.22,-8.363 -10.03,-14.656 -0.76,-6.062 0.82,-11.629 4.81,-16.699 3.96,-5.078 9.11,-10.023 15.42,-14.828 6.32,-4.809 13.22,-9.641 20.68,-14.52 7.46,-4.883 14.29,-10.211 20.49,-15.972 6.19,-5.7582 11.15,-12.1176 14.9,-19.0707 3.72,-6.9453 5.02,-14.8359 3.9,-23.7226 -1.06,-8.1797 -3.88,-15.2188 -8.47,-21.0938 -4.58,-5.8867 -10.41,-10.6328 -17.49,-14.2266 -7.09,-3.6054 -15.18,-6.0312 -24.28,-7.289 -9.11,-1.2813 -18.58,-1.2735 -28.41,-0.0156 -10.97,1.4062 -21.48,4.2031 -31.51,8.3632 -10.04,4.1758 -17.78,8.5664 -23.23,13.2071 l 5.71,44.6718 21.84,-2.8007 -3.26,-25.4844 5.91,-7.9141 c 2.67,-2.6054 5.97,-4.8476 9.89,-6.7109 3.92,-1.875 9.18,-3.2227 15.78,-4.0586 10.9,-1.4063 20.17,-0.3086 27.8,3.2891 7.62,3.5976 11.94,9.3281 12.94,17.1992 z"
         
         id="path34" /></g></g>
         </svg>
