<?xml version="1.0" encoding="UTF-8" standalone="no"?>
<svg
   xmlns:dc="http://purl.org/dc/elements/1.1/"
   xmlns:cc="http://creativecommons.org/ns#"
   xmlns:rdf="http://www.w3.org/1999/02/22-rdf-syntax-ns#"
   xmlns:svg="http://www.w3.org/2000/svg"
   xmlns="http://www.w3.org/2000/svg"
   viewBox="0 0 232.30667 48.586666"
   height="48.586666"
   width="232.30667"
   xml:space="preserve"
   id="svg2"
   version="1.1"><metadata
     id="metadata8"><rdf:RDF><cc:Work
         rdf:about=""><dc:format>image/svg+xml</dc:format><dc:type
           rdf:resource="http://purl.org/dc/dcmitype/StillImage" /></cc:Work></rdf:RDF></metadata><defs
     id="defs6" /><g
     transform="matrix(1.3333333,0,0,-1.3333333,0,48.586667)"
     id="g10"><g
       transform="scale(0.1)"
       id="g12"><path
         id="path14"
         
         d="m 159.316,318.93 c -6.484,1.425 -12.757,2.683 -18.816,3.785 -6.07,1.105 -10.902,1.687 -14.523,1.75 L 80.3164,117.699 c 1.332,-0.539 3.5938,-1.226 6.8125,-2.051 3.2031,-0.835 6.7188,-1.734 10.5117,-2.695 3.7894,-0.961 7.4024,-1.871 10.8474,-2.754 3.438,-0.886 5.86,-1.476 7.25,-1.785 17.336,-3.828 32.442,-4.074 45.309,-0.726 12.879,3.343 23.914,9.152 33.144,17.421 9.227,8.274 16.789,18.614 22.692,31.012 5.871,12.41 10.433,25.899 13.656,40.465 2.5,11.336 3.625,23.332 3.395,36 -0.235,12.66 -2.844,24.766 -7.801,36.289 -4.977,11.523 -12.793,21.75 -23.445,30.652 -10.637,8.895 -25.106,15.364 -43.372,19.403 z M 5.96094,115.551 l 4.29296,19.437 31.582,-6.98 45.0508,204.004 -31.5781,6.968 4.293,19.438 42.6834,-9.434 c 4.379,-0.968 9.547,-1.984 15.512,-3.066 5.941,-1.059 12.082,-2.105 18.398,-3.145 6.332,-1.039 12.344,-2 18.094,-2.902 5.742,-0.906 10.582,-1.801 14.524,-2.66 21.5,-4.754 39.867,-11.664 55.097,-20.723 15.215,-9.066 27.235,-19.965 36.074,-32.715 8.825,-12.738 14.407,-27.246 16.766,-43.531 2.328,-16.289 1.391,-34.031 -2.84,-53.23 -4.082,-18.508 -10.508,-34.926 -19.25,-49.242 -8.742,-14.325 -20.047,-25.954 -33.902,-34.895 -13.86,-8.9492 -30.34,-14.6445 -49.445,-17.1016 -19.094,-2.4648 -40.907,-0.9726 -65.422,4.4414 -3.7,0.8125 -7.9418,1.9415 -12.7152,3.3516 -4.7774,1.418 -9.8516,2.9102 -15.211,4.4531 -5.3632,1.5508 -10.7773,3.1095 -16.2578,4.6795 -5.4726,1.571 -10.6367,2.899 -15.4961,3.973 l -40.24996,8.879" /><path
         id="path16"
         
         d="m 159.316,318.93 c -6.484,1.425 -12.757,2.683 -18.816,3.785 -6.07,1.105 -10.902,1.687 -14.523,1.75 L 80.3164,117.699 c 1.332,-0.539 3.5938,-1.226 6.8125,-2.051 3.2031,-0.835 6.7188,-1.734 10.5117,-2.695 3.7894,-0.961 7.4024,-1.871 10.8474,-2.754 3.438,-0.886 5.86,-1.476 7.25,-1.785 17.336,-3.828 32.442,-4.074 45.309,-0.726 12.879,3.343 23.914,9.152 33.144,17.421 9.227,8.274 16.789,18.614 22.692,31.012 5.871,12.41 10.433,25.899 13.656,40.465 2.5,11.336 3.625,23.332 3.395,36 -0.235,12.66 -2.844,24.766 -7.801,36.289 -4.977,11.523 -12.793,21.75 -23.445,30.652 -10.637,8.895 -25.106,15.364 -43.372,19.403 z M 5.96094,115.551 l 4.29296,19.437 31.582,-6.98 45.0508,204.004 -31.5781,6.968 4.293,19.438 42.6834,-9.434 c 4.379,-0.968 9.547,-1.984 15.512,-3.066 5.941,-1.059 12.082,-2.105 18.398,-3.145 6.332,-1.039 12.344,-2 18.094,-2.902 5.742,-0.906 10.582,-1.801 14.524,-2.66 21.5,-4.754 39.867,-11.664 55.097,-20.723 15.215,-9.066 27.235,-19.965 36.074,-32.715 8.825,-12.738 14.407,-27.246 16.766,-43.531 2.328,-16.289 1.391,-34.031 -2.84,-53.23 -4.082,-18.508 -10.508,-34.926 -19.25,-49.242 -8.742,-14.325 -20.047,-25.954 -33.902,-34.895 -13.86,-8.9492 -30.34,-14.6445 -49.445,-17.1016 -19.094,-2.4648 -40.907,-0.9726 -65.422,4.4414 -3.7,0.8125 -7.9418,1.9415 -12.7152,3.3516 -4.7774,1.418 -9.8516,2.9102 -15.211,4.4531 -5.3632,1.5508 -10.7773,3.1095 -16.2578,4.6795 -5.4726,1.571 -10.6367,2.899 -15.4961,3.973 z" /><path
         id="path18"
         
         d="m 346.078,141.441 c -1.605,-11.265 -2.019,-21.843 -1.265,-31.769 0.746,-9.922 3.039,-18.7384 6.859,-26.4532 3.824,-7.7188 9.262,-14.1797 16.332,-19.3555 7.066,-5.1992 16.137,-8.582 27.195,-10.1485 13.879,-1.9687 26.188,2.7461 36.922,14.1407 10.731,11.3945 18.059,30.8086 21.945,58.2465 1.606,11.261 2.024,21.906 1.301,31.933 -0.746,10.035 -2.91,18.949 -6.461,26.758 -3.586,7.801 -8.672,14.211 -15.285,19.219 -6.609,4.996 -15.09,8.234 -25.445,9.711 -15.531,2.203 -28.778,-2.375 -39.746,-13.735 -10.992,-11.367 -18.426,-30.886 -22.352,-58.547 z m -39.406,5.582 c 2.199,15.485 6.359,28.883 12.519,40.211 6.133,11.329 13.817,20.469 23.047,27.414 9.227,6.938 19.93,11.7 32.117,14.286 12.192,2.57 25.297,2.867 39.352,0.867 16.379,-2.328 30.16,-6.61 41.328,-12.867 11.164,-6.246 19.906,-14.067 26.227,-23.454 6.297,-9.394 10.433,-20.273 12.383,-32.621 1.945,-12.355 1.886,-25.816 -0.176,-40.351 C 491.273,105.035 487.168,91.6758 481.16,80.4531 475.141,69.2227 467.523,60.1406 458.301,53.1914 449.074,46.2578 438.379,41.4883 426.188,38.918 414,36.3359 400.777,36.0586 386.496,38.0859 c -15.926,2.2579 -29.41,6.5118 -40.465,12.7383 -11.058,6.2422 -19.855,14.0586 -26.39,23.4883 -6.547,9.4141 -10.871,20.2617 -12.942,32.5195 -2.082,12.258 -2.094,25.648 -0.027,40.191" /><path
         id="path20"
         
         d="m 346.078,141.441 c -1.605,-11.265 -2.019,-21.843 -1.265,-31.769 0.746,-9.922 3.039,-18.7384 6.859,-26.4532 3.824,-7.7188 9.262,-14.1797 16.332,-19.3555 7.066,-5.1992 16.137,-8.582 27.195,-10.1485 13.879,-1.9687 26.188,2.7461 36.922,14.1407 10.731,11.3945 18.059,30.8086 21.945,58.2465 1.606,11.261 2.024,21.906 1.301,31.933 -0.746,10.035 -2.91,18.949 -6.461,26.758 -3.586,7.801 -8.672,14.211 -15.285,19.219 -6.609,4.996 -15.09,8.234 -25.445,9.711 -15.531,2.203 -28.778,-2.375 -39.746,-13.735 -10.992,-11.367 -18.426,-30.886 -22.352,-58.547 z m -39.406,5.582 c 2.199,15.485 6.359,28.883 12.519,40.211 6.133,11.329 13.817,20.469 23.047,27.414 9.227,6.938 19.93,11.7 32.117,14.286 12.192,2.57 25.297,2.867 39.352,0.867 16.379,-2.328 30.16,-6.61 41.328,-12.867 11.164,-6.246 19.906,-14.067 26.227,-23.454 6.297,-9.394 10.433,-20.273 12.383,-32.621 1.945,-12.355 1.886,-25.816 -0.176,-40.351 C 491.273,105.035 487.168,91.6758 481.16,80.4531 475.141,69.2227 467.523,60.1406 458.301,53.1914 449.074,46.2578 438.379,41.4883 426.188,38.918 414,36.3359 400.777,36.0586 386.496,38.0859 c -15.926,2.2579 -29.41,6.5118 -40.465,12.7383 -11.058,6.2422 -19.855,14.0586 -26.39,23.4883 -6.547,9.4141 -10.871,20.2617 -12.942,32.5195 -2.082,12.258 -2.094,25.648 -0.027,40.191 z" /><path
         id="path22"
         
         d="m 678.793,35.7969 c -5.5,-6.4571 -13.852,-12.1602 -25.059,-17.0899 -11.203,-4.9453 -24.117,-6.8281 -38.754,-5.6797 -15.593,1.2344 -29.039,4.6133 -40.371,10.1407 -11.328,5.5273 -20.546,12.7812 -27.683,21.789 -7.125,8.9844 -12.117,19.6016 -14.946,31.8203 -2.847,12.2305 -3.683,25.6567 -2.535,40.3047 2.489,31.395 12.7,54.711 30.653,69.93 17.961,15.211 41.211,21.699 69.789,19.437 12.984,-1.023 23.668,-2.695 32.031,-5.015 8.379,-2.336 15.969,-5.543 22.77,-9.645 l -3.641,-46.043 -31.871,2.512 2.625,33.351 c -3.395,2.364 -10.418,3.969 -21.094,4.821 -9.019,0.707 -17.062,0.039 -24.148,-2.008 -7.082,-2.035 -13.231,-5.809 -18.438,-11.301 -5.207,-5.516 -9.394,-13.098 -12.539,-22.785 -3.148,-9.68 -5.293,-21.684 -6.43,-36.02 -0.742,-9.41 -0.144,-18.4918 1.786,-27.2769 1.929,-8.7813 5.234,-16.6172 9.941,-23.4922 4.707,-6.8672 10.863,-12.4922 18.508,-16.8789 7.629,-4.3907 16.793,-7.0039 27.441,-7.8438 5.692,-0.4453 10.774,-0.2539 15.246,0.586 4.469,0.8281 8.414,1.7578 11.848,2.7929 3.414,1.043 6.496,2.2813 9.215,3.7344 2.726,1.4453 5.367,3.0156 7.886,4.7227 l 7.77,-14.8633" /><path
         id="path24"
         
         d="m 678.793,35.7969 c -5.5,-6.4571 -13.852,-12.1602 -25.059,-17.0899 -11.203,-4.9453 -24.117,-6.8281 -38.754,-5.6797 -15.593,1.2344 -29.039,4.6133 -40.371,10.1407 -11.328,5.5273 -20.546,12.7812 -27.683,21.789 -7.125,8.9844 -12.117,19.6016 -14.946,31.8203 -2.847,12.2305 -3.683,25.6567 -2.535,40.3047 2.489,31.395 12.7,54.711 30.653,69.93 17.961,15.211 41.211,21.699 69.789,19.437 12.984,-1.023 23.668,-2.695 32.031,-5.015 8.379,-2.336 15.969,-5.543 22.77,-9.645 l -3.641,-46.043 -31.871,2.512 2.625,33.351 c -3.395,2.364 -10.418,3.969 -21.094,4.821 -9.019,0.707 -17.062,0.039 -24.148,-2.008 -7.082,-2.035 -13.231,-5.809 -18.438,-11.301 -5.207,-5.516 -9.394,-13.098 -12.539,-22.785 -3.148,-9.68 -5.293,-21.684 -6.43,-36.02 -0.742,-9.41 -0.144,-18.4918 1.786,-27.2769 1.929,-8.7813 5.234,-16.6172 9.941,-23.4922 4.707,-6.8672 10.863,-12.4922 18.508,-16.8789 7.629,-4.3907 16.793,-7.0039 27.441,-7.8438 5.692,-0.4453 10.774,-0.2539 15.246,0.586 4.469,0.8281 8.414,1.7578 11.848,2.7929 3.414,1.043 6.496,2.2813 9.215,3.7344 2.726,1.4453 5.367,3.0156 7.886,4.7227 z" /><path
         id="path26"
         
         d="m 710.387,197.277 31.601,-0.875 1.239,44.399 37.296,-1.043 -1.234,-44.391 58.945,-1.637 -0.621,-22.726 -58.957,1.633 -2.875,-103.7034 c -0.422,-14.9258 1.168,-25.5039 4.797,-31.7656 3.613,-6.2696 9.692,-9.5157 18.215,-9.7539 7.324,-0.1953 13.703,0.9179 19.105,3.3867 5.407,2.4453 10.387,5.1562 14.973,8.1055 l 8.496,-14.0977 c -2.195,-2.0781 -5.152,-4.293 -8.89,-6.6797 -3.75,-2.3828 -8.012,-4.5781 -12.805,-6.5781 C 814.879,9.55469 809.563,7.92578 803.723,6.66406 797.883,5.40234 791.879,4.85938 785.734,5.03125 769.855,5.47266 757.84,9.89453 749.66,18.2969 c -8.183,8.3984 -12.008,22.0742 -11.476,41.0156 l 3.179,114.3555 -31.609,0.887 0.633,22.722" /><path
         id="path28"
         
         d="m 710.387,197.277 31.601,-0.875 1.239,44.399 37.296,-1.043 -1.234,-44.391 58.945,-1.637 -0.621,-22.726 -58.957,1.633 -2.875,-103.7034 c -0.422,-14.9258 1.168,-25.5039 4.797,-31.7656 3.613,-6.2696 9.692,-9.5157 18.215,-9.7539 7.324,-0.1953 13.703,0.9179 19.105,3.3867 5.407,2.4453 10.387,5.1562 14.973,8.1055 l 8.496,-14.0977 c -2.195,-2.0781 -5.152,-4.293 -8.89,-6.6797 -3.75,-2.3828 -8.012,-4.5781 -12.805,-6.5781 C 814.879,9.55469 809.563,7.92578 803.723,6.66406 797.883,5.40234 791.879,4.85938 785.734,5.03125 769.855,5.47266 757.84,9.89453 749.66,18.2969 c -8.183,8.3984 -12.008,22.0742 -11.476,41.0156 l 3.179,114.3555 -31.609,0.887 z" /><path
         id="path30"
         
         d="m 952.59,163.137 c -5.391,-2.938 -9.836,-6.34 -13.313,-10.188 -3.476,-3.863 -7.172,-9.379 -11.074,-16.551 l 2.012,-110.4761 30.918,0.5625 0.32,-17.76956 -94.488,-1.72656 -0.336,17.77342 26.297,0.4805 -2.754,150.9768 -26.289,-0.485 -0.324,17.762 63.582,1.156 0.664,-35.875 1.422,0.02 c 3.875,7.894 8.484,14.789 13.832,20.687 5.339,5.907 11.402,11.176 18.187,15.797 l 34.102,0.621 0.59,-31.968 -43.348,-0.797" /><path
         id="path32"
         
         d="m 952.59,163.137 c -5.391,-2.938 -9.836,-6.34 -13.313,-10.188 -3.476,-3.863 -7.172,-9.379 -11.074,-16.551 l 2.012,-110.4761 30.918,0.5625 0.32,-17.76956 -94.488,-1.72656 -0.336,17.77342 26.297,0.4805 -2.754,150.9768 -26.289,-0.485 -0.324,17.762 63.582,1.156 0.664,-35.875 1.422,0.02 c 3.875,7.894 8.484,14.789 13.832,20.687 5.339,5.907 11.402,11.176 18.187,15.797 l 34.102,0.621 0.59,-31.968 z" /><path
         id="path34"
         
         d="m 1120.31,16.5 -89.74,-5.375 -1.05,17.7266 26.24,1.5781 -9.04,150.7343 -26.24,-1.574 -1.06,17.726 63.48,3.813 10.1,-168.4649 26.24,1.5742 z m -85.89,239.379 c -0.42,6.859 1.68,12.437 6.29,16.754 4.61,4.297 10.69,6.695 18.26,7.144 8.03,0.477 14.48,-1.148 19.34,-4.89 4.85,-3.75 7.48,-9.043 7.9,-15.903 0.4,-6.867 -1.58,-12.445 -5.96,-16.726 -4.36,-4.301 -10.57,-6.684 -18.59,-7.172 -7.58,-0.449 -13.91,1.184 -19,4.914 -5.09,3.73 -7.83,9.023 -8.24,15.879" /><path
         id="path36"
         
         d="m 1120.31,16.5 -89.74,-5.375 -1.05,17.7266 26.24,1.5781 -9.04,150.7343 -26.24,-1.574 -1.06,17.726 63.48,3.813 10.1,-168.4649 26.24,1.5742 z m -85.89,239.379 c -0.42,6.859 1.68,12.437 6.29,16.754 4.61,4.297 10.69,6.695 18.26,7.144 8.03,0.477 14.48,-1.148 19.34,-4.89 4.85,-3.75 7.48,-9.043 7.9,-15.903 0.4,-6.867 -1.58,-12.445 -5.96,-16.726 -4.36,-4.301 -10.57,-6.684 -18.59,-7.172 -7.58,-0.449 -13.91,1.184 -19,4.914 -5.09,3.73 -7.83,9.023 -8.24,15.879 z" /><path
         id="path38"
         
         d="m 1373.05,42.8516 -86.49,-9.9102 -2.01,17.6367 23.29,2.6758 -10.17,88.6091 c -2.13,18.582 -6.62,32.731 -13.44,42.438 -6.85,9.703 -17.79,13.695 -32.85,11.972 -6.59,-0.761 -12.54,-2.511 -17.82,-5.269 -5.3,-2.746 -9.9,-6.133 -13.85,-10.164 -3.95,-4.031 -7.24,-8.582 -9.89,-13.649 -2.62,-5.082 -4.47,-10.3 -5.52,-15.664 l 12.47,-108.7106 23.29,2.668 2.03,-17.6524 -86.49,-9.9179 -2.02,17.6562 26.13,2.9922 -17.22,150.0155 -26.11,-2.996 -2.03,17.652 63.18,7.243 4.21,-36.707 0.36,0.039 c 4.12,11.918 10.96,22.355 20.54,31.328 9.58,8.965 21.78,14.293 36.61,16.004 10.59,1.207 20.13,1.168 28.63,-0.125 8.49,-1.289 15.84,-4.559 22.04,-9.805 6.2,-5.246 11.35,-12.652 15.43,-22.195 4.07,-9.539 6.99,-21.969 8.74,-37.258 l 10.81,-94.2502 26.13,2.9922 2.02,-17.6484" /><path
         id="path40"
         
         d="m 1373.05,42.8516 -86.49,-9.9102 -2.01,17.6367 23.29,2.6758 -10.17,88.6091 c -2.13,18.582 -6.62,32.731 -13.44,42.438 -6.85,9.703 -17.79,13.695 -32.85,11.972 -6.59,-0.761 -12.54,-2.511 -17.82,-5.269 -5.3,-2.746 -9.9,-6.133 -13.85,-10.164 -3.95,-4.031 -7.24,-8.582 -9.89,-13.649 -2.62,-5.082 -4.47,-10.3 -5.52,-15.664 l 12.47,-108.7106 23.29,2.668 2.03,-17.6524 -86.49,-9.9179 -2.02,17.6562 26.13,2.9922 -17.22,150.0155 -26.11,-2.996 -2.03,17.652 63.18,7.243 4.21,-36.707 0.36,0.039 c 4.12,11.918 10.96,22.355 20.54,31.328 9.58,8.965 21.78,14.293 36.61,16.004 10.59,1.207 20.13,1.168 28.63,-0.125 8.49,-1.289 15.84,-4.559 22.04,-9.805 6.2,-5.246 11.35,-12.652 15.43,-22.195 4.07,-9.539 6.99,-21.969 8.74,-37.258 l 10.81,-94.2502 26.13,2.9922 z" /><path
         id="path42"
         
         d="m 1471.71,80.9297 c 5.6,1.0117 10.43,2.8086 14.56,5.375 4.09,2.5508 7.6,5.4766 10.48,8.7695 2.89,3.2969 5.26,6.8008 7.12,10.5078 1.85,3.707 3.31,7.234 4.39,10.563 l -7.61,41.585 c -15.15,-2.769 -27.25,-6.011 -36.33,-9.707 -9.06,-3.707 -15.99,-7.683 -20.75,-11.925 -4.78,-4.239 -7.73,-8.813 -8.87,-13.711 -1.15,-4.918 -1.26,-9.934 -0.32,-15.051 1.91,-10.4844 6.16,-17.9571 12.76,-22.4141 6.6,-4.4531 14.78,-5.7774 24.57,-3.9922 z m 71.94,43.1213 c 0.98,-5.363 2.09,-10.754 3.32,-16.188 1.22,-5.433 2.48,-10.32 3.77,-14.6599 l 23.42,4.2774 3.19,-17.4688 -55.87,-10.2148 -9.63,32.5551 -1.74,-0.325 c -0.31,-4.8747 -1.63,-9.8043 -3.98,-14.8082 -2.34,-4.9961 -5.58,-9.6875 -9.7,-14.0665 -4.15,-4.3632 -9.28,-8.1875 -15.42,-11.4726 -6.15,-3.2969 -13.18,-5.6602 -21.1,-7.1055 -7.92,-1.4531 -15.41,-1.6133 -22.48,-0.4961 -7.07,1.1133 -13.43,3.3203 -19.08,6.6172 -5.67,3.3008 -10.39,7.6797 -14.14,13.1289 -3.78,5.4531 -6.34,11.9024 -7.69,19.3594 -2.1,11.4184 -1.44,21.2894 1.98,29.6254 3.4,8.328 9.38,15.496 17.92,21.515 8.53,6.012 19.62,11.231 33.27,15.653 13.64,4.414 29.74,8.441 48.34,12.086 -0.21,3.777 -0.62,7.332 -1.22,10.664 -0.61,3.347 -1.22,6.632 -1.81,9.859 -2.6,14.293 -7.05,24.742 -13.3,31.328 -6.26,6.594 -15.69,8.746 -28.28,6.461 -4.65,-0.855 -9.63,-2.008 -14.9,-3.445 -5.28,-1.438 -9.92,-3.696 -13.92,-6.797 l 5.76,-31.543 -31.45,-5.746 -7.09,38.789 c 7.62,5.969 16.85,11.746 27.7,17.34 10.83,5.601 23.98,9.8 39.44,12.636 13.35,2.438 24.38,2.704 33.08,0.805 8.7,-1.898 15.72,-5.199 21.04,-9.871 5.34,-4.688 9.28,-10.355 11.83,-16.996 2.54,-6.637 4.43,-13.328 5.66,-20.09 2.69,-14.676 4.96,-28.766 6.82,-42.273 1.86,-13.508 3.96,-26.551 6.26,-39.133" /><path
         id="path44"
         
         d="m 1471.71,80.9297 c 5.6,1.0117 10.43,2.8086 14.56,5.375 4.09,2.5508 7.6,5.4766 10.48,8.7695 2.89,3.2969 5.26,6.8008 7.12,10.5078 1.85,3.707 3.31,7.234 4.39,10.563 l -7.61,41.585 c -15.15,-2.769 -27.25,-6.011 -36.33,-9.707 -9.06,-3.707 -15.99,-7.683 -20.75,-11.925 -4.78,-4.239 -7.73,-8.813 -8.87,-13.711 -1.15,-4.918 -1.26,-9.934 -0.32,-15.051 1.91,-10.4844 6.16,-17.9571 12.76,-22.4141 6.6,-4.4531 14.78,-5.7774 24.57,-3.9922 z m 71.94,43.1213 c 0.98,-5.363 2.09,-10.754 3.32,-16.188 1.22,-5.433 2.48,-10.32 3.77,-14.6599 l 23.42,4.2774 3.19,-17.4688 -55.87,-10.2148 -9.63,32.5551 -1.74,-0.325 c -0.31,-4.8747 -1.63,-9.8043 -3.98,-14.8082 -2.34,-4.9961 -5.58,-9.6875 -9.7,-14.0665 -4.15,-4.3632 -9.28,-8.1875 -15.42,-11.4726 -6.15,-3.2969 -13.18,-5.6602 -21.1,-7.1055 -7.92,-1.4531 -15.41,-1.6133 -22.48,-0.4961 -7.07,1.1133 -13.43,3.3203 -19.08,6.6172 -5.67,3.3008 -10.39,7.6797 -14.14,13.1289 -3.78,5.4531 -6.34,11.9024 -7.69,19.3594 -2.1,11.4184 -1.44,21.2894 1.98,29.6254 3.4,8.328 9.38,15.496 17.92,21.515 8.53,6.012 19.62,11.231 33.27,15.653 13.64,4.414 29.74,8.441 48.34,12.086 -0.21,3.777 -0.62,7.332 -1.22,10.664 -0.61,3.347 -1.22,6.632 -1.81,9.859 -2.6,14.293 -7.05,24.742 -13.3,31.328 -6.26,6.594 -15.69,8.746 -28.28,6.461 -4.65,-0.855 -9.63,-2.008 -14.9,-3.445 -5.28,-1.438 -9.92,-3.696 -13.92,-6.797 l 5.76,-31.543 -31.45,-5.746 -7.09,38.789 c 7.62,5.969 16.85,11.746 27.7,17.34 10.83,5.601 23.98,9.8 39.44,12.636 13.35,2.438 24.38,2.704 33.08,0.805 8.7,-1.898 15.72,-5.199 21.04,-9.871 5.34,-4.688 9.28,-10.355 11.83,-16.996 2.54,-6.637 4.43,-13.328 5.66,-20.09 2.69,-14.676 4.96,-28.766 6.82,-42.273 1.86,-13.508 3.96,-26.551 6.26,-39.133 z" /><path
         id="path46"
         
         d="m 1701.47,153.48 c -1.51,6.153 -5.11,11 -10.85,14.567 -5.73,3.543 -12.53,6.473 -20.39,8.785 -7.87,2.313 -16.33,4.512 -25.37,6.59 -9.03,2.074 -17.62,4.867 -25.79,8.383 -8.14,3.504 -15.38,8.215 -21.68,14.125 -6.31,5.91 -10.66,13.808 -13.05,23.715 -1.62,6.668 -1.47,13.113 0.46,19.304 1.95,6.192 5.16,11.903 9.65,17.145 4.49,5.219 10.19,9.828 17.07,13.808 6.89,3.977 14.49,6.977 22.83,9 6.94,1.676 13.14,2.926 18.57,3.758 5.44,0.824 10.45,1.371 15.05,1.625 4.59,0.262 9,0.293 13.22,0.094 4.22,-0.203 8.57,-0.481 13.08,-0.856 l 11.28,-46.613 -22.1,-5.347 -6.48,26.765 -8.37,5.879 c -3.15,-0.051 -6.52,-0.269 -10.08,-0.648 -3.56,-0.383 -7.31,-1.051 -11.22,-1.993 -11.05,-2.679 -18.77,-6.769 -23.16,-12.293 -4.4,-5.515 -5.82,-11.457 -4.27,-17.828 1.48,-6.144 5.07,-10.922 10.78,-14.363 5.7,-3.441 12.49,-6.309 20.35,-8.617 7.88,-2.317 16.32,-4.445 25.32,-6.41 9,-1.973 17.56,-4.586 25.68,-7.867 8.09,-3.282 15.23,-7.594 21.39,-12.918 6.16,-5.325 10.33,-12.481 12.51,-21.465 2,-8.293 1.86,-16.117 -0.38,-23.492 -2.27,-7.36 -6.15,-14.094 -11.66,-20.188 -5.51,-6.07 -12.45,-11.406 -20.76,-15.973 -8.33,-4.582 -17.48,-8.07 -27.41,-10.4762 -11.12,-2.6875 -22.28,-3.8672 -33.52,-3.5352 -11.22,0.3282 -20.32,1.7266 -27.28,4.1754 l -10.94,45.235 22.09,5.363 6.25,-25.816 8.63,-5.453 c 3.54,-1.547 7.55,-2.493 12.03,-2.844 4.47,-0.363 10.03,0.273 16.72,1.887 11.05,2.671 19.59,7.136 25.62,13.429 6.04,6.281 8.09,13.403 6.18,21.363" /><path
         id="path48"
         
         d="m 1701.47,153.48 c -1.51,6.153 -5.11,11 -10.85,14.567 -5.73,3.543 -12.53,6.473 -20.39,8.785 -7.87,2.313 -16.33,4.512 -25.37,6.59 -9.03,2.074 -17.62,4.867 -25.79,8.383 -8.14,3.504 -15.38,8.215 -21.68,14.125 -6.31,5.91 -10.66,13.808 -13.05,23.715 -1.62,6.668 -1.47,13.113 0.46,19.304 1.95,6.192 5.16,11.903 9.65,17.145 4.49,5.219 10.19,9.828 17.07,13.808 6.89,3.977 14.49,6.977 22.83,9 6.94,1.676 13.14,2.926 18.57,3.758 5.44,0.824 10.45,1.371 15.05,1.625 4.59,0.262 9,0.293 13.22,0.094 4.22,-0.203 8.57,-0.481 13.08,-0.856 l 11.28,-46.613 -22.1,-5.347 -6.48,26.765 -8.37,5.879 c -3.15,-0.051 -6.52,-0.269 -10.08,-0.648 -3.56,-0.383 -7.31,-1.051 -11.22,-1.993 -11.05,-2.679 -18.77,-6.769 -23.16,-12.293 -4.4,-5.515 -5.82,-11.457 -4.27,-17.828 1.48,-6.144 5.07,-10.922 10.78,-14.363 5.7,-3.441 12.49,-6.309 20.35,-8.617 7.88,-2.317 16.32,-4.445 25.32,-6.41 9,-1.973 17.56,-4.586 25.68,-7.867 8.09,-3.282 15.23,-7.594 21.39,-12.918 6.16,-5.325 10.33,-12.481 12.51,-21.465 2,-8.293 1.86,-16.117 -0.38,-23.492 -2.27,-7.36 -6.15,-14.094 -11.66,-20.188 -5.51,-6.07 -12.45,-11.406 -20.76,-15.973 -8.33,-4.582 -17.48,-8.07 -27.41,-10.4762 -11.12,-2.6875 -22.28,-3.8672 -33.52,-3.5352 -11.22,0.3282 -20.32,1.7266 -27.28,4.1754 l -10.94,45.235 22.09,5.363 6.25,-25.816 8.63,-5.453 c 3.54,-1.547 7.55,-2.493 12.03,-2.844 4.47,-0.363 10.03,0.273 16.72,1.887 11.05,2.671 19.59,7.136 25.62,13.429 6.04,6.281 8.09,13.403 6.18,21.363 z" /></g></g>
         
         </svg>