<?xml version="1.0" encoding="UTF-8" standalone="no"?>
<svg
   xmlns:dc="http://purl.org/dc/elements/1.1/"
   xmlns:cc="http://creativecommons.org/ns#"
   xmlns:rdf="http://www.w3.org/1999/02/22-rdf-syntax-ns#"
   xmlns:svg="http://www.w3.org/2000/svg"
   xmlns="http://www.w3.org/2000/svg"
   viewBox="0 0 228.33333 46.306667"
   height="46.306667"
   width="228.33333"
   xml:space="preserve"
   id="svg2"
   version="1.1"><metadata
     id="metadata8"><rdf:RDF><cc:Work
         rdf:about=""><dc:format>image/svg+xml</dc:format><dc:type
           rdf:resource="http://purl.org/dc/dcmitype/StillImage" /></cc:Work></rdf:RDF></metadata><defs
     id="defs6" /><g
     transform="matrix(1.3333333,0,0,-1.3333333,0,46.306667)"
     id="g10"><g
       transform="scale(0.1)"
       id="g12"><path
         id="path14"
         
         d="M 216.305,46.1211 C 212.707,42.6602 208.496,39.1367 203.652,35.5742 198.805,32.0039 193.633,28.6719 188.141,25.5781 182.66,22.4844 177.035,19.6758 171.285,17.1563 165.543,14.6406 159.863,12.668 154.273,11.2461 135.676,6.53125 118.582,4.48828 102.984,5.10938 87.4023,5.73828 73.4766,9.23438 61.2266,15.6016 48.9727,21.957 38.5078,31.3359 29.8359,43.7148 21.1523,56.0898 14.4688,71.582 9.75,90.1797 4.79688,109.781 3.71875,127.277 6.50781,142.68 9.30859,158.066 14.8086,171.43 23,182.766 c 8.1875,11.328 18.5391,20.664 31.0547,27.98 12.5156,7.328 25.8672,12.785 40.0703,16.387 14.785,3.754 27.246,5.836 37.348,6.273 10.109,0.434 19.39,-0.09 27.859,-1.562 l 12.996,-51.289 -19.191,-4.864 -7.989,31.493 -5.722,4.941 c -2.047,0.535 -4.563,0.801 -7.547,0.801 -2.981,-0.02 -6.082,-0.168 -9.297,-0.449 -3.23,-0.297 -6.519,-0.754 -9.867,-1.387 -3.344,-0.629 -6.438,-1.309 -9.227,-2.016 -10.9997,-2.785 -20.863,-7.101 -29.6052,-12.933 -8.7344,-5.832 -15.7422,-13.254 -21.0234,-22.246 -5.2696,-9 -8.5274,-19.676 -9.7617,-32 C 41.8633,129.551 43.2578,115.48 47.2539,99.6836 54.4453,71.2813 67.0742,51.0742 85.1406,39.0547 103.18,27.0273 125.406,24.3594 151.801,31.0469 c 6.601,1.6836 12.129,3.5586 16.609,5.6523 4.465,2.0899 8.332,4.293 11.57,6.6016 l 3.137,6.5469 -14.375,56.6953 -31.793,-8.0625 -4.261,16.7925 83.089,21.063 4.254,-16.793 -20.984,-5.324 17.258,-68.0979" /><path
         id="path16"
         
         d="M 216.305,46.1211 C 212.707,42.6602 208.496,39.1367 203.652,35.5742 198.805,32.0039 193.633,28.6719 188.141,25.5781 182.66,22.4844 177.035,19.6758 171.285,17.1563 165.543,14.6406 159.863,12.668 154.273,11.2461 135.676,6.53125 118.582,4.48828 102.984,5.10938 87.4023,5.73828 73.4766,9.23438 61.2266,15.6016 48.9727,21.957 38.5078,31.3359 29.8359,43.7148 21.1523,56.0898 14.4688,71.582 9.75,90.1797 4.79688,109.781 3.71875,127.277 6.50781,142.68 9.30859,158.066 14.8086,171.43 23,182.766 c 8.1875,11.328 18.5391,20.664 31.0547,27.98 12.5156,7.328 25.8672,12.785 40.0703,16.387 14.785,3.754 27.246,5.836 37.348,6.273 10.109,0.434 19.39,-0.09 27.859,-1.562 l 12.996,-51.289 -19.191,-4.864 -7.989,31.493 -5.722,4.941 c -2.047,0.535 -4.563,0.801 -7.547,0.801 -2.981,-0.02 -6.082,-0.168 -9.297,-0.449 -3.23,-0.297 -6.519,-0.754 -9.867,-1.387 -3.344,-0.629 -6.438,-1.309 -9.227,-2.016 -10.9997,-2.785 -20.863,-7.101 -29.6052,-12.933 -8.7344,-5.832 -15.7422,-13.254 -21.0234,-22.246 -5.2696,-9 -8.5274,-19.676 -9.7617,-32 C 41.8633,129.551 43.2578,115.48 47.2539,99.6836 54.4453,71.2813 67.0742,51.0742 85.1406,39.0547 103.18,27.0273 125.406,24.3594 151.801,31.0469 c 6.601,1.6836 12.129,3.5586 16.609,5.6523 4.465,2.0899 8.332,4.293 11.57,6.6016 l 3.137,6.5469 -14.375,56.6953 -31.793,-8.0625 -4.261,16.7925 83.089,21.063 4.254,-16.793 -20.984,-5.324 z" /><path
         id="path18"
         
         d="m 310.605,203.289 c -6.304,-1.184 -11.699,-3.133 -16.14,-5.855 -4.438,-2.727 -7.992,-6.539 -10.652,-11.442 -2.672,-4.91 -4.364,-11.051 -5.086,-18.422 -0.723,-7.382 -0.426,-16.3 0.894,-26.757 l 73.613,13.789 c -0.14,1.867 -0.332,3.765 -0.589,5.714 -0.262,1.938 -0.551,3.727 -0.844,5.356 -2.508,13.379 -7.203,23.519 -14.09,30.414 -6.883,6.902 -15.906,9.297 -27.106,7.203 z M 396.977,87.5508 c -3.895,-8.5 -10.262,-15.8281 -19.129,-22 -8.864,-6.1719 -19.703,-10.457 -32.535,-12.8672 -13.442,-2.5117 -25.668,-2.7617 -36.7,-0.7305 -11.035,2.0235 -20.683,5.9844 -28.949,11.8867 -8.269,5.9024 -15.152,13.6368 -20.629,23.2149 -5.488,9.5625 -9.402,20.6363 -11.765,33.2153 -5.082,27.168 -2.129,49.082 8.875,65.73 10.996,16.652 28.828,27.285 53.468,31.902 8.145,1.516 16.317,2.004 24.539,1.45 8.219,-0.563 15.828,-2.606 22.817,-6.114 6.98,-3.531 13.07,-8.785 18.289,-15.785 5.207,-7.004 8.879,-16.18 11.004,-27.535 0.652,-3.453 1.121,-7.137 1.437,-11.059 0.317,-3.933 0.453,-8.097 0.438,-12.515 L 281.398,126.348 c 1.672,-8.926 4.36,-16.817 8.082,-23.672 3.723,-6.8596 8.481,-12.4729 14.278,-16.8479 5.793,-4.3711 12.543,-7.3593 20.25,-8.9492 7.711,-1.6016 16.472,-1.4844 26.297,0.3555 7.976,1.4922 15.148,4.1953 21.508,8.1211 6.355,3.9179 11.269,7.9883 14.707,12.1992 l 10.457,-10.0039" /><path
         id="path20"
         
         d="m 310.605,203.289 c -6.304,-1.184 -11.699,-3.133 -16.14,-5.855 -4.438,-2.727 -7.992,-6.539 -10.652,-11.442 -2.672,-4.91 -4.364,-11.051 -5.086,-18.422 -0.723,-7.382 -0.426,-16.3 0.894,-26.757 l 73.613,13.789 c -0.14,1.867 -0.332,3.765 -0.589,5.714 -0.262,1.938 -0.551,3.727 -0.844,5.356 -2.508,13.379 -7.203,23.519 -14.09,30.414 -6.883,6.902 -15.906,9.297 -27.106,7.203 z M 396.977,87.5508 c -3.895,-8.5 -10.262,-15.8281 -19.129,-22 -8.864,-6.1719 -19.703,-10.457 -32.535,-12.8672 -13.442,-2.5117 -25.668,-2.7617 -36.7,-0.7305 -11.035,2.0235 -20.683,5.9844 -28.949,11.8867 -8.269,5.9024 -15.152,13.6368 -20.629,23.2149 -5.488,9.5625 -9.402,20.6363 -11.765,33.2153 -5.082,27.168 -2.129,49.082 8.875,65.73 10.996,16.652 28.828,27.285 53.468,31.902 8.145,1.516 16.317,2.004 24.539,1.45 8.219,-0.563 15.828,-2.606 22.817,-6.114 6.98,-3.531 13.07,-8.785 18.289,-15.785 5.207,-7.004 8.879,-16.18 11.004,-27.535 0.652,-3.453 1.121,-7.137 1.437,-11.059 0.317,-3.933 0.453,-8.097 0.438,-12.515 L 281.398,126.348 c 1.672,-8.926 4.36,-16.817 8.082,-23.672 3.723,-6.8596 8.481,-12.4729 14.278,-16.8479 5.793,-4.3711 12.543,-7.3593 20.25,-8.9492 7.711,-1.6016 16.472,-1.4844 26.297,0.3555 7.976,1.4922 15.148,4.1953 21.508,8.1211 6.355,3.9179 11.269,7.9883 14.707,12.1992 z" /><path
         id="path22"
         
         d="m 617.297,95.8477 -75.203,-9.6368 -1.973,15.3481 20.266,2.601 -9.879,77.043 c -2.082,16.156 -6.156,28.43 -12.207,36.805 -6.071,8.371 -15.664,11.715 -28.758,10.043 -5.719,-0.738 -10.875,-2.336 -15.441,-4.797 -4.579,-2.453 -8.567,-5.465 -11.95,-9.016 -3.39,-3.554 -6.207,-7.554 -8.445,-12.004 -2.23,-4.453 -3.789,-9.027 -4.644,-13.695 l 12.121,-94.5429 20.269,2.6016 1.973,-15.3477 -75.203,-9.6523 -1.981,15.3515 22.719,2.9141 -16.734,130.4497 -22.707,-2.911 -1.965,15.34 54.941,7.047 4.09,-31.922 0.312,0.047 c 3.442,10.43 9.286,19.602 17.528,27.512 8.234,7.922 18.797,12.711 31.695,14.371 9.203,1.18 17.516,1.254 24.93,0.234 7.406,-1.031 13.851,-3.789 19.308,-8.285 5.469,-4.504 10.036,-10.887 13.696,-19.148 3.648,-8.27 6.336,-19.055 8.047,-32.356 l 10.507,-81.953 22.707,2.91 1.981,-15.3513" /><path
         id="path24"
         
         d="m 617.297,95.8477 -75.203,-9.6368 -1.973,15.3481 20.266,2.601 -9.879,77.043 c -2.082,16.156 -6.156,28.43 -12.207,36.805 -6.071,8.371 -15.664,11.715 -28.758,10.043 -5.719,-0.738 -10.875,-2.336 -15.441,-4.797 -4.579,-2.453 -8.567,-5.465 -11.95,-9.016 -3.39,-3.554 -6.207,-7.554 -8.445,-12.004 -2.23,-4.453 -3.789,-9.027 -4.644,-13.695 l 12.121,-94.5429 20.269,2.6016 1.973,-15.3477 -75.203,-9.6523 -1.981,15.3515 22.719,2.9141 -16.734,130.4497 -22.707,-2.911 -1.965,15.34 54.941,7.047 4.09,-31.922 0.312,0.047 c 3.442,10.43 9.286,19.602 17.528,27.512 8.234,7.922 18.797,12.711 31.695,14.371 9.203,1.18 17.516,1.254 24.93,0.234 7.406,-1.031 13.851,-3.789 19.308,-8.285 5.469,-4.504 10.036,-10.887 13.696,-19.148 3.648,-8.27 6.336,-19.055 8.047,-32.356 l 10.507,-81.953 22.707,2.91 z" /><path
         id="path26"
         
         d="m 701.129,252.941 c -6.414,-0.445 -11.981,-1.773 -16.703,-3.961 -4.727,-2.195 -8.692,-5.578 -11.903,-10.148 -3.214,-4.57 -5.605,-10.48 -7.168,-17.723 -1.554,-7.246 -2.277,-16.136 -2.164,-26.671 l 74.696,5.253 c 0.086,1.864 0.097,3.778 0.07,5.747 -0.043,1.96 -0.109,3.753 -0.219,5.41 -0.957,13.586 -4.461,24.199 -10.511,31.832 -6.043,7.644 -14.731,11.058 -26.098,10.261 z m 72.516,-124.875 c -4.832,-7.996 -12.008,-14.55 -21.512,-19.664 -9.512,-5.117 -20.778,-8.136 -33.793,-9.0504 -13.645,-0.961 -25.836,0.1992 -36.543,3.4804 -10.723,3.277 -19.863,8.324 -27.402,15.125 -7.543,6.816 -13.481,15.285 -17.836,25.43 -4.344,10.136 -6.977,21.582 -7.875,34.347 -1.942,27.575 3.515,48.996 16.351,64.282 12.836,15.273 31.77,23.793 56.774,25.554 8.273,0.586 16.457,0.118 24.554,-1.371 8.094,-1.496 15.41,-4.402 21.946,-8.695 6.531,-4.301 12,-10.215 16.363,-17.774 4.379,-7.55 6.965,-17.089 7.781,-28.609 0.246,-3.508 0.301,-7.215 0.149,-11.156 -0.137,-3.942 -0.461,-8.098 -0.977,-12.477 l -108.34,-7.621 c 0.645,-9.062 2.41,-17.215 5.324,-24.453 2.907,-7.242 6.989,-13.363 12.239,-18.371 5.254,-5.008 11.629,-8.746 19.101,-11.215 7.469,-2.48 16.199,-3.359 26.172,-2.656 8.082,0.562 15.527,2.437 22.285,5.598 6.77,3.16 12.102,6.644 16.016,10.433 l 9.223,-11.137" /><path
         id="path28"
         
         d="m 701.129,252.941 c -6.414,-0.445 -11.981,-1.773 -16.703,-3.961 -4.727,-2.195 -8.692,-5.578 -11.903,-10.148 -3.214,-4.57 -5.605,-10.48 -7.168,-17.723 -1.554,-7.246 -2.277,-16.136 -2.164,-26.671 l 74.696,5.253 c 0.086,1.864 0.097,3.778 0.07,5.747 -0.043,1.96 -0.109,3.753 -0.219,5.41 -0.957,13.586 -4.461,24.199 -10.511,31.832 -6.043,7.644 -14.731,11.058 -26.098,10.261 z m 72.516,-124.875 c -4.832,-7.996 -12.008,-14.55 -21.512,-19.664 -9.512,-5.117 -20.778,-8.136 -33.793,-9.0504 -13.645,-0.961 -25.836,0.1992 -36.543,3.4804 -10.723,3.277 -19.863,8.324 -27.402,15.125 -7.543,6.816 -13.481,15.285 -17.836,25.43 -4.344,10.136 -6.977,21.582 -7.875,34.347 -1.942,27.575 3.515,48.996 16.351,64.282 12.836,15.273 31.77,23.793 56.774,25.554 8.273,0.586 16.457,0.118 24.554,-1.371 8.094,-1.496 15.41,-4.402 21.946,-8.695 6.531,-4.301 12,-10.215 16.363,-17.774 4.379,-7.55 6.965,-17.089 7.781,-28.609 0.246,-3.508 0.301,-7.215 0.149,-11.156 -0.137,-3.942 -0.461,-8.098 -0.977,-12.477 l -108.34,-7.621 c 0.645,-9.062 2.41,-17.215 5.324,-24.453 2.907,-7.242 6.989,-13.363 12.239,-18.371 5.254,-5.008 11.629,-8.746 19.101,-11.215 7.469,-2.48 16.199,-3.359 26.172,-2.656 8.082,0.562 15.527,2.437 22.285,5.598 6.77,3.16 12.102,6.644 16.016,10.433 z" /><path
         id="path30"
         
         d="m 867.746,126.715 c 4.949,0.082 9.359,0.937 13.27,2.558 3.879,1.602 7.3,3.633 10.25,6.055 2.953,2.426 5.48,5.094 7.609,8.027 2.117,2.918 3.871,5.743 5.27,8.442 l -0.653,36.824 c -13.402,-0.234 -24.258,-1.305 -32.594,-3.199 -8.32,-1.899 -14.828,-4.332 -19.527,-7.305 -4.699,-2.972 -7.879,-6.484 -9.566,-10.527 -1.688,-4.063 -2.481,-8.356 -2.399,-12.891 0.153,-9.277 2.758,-16.312 7.797,-21.066 5.031,-4.77 11.879,-7.07 20.543,-6.918 z m 67.926,26.871 c 0.082,-4.746 0.273,-9.543 0.562,-14.383 0.289,-4.844 0.68,-9.219 1.157,-13.133 l 20.73,0.368 0.27,-15.473 -49.45,-0.86 -3.664,29.336 -1.543,-0.027 c -0.957,-4.144 -2.796,-8.203 -5.507,-12.172 -2.715,-3.965 -6.172,-7.531 -10.336,-10.695 -4.176,-3.168 -9.141,-5.734 -14.891,-7.684 -5.742,-1.968 -12.113,-3 -19.121,-3.121 -7.024,-0.129 -13.488,0.797 -19.402,2.75 -5.914,1.957 -11.059,4.77 -15.457,8.403 -4.407,3.636 -7.836,8.058 -10.29,13.281 -2.472,5.222 -3.765,11.125 -3.875,17.726 -0.167,10.106 1.801,18.496 5.911,25.168 4.113,6.676 10.261,11.996 18.445,15.957 8.184,3.961 18.449,6.871 30.793,8.739 12.348,1.867 26.773,3.047 43.277,3.535 0.348,3.273 0.5,6.394 0.449,9.351 -0.05,2.957 -0.097,5.86 -0.152,8.723 -0.219,12.652 -2.547,22.25 -6.996,28.816 -4.457,6.555 -12.23,9.731 -23.379,9.543 -4.137,-0.074 -8.562,-0.351 -13.297,-0.843 -4.738,-0.489 -9.054,-1.778 -12.926,-3.864 l 0.485,-27.933 -27.856,-0.481 -0.589,34.336 c 7.398,4.051 16.14,7.719 26.253,10.985 10.11,3.273 22,5.027 35.692,5.265 11.82,0.196 21.332,-1.129 28.535,-3.992 7.211,-2.871 12.773,-6.691 16.699,-11.473 3.918,-4.781 6.512,-10.207 7.75,-16.261 1.246,-6.075 1.926,-12.098 2.028,-18.082 0.218,-12.993 0.175,-25.426 -0.129,-37.289 -0.309,-11.872 -0.364,-23.383 -0.176,-34.516" /><path
         id="path32"
         
         d="m 867.746,126.715 c 4.949,0.082 9.359,0.937 13.27,2.558 3.879,1.602 7.3,3.633 10.25,6.055 2.953,2.426 5.48,5.094 7.609,8.027 2.117,2.918 3.871,5.743 5.27,8.442 l -0.653,36.824 c -13.402,-0.234 -24.258,-1.305 -32.594,-3.199 -8.32,-1.899 -14.828,-4.332 -19.527,-7.305 -4.699,-2.972 -7.879,-6.484 -9.566,-10.527 -1.688,-4.063 -2.481,-8.356 -2.399,-12.891 0.153,-9.277 2.758,-16.312 7.797,-21.066 5.031,-4.77 11.879,-7.07 20.543,-6.918 z m 67.926,26.871 c 0.082,-4.746 0.273,-9.543 0.562,-14.383 0.289,-4.844 0.68,-9.219 1.157,-13.133 l 20.73,0.368 0.27,-15.473 -49.45,-0.86 -3.664,29.336 -1.543,-0.027 c -0.957,-4.144 -2.796,-8.203 -5.507,-12.172 -2.715,-3.965 -6.172,-7.531 -10.336,-10.695 -4.176,-3.168 -9.141,-5.734 -14.891,-7.684 -5.742,-1.968 -12.113,-3 -19.121,-3.121 -7.024,-0.129 -13.488,0.797 -19.402,2.75 -5.914,1.957 -11.059,4.77 -15.457,8.403 -4.407,3.636 -7.836,8.058 -10.29,13.281 -2.472,5.222 -3.765,11.125 -3.875,17.726 -0.167,10.106 1.801,18.496 5.911,25.168 4.113,6.676 10.261,11.996 18.445,15.957 8.184,3.961 18.449,6.871 30.793,8.739 12.348,1.867 26.773,3.047 43.277,3.535 0.348,3.273 0.5,6.394 0.449,9.351 -0.05,2.957 -0.097,5.86 -0.152,8.723 -0.219,12.652 -2.547,22.25 -6.996,28.816 -4.457,6.555 -12.23,9.731 -23.379,9.543 -4.137,-0.074 -8.562,-0.351 -13.297,-0.843 -4.738,-0.489 -9.054,-1.778 -12.926,-3.864 l 0.485,-27.933 -27.856,-0.481 -0.589,34.336 c 7.398,4.051 16.14,7.719 26.253,10.985 10.11,3.273 22,5.027 35.692,5.265 11.82,0.196 21.332,-1.129 28.535,-3.992 7.211,-2.871 12.773,-6.691 16.699,-11.473 3.918,-4.781 6.512,-10.207 7.75,-16.261 1.246,-6.075 1.926,-12.098 2.028,-18.082 0.218,-12.993 0.175,-25.426 -0.129,-37.289 -0.309,-11.872 -0.364,-23.383 -0.176,-34.516 z" /><path
         id="path34"
         
         d="m 1058.39,108.059 -78.261,1.972 0.387,15.473 22.894,-0.578 5.08,201.078 -26.299,0.664 0.403,15.473 58.776,-1.493 -5.48,-216.55 22.89,-0.578 -0.39,-15.461" /><path
         id="path36"
         
         d="m 1058.39,108.059 -78.261,1.972 0.387,15.473 22.894,-0.578 5.08,201.078 -26.299,0.664 0.403,15.473 58.776,-1.493 -5.48,-216.55 22.89,-0.578 z" /><path
         id="path38"
         
         d="m 1123.13,186.27 c -0.71,-9.868 -0.42,-19.098 0.83,-27.668 1.27,-8.567 3.79,-16.082 7.59,-22.563 3.8,-6.473 8.91,-11.75 15.38,-15.828 6.46,-4.066 14.54,-6.449 24.24,-7.145 12.18,-0.855 22.58,3.997 31.22,14.547 8.62,10.551 13.8,27.879 15.5,51.953 0.7,9.875 0.42,19.153 -0.83,27.829 -1.26,8.656 -3.68,16.277 -7.25,22.839 -3.59,6.563 -8.4,11.813 -14.45,15.758 -6.05,3.949 -13.61,6.246 -22.7,6.883 -13.63,0.969 -24.86,-3.816 -33.7,-14.363 -8.84,-10.543 -14.12,-27.953 -15.83,-52.242 z m -34.58,2.453 c 0.97,13.578 3.77,25.48 8.42,35.699 4.64,10.223 10.76,18.629 18.34,25.234 7.6,6.598 16.61,11.387 27.04,14.367 10.43,2.989 21.81,4.04 34.13,3.168 14.37,-1.015 26.62,-3.902 36.7,-8.656 10.08,-4.738 18.15,-11.004 24.21,-18.773 6.06,-7.774 10.31,-16.969 12.76,-27.586 2.45,-10.621 3.22,-22.313 2.32,-35.067 -0.97,-13.578 -3.72,-25.433 -8.25,-35.546 -4.53,-10.129 -10.6,-18.485 -18.2,-25.083 -7.58,-6.605 -16.59,-11.394 -27.02,-14.375 -10.43,-2.9878 -21.9,-4.0347 -34.44,-3.148 -13.96,0.9961 -25.94,3.852 -35.92,8.59 -10,4.746 -18.12,11.008 -24.37,18.789 -6.27,7.793 -10.67,16.941 -13.23,27.465 -2.56,10.519 -3.39,22.156 -2.49,34.922" /><path
         id="path40"
         
         d="m 1123.13,186.27 c -0.71,-9.868 -0.42,-19.098 0.83,-27.668 1.27,-8.567 3.79,-16.082 7.59,-22.563 3.8,-6.473 8.91,-11.75 15.38,-15.828 6.46,-4.066 14.54,-6.449 24.24,-7.145 12.18,-0.855 22.58,3.997 31.22,14.547 8.62,10.551 13.8,27.879 15.5,51.953 0.7,9.875 0.42,19.153 -0.83,27.829 -1.26,8.656 -3.68,16.277 -7.25,22.839 -3.59,6.563 -8.4,11.813 -14.45,15.758 -6.05,3.949 -13.61,6.246 -22.7,6.883 -13.63,0.969 -24.86,-3.816 -33.7,-14.363 -8.84,-10.543 -14.12,-27.953 -15.83,-52.242 z m -34.58,2.453 c 0.97,13.578 3.77,25.48 8.42,35.699 4.64,10.223 10.76,18.629 18.34,25.234 7.6,6.598 16.61,11.387 27.04,14.367 10.43,2.989 21.81,4.04 34.13,3.168 14.37,-1.015 26.62,-3.902 36.7,-8.656 10.08,-4.738 18.15,-11.004 24.21,-18.773 6.06,-7.774 10.31,-16.969 12.76,-27.586 2.45,-10.621 3.22,-22.313 2.32,-35.067 -0.97,-13.578 -3.72,-25.433 -8.25,-35.546 -4.53,-10.129 -10.6,-18.485 -18.2,-25.083 -7.58,-6.605 -16.59,-11.394 -27.02,-14.375 -10.43,-2.9878 -21.9,-4.0347 -34.44,-3.148 -13.96,0.9961 -25.94,3.852 -35.92,8.59 -10,4.746 -18.12,11.008 -24.37,18.789 -6.27,7.793 -10.67,16.941 -13.23,27.465 -2.56,10.519 -3.39,22.156 -2.49,34.922 z" /><path
         id="path42"
         
         d="m 1320.67,200.895 c -0.68,-5.332 -0.7,-10.321 -0.05,-14.985 0.64,-4.652 2.13,-8.75 4.49,-12.277 2.36,-3.528 5.77,-6.512 10.24,-8.961 4.47,-2.445 10.28,-4.129 17.45,-5.059 13.08,-1.687 22.93,0.426 29.51,6.34 6.59,5.906 10.6,14.391 12.02,25.445 0.55,4.293 0.87,7.887 0.93,10.797 0.06,2.903 -0.02,5.512 -0.25,7.832 -0.21,2.317 -0.52,4.383 -0.91,6.207 -0.39,1.801 -0.78,3.684 -1.14,5.594 -4.45,2.664 -9.29,4.688 -14.51,6.09 -5.24,1.395 -10.71,2.473 -16.43,3.211 -13.92,1.797 -23.92,0.168 -29.96,-4.879 -6.07,-5.043 -9.86,-13.5 -11.39,-25.355 z M 1390.5,55.2266 c 0.88,6.75 -0.83,12.4257 -5.12,17.039 -4.3,4.6055 -9.92,8.6563 -16.85,12.1563 -6.93,3.4922 -14.49,6.5898 -22.67,9.3203 -8.18,2.7109 -15.8,5.6641 -22.88,8.8788 -9.25,-4.0155 -15.59,-8.453 -19.04,-13.3124 -3.42,-4.8516 -5.52,-10.25 -6.28,-16.1914 -1.12,-8.5938 2.26,-16.2969 10.11,-23.1445 7.86,-6.8321 19.96,-11.3047 36.33,-13.418 8.41,-1.082 15.43,-1.3086 21.14,-0.6914 5.7,0.6172 10.38,1.8242 14.05,3.6484 3.65,1.8164 6.34,4.0781 8.04,6.7617 1.69,2.7032 2.75,5.6836 3.17,8.9532 z m 66.68,178.3004 -2.54,-19.648 -35.9,4.629 c 2.49,-3.231 4.64,-7.563 6.42,-12.996 1.81,-5.426 2.24,-11.731 1.31,-18.875 -1.95,-15.157 -9.44,-26.563 -22.5,-34.242 -13.05,-7.676 -30.74,-10.079 -53.04,-7.204 -4.1,0.528 -7.56,1.02 -10.41,1.497 -2.86,0.464 -5.87,1.328 -9.03,2.566 -1.28,-1.91 -2.85,-3.953 -4.68,-6.106 -1.84,-2.156 -2.94,-4.558 -3.29,-7.21 -0.54,-4.301 1.7,-7.872 6.75,-10.704 5.04,-2.832 11.44,-5.636 19.19,-8.398 7.76,-2.773 16.23,-5.633 25.42,-8.578 9.18,-2.949 17.6,-6.645 25.26,-11.0549 7.64,-4.4297 13.76,-9.7343 18.37,-15.9492 4.62,-6.207 6.33,-13.8164 5.17,-22.8164 -1,-7.7695 -3.86,-14.3164 -8.61,-19.6406 -4.74,-5.3164 -10.99,-9.3946 -18.74,-12.2539 -7.75,-2.8438 -16.76,-4.5352 -27.02,-5.0938 -10.28,-0.5508 -21.33,-0.0586 -33.2,1.4727 -25.57,3.2969 -44.28,9.1367 -56.09,17.5312 -11.81,8.3789 -16.94,18.5039 -15.43,30.3711 1.48,11.4649 6.51,19.7539 15.06,24.8985 8.57,5.1293 20.18,8.8323 34.82,11.1133 -5.03,2.934 -9.01,5.934 -11.94,9.019 -2.92,3.083 -4.05,7.286 -3.35,12.606 0.31,2.461 1.24,4.875 2.79,7.281 1.57,2.399 3.52,4.641 5.87,6.735 2.35,2.093 4.87,3.945 7.58,5.578 2.71,1.629 5.26,2.902 7.67,3.847 -12.64,5.168 -21.94,12.391 -27.94,21.7 -5.98,9.293 -8.22,19.781 -6.71,31.437 1.92,14.934 9.3,26.156 22.12,33.656 12.83,7.504 30.6,9.789 53.31,6.86 l 93.31,-12.028" /><path
         id="path44"
         
         d="m 1320.67,200.895 c -0.68,-5.332 -0.7,-10.321 -0.05,-14.985 0.64,-4.652 2.13,-8.75 4.49,-12.277 2.36,-3.528 5.77,-6.512 10.24,-8.961 4.47,-2.445 10.28,-4.129 17.45,-5.059 13.08,-1.687 22.93,0.426 29.51,6.34 6.59,5.906 10.6,14.391 12.02,25.445 0.55,4.293 0.87,7.887 0.93,10.797 0.06,2.903 -0.02,5.512 -0.25,7.832 -0.21,2.317 -0.52,4.383 -0.91,6.207 -0.39,1.801 -0.78,3.684 -1.14,5.594 -4.45,2.664 -9.29,4.688 -14.51,6.09 -5.24,1.395 -10.71,2.473 -16.43,3.211 -13.92,1.797 -23.92,0.168 -29.96,-4.879 -6.07,-5.043 -9.86,-13.5 -11.39,-25.355 z M 1390.5,55.2266 c 0.88,6.75 -0.83,12.4257 -5.12,17.039 -4.3,4.6055 -9.92,8.6563 -16.85,12.1563 -6.93,3.4922 -14.49,6.5898 -22.67,9.3203 -8.18,2.7109 -15.8,5.6641 -22.88,8.8788 -9.25,-4.0155 -15.59,-8.453 -19.04,-13.3124 -3.42,-4.8516 -5.52,-10.25 -6.28,-16.1914 -1.12,-8.5938 2.26,-16.2969 10.11,-23.1445 7.86,-6.8321 19.96,-11.3047 36.33,-13.418 8.41,-1.082 15.43,-1.3086 21.14,-0.6914 5.7,0.6172 10.38,1.8242 14.05,3.6484 3.65,1.8164 6.34,4.0781 8.04,6.7617 1.69,2.7032 2.75,5.6836 3.17,8.9532 z m 66.68,178.3004 -2.54,-19.648 -35.9,4.629 c 2.49,-3.231 4.64,-7.563 6.42,-12.996 1.81,-5.426 2.24,-11.731 1.31,-18.875 -1.95,-15.157 -9.44,-26.563 -22.5,-34.242 -13.05,-7.676 -30.74,-10.079 -53.04,-7.204 -4.1,0.528 -7.56,1.02 -10.41,1.497 -2.86,0.464 -5.87,1.328 -9.03,2.566 -1.28,-1.91 -2.85,-3.953 -4.68,-6.106 -1.84,-2.156 -2.94,-4.558 -3.29,-7.21 -0.54,-4.301 1.7,-7.872 6.75,-10.704 5.04,-2.832 11.44,-5.636 19.19,-8.398 7.76,-2.773 16.23,-5.633 25.42,-8.578 9.18,-2.949 17.6,-6.645 25.26,-11.0549 7.64,-4.4297 13.76,-9.7343 18.37,-15.9492 4.62,-6.207 6.33,-13.8164 5.17,-22.8164 -1,-7.7695 -3.86,-14.3164 -8.61,-19.6406 -4.74,-5.3164 -10.99,-9.3946 -18.74,-12.2539 -7.75,-2.8438 -16.76,-4.5352 -27.02,-5.0938 -10.28,-0.5508 -21.33,-0.0586 -33.2,1.4727 -25.57,3.2969 -44.28,9.1367 -56.09,17.5312 -11.81,8.3789 -16.94,18.5039 -15.43,30.3711 1.48,11.4649 6.51,19.7539 15.06,24.8985 8.57,5.1293 20.18,8.8323 34.82,11.1133 -5.03,2.934 -9.01,5.934 -11.94,9.019 -2.92,3.083 -4.05,7.286 -3.35,12.606 0.31,2.461 1.24,4.875 2.79,7.281 1.57,2.399 3.52,4.641 5.87,6.735 2.35,2.093 4.87,3.945 7.58,5.578 2.71,1.629 5.26,2.902 7.67,3.847 -12.64,5.168 -21.94,12.391 -27.94,21.7 -5.98,9.293 -8.22,19.781 -6.71,31.437 1.92,14.934 9.3,26.156 22.12,33.656 12.83,7.504 30.6,9.789 53.31,6.86 z" /><path
         id="path46"
         
         d="m 1503.15,275.781 c 1.02,5.895 3.92,10.199 8.69,12.934 4.76,2.73 10.4,3.527 16.9,2.398 6.91,-1.199 12.04,-3.871 15.4,-8.023 3.37,-4.145 4.54,-9.168 3.52,-15.059 -1.03,-5.898 -3.84,-10.226 -8.4,-12.984 -4.56,-2.777 -10.3,-3.555 -17.21,-2.344 -6.51,1.125 -11.54,3.785 -15.1,7.965 -3.56,4.187 -4.83,9.219 -3.8,15.113 z m 24.8,-220.1091 -77.12,13.4179 2.64,15.2618 22.56,-3.9375 22.57,129.5699 -22.56,3.922 2.65,15.239 54.58,-9.5 -25.21,-144.8012 22.55,-3.9297 -2.66,-15.2422" /><path
         id="path48"
         
         d="m 1503.15,275.781 c 1.02,5.895 3.92,10.199 8.69,12.934 4.76,2.73 10.4,3.527 16.9,2.398 6.91,-1.199 12.04,-3.871 15.4,-8.023 3.37,-4.145 4.54,-9.168 3.52,-15.059 -1.03,-5.898 -3.84,-10.226 -8.4,-12.984 -4.56,-2.777 -10.3,-3.555 -17.21,-2.344 -6.51,1.125 -11.54,3.785 -15.1,7.965 -3.56,4.187 -4.83,9.219 -3.8,15.113 z m 24.8,-220.1091 -77.12,13.4179 2.64,15.2618 22.56,-3.9375 22.57,129.5699 -22.56,3.922 2.65,15.239 54.58,-9.5 -25.21,-144.8012 22.55,-3.9297 z" /><path
         id="path50"
         
         d="m 1616.15,55.3945 c 4.84,-1.0547 9.34,-1.2461 13.49,-0.5742 4.17,0.668 7.97,1.8516 11.39,3.5195 3.43,1.6797 6.51,3.6954 9.25,6.0625 2.73,2.3516 5.08,4.6915 7.07,7 l 7.87,35.9767 c -13.09,2.863 -23.9,4.328 -32.45,4.418 -8.53,0.066 -15.42,-0.801 -20.67,-2.606 -5.27,-1.812 -9.18,-4.488 -11.75,-8.043 -2.58,-3.5542 -4.34,-7.5464 -5.32,-11.98 -1.98,-9.0664 -1.08,-16.5039 2.73,-22.293 3.8,-5.8047 9.93,-9.6289 18.39,-11.4805 z m 72.3,10.4649 c -1,-4.6328 -1.93,-9.3438 -2.77,-14.1172 -0.84,-4.7852 -1.48,-9.1289 -1.91,-13.0469 l 20.26,-4.4336 -3.31,-15.1133 -48.31,10.5743 3.2,29.3945 -1.51,0.332 c -1.9,-3.8125 -4.61,-7.3437 -8.17,-10.5664 -3.57,-3.2383 -7.74,-5.9062 -12.52,-8.0312 -4.8,-2.1172 -10.22,-3.4649 -16.25,-4.043 -6.05,-0.5859 -12.49,-0.1211 -19.35,1.3789 -6.85,1.5078 -12.92,3.8867 -18.22,7.1563 -5.3,3.2734 -9.68,7.1875 -13.12,11.75 -3.44,4.5468 -5.76,9.6523 -6.94,15.289 -1.2,5.6445 -1.09,11.6953 0.34,18.1524 2.14,9.8668 5.99,17.5778 11.55,23.1208 5.52,5.543 12.74,9.297 21.62,11.266 8.87,1.965 19.54,2.426 31.99,1.398 12.44,-1.039 26.75,-3.218 42.92,-6.547 1.09,3.106 1.96,6.098 2.6,8.985 0.62,2.898 1.25,5.73 1.86,8.523 2.69,12.364 2.66,22.239 -0.16,29.649 -2.81,7.406 -9.66,12.304 -20.55,14.672 -4.03,0.89 -8.41,1.644 -13.12,2.265 -4.73,0.617 -9.22,0.36 -13.48,-0.785 l -5.97,-27.281 -27.2,5.953 7.33,33.559 c 8.14,2.234 17.51,3.773 28.09,4.613 10.59,0.851 22.57,-0.188 35.94,-3.113 11.55,-2.524 20.49,-6.016 26.85,-10.469 6.35,-4.449 10.89,-9.457 13.59,-15.008 2.7,-5.559 3.97,-11.434 3.78,-17.617 -0.18,-6.199 -0.92,-12.207 -2.19,-18.047 -2.78,-12.703 -5.7,-24.789 -8.73,-36.2736 -3.05,-11.4726 -5.76,-22.6601 -8.14,-33.539" /><path
         id="path52"
         
         d="m 1616.15,55.3945 c 4.84,-1.0547 9.34,-1.2461 13.49,-0.5742 4.17,0.668 7.97,1.8516 11.39,3.5195 3.43,1.6797 6.51,3.6954 9.25,6.0625 2.73,2.3516 5.08,4.6915 7.07,7 l 7.87,35.9767 c -13.09,2.863 -23.9,4.328 -32.45,4.418 -8.53,0.066 -15.42,-0.801 -20.67,-2.606 -5.27,-1.812 -9.18,-4.488 -11.75,-8.043 -2.58,-3.5542 -4.34,-7.5464 -5.32,-11.98 -1.98,-9.0664 -1.08,-16.5039 2.73,-22.293 3.8,-5.8047 9.93,-9.6289 18.39,-11.4805 z m 72.3,10.4649 c -1,-4.6328 -1.93,-9.3438 -2.77,-14.1172 -0.84,-4.7852 -1.48,-9.1289 -1.91,-13.0469 l 20.26,-4.4336 -3.31,-15.1133 -48.31,10.5743 3.2,29.3945 -1.51,0.332 c -1.9,-3.8125 -4.61,-7.3437 -8.17,-10.5664 -3.57,-3.2383 -7.74,-5.9062 -12.52,-8.0312 -4.8,-2.1172 -10.22,-3.4649 -16.25,-4.043 -6.05,-0.5859 -12.49,-0.1211 -19.35,1.3789 -6.85,1.5078 -12.92,3.8867 -18.22,7.1563 -5.3,3.2734 -9.68,7.1875 -13.12,11.75 -3.44,4.5468 -5.76,9.6523 -6.94,15.289 -1.2,5.6445 -1.09,11.6953 0.34,18.1524 2.14,9.8668 5.99,17.5778 11.55,23.1208 5.52,5.543 12.74,9.297 21.62,11.266 8.87,1.965 19.54,2.426 31.99,1.398 12.44,-1.039 26.75,-3.218 42.92,-6.547 1.09,3.106 1.96,6.098 2.6,8.985 0.62,2.898 1.25,5.73 1.86,8.523 2.69,12.364 2.66,22.239 -0.16,29.649 -2.81,7.406 -9.66,12.304 -20.55,14.672 -4.03,0.89 -8.41,1.644 -13.12,2.265 -4.73,0.617 -9.22,0.36 -13.48,-0.785 l -5.97,-27.281 -27.2,5.953 7.33,33.559 c 8.14,2.234 17.51,3.773 28.09,4.613 10.59,0.851 22.57,-0.188 35.94,-3.113 11.55,-2.524 20.49,-6.016 26.85,-10.469 6.35,-4.449 10.89,-9.457 13.59,-15.008 2.7,-5.559 3.97,-11.434 3.78,-17.617 -0.18,-6.199 -0.92,-12.207 -2.19,-18.047 -2.78,-12.703 -5.7,-24.789 -8.73,-36.2736 -3.05,-11.4726 -5.76,-22.6601 -8.14,-33.539 z" /></g></g>
         </svg>