<?xml version="1.0" encoding="UTF-8" standalone="no"?>
<svg
   xmlns:dc="http://purl.org/dc/elements/1.1/"
   xmlns:cc="http://creativecommons.org/ns#"
   xmlns:rdf="http://www.w3.org/1999/02/22-rdf-syntax-ns#"
   xmlns:svg="http://www.w3.org/2000/svg"
   xmlns="http://www.w3.org/2000/svg"
   viewBox="0 0 202.36 43.439999"
   height="43.439999"
   width="202.36"
   xml:space="preserve"
   id="nosotros"
   version="1.1"><metadata
     id="metadata8"><rdf:RDF><cc:Work
         rdf:about=""><dc:format>image/svg+xml</dc:format><dc:type
           rdf:resource="http://purl.org/dc/dcmitype/StillImage" /></cc:Work></rdf:RDF></metadata><defs
     id="defs6" /><g
     transform="matrix(1.3333333,0,0,-1.3333333,0,43.44)"
     id="g10"><g
       transform="scale(0.1)"
       id="g12"><path
         id="path14"
         
         d="m 171.676,268.992 79.945,17.153 3.899,-18.188 -29.559,-6.359 45.742,-213.18 -21.113,-4.5313 -170.5548,150.0353 -19.6758,21.953 -1.2969,-0.289 8.6836,-24.645 33.4809,-155.9918 29.574,6.3555 3.91,-18.207 L 54.7695,5.9375 50.8594,24.1445 80.4297,30.4844 39.418,221.574 9.84766,215.234 5.9375,233.418 70.9492,247.371 217.535,118.723 240.43,94.4023 l 1.621,0.3477 -7.953,27.531 -28.938,134.86 -29.578,-6.344 -3.906,18.195" /><path
         id="path16"
         
         d="m 171.676,268.992 79.945,17.153 3.899,-18.188 -29.559,-6.359 45.742,-213.18 -21.113,-4.5313 -170.5548,150.0353 -19.6758,21.953 -1.2969,-0.289 8.6836,-24.645 33.4809,-155.9918 29.574,6.3555 3.91,-18.207 L 54.7695,5.9375 50.8594,24.1445 80.4297,30.4844 39.418,221.574 9.84766,215.234 5.9375,233.418 70.9492,247.371 217.535,118.723 240.43,94.4023 l 1.621,0.3477 -7.953,27.531 -28.938,134.86 -29.578,-6.344 z" /><path
         id="path18"
         
         d="m 346.91,152.512 c 1.477,-10.528 3.82,-20.168 7.063,-28.883 3.234,-8.734 7.57,-16.059 13.004,-22.024 5.437,-5.9527 11.988,-10.3511 19.691,-13.1831 7.691,-2.8516 16.715,-3.5469 27.059,-2.0977 12.996,1.8086 22.836,9.2188 29.554,22.2498 6.703,13.02 8.278,32.36 4.692,58.028 -1.465,10.554 -3.832,20.23 -7.086,29.05 -3.246,8.828 -7.489,16.297 -12.707,22.391 -5.242,6.102 -11.473,10.543 -18.711,13.34 -7.231,2.785 -15.688,3.508 -25.387,2.148 -14.535,-2.011 -25.254,-9.554 -32.195,-22.597 -6.934,-13.063 -8.59,-32.543 -4.977,-58.422 z m -36.863,-5.149 c -2.024,14.481 -1.734,27.61 0.855,39.383 2.61,11.766 7.153,21.977 13.664,30.598 6.497,8.621 14.887,15.679 25.18,21.144 10.301,5.453 22.02,9.098 35.156,10.942 15.328,2.136 28.832,1.836 40.493,-0.899 11.648,-2.73 21.535,-7.511 29.628,-14.324 8.098,-6.805 14.614,-15.523 19.555,-26.117 4.949,-10.625 8.36,-22.731 10.262,-36.324 2.031,-14.493 1.777,-27.571 -0.719,-39.203 -2.504,-11.653 -7.023,-21.79 -13.512,-30.418 -6.5,-8.6255 -14.894,-15.6645 -25.183,-21.1294 -10.305,-5.4648 -22.113,-9.1328 -35.488,-10.9883 -14.891,-2.0898 -28.114,-1.746 -39.665,1 -11.554,2.754 -21.484,7.5118 -29.8,14.3047 -8.313,6.7735 -15,15.406 -20.02,25.902 -5.051,10.465 -8.504,22.52 -10.406,36.129" /><path
         id="path20"
         
         d="m 346.91,152.512 c 1.477,-10.528 3.82,-20.168 7.063,-28.883 3.234,-8.734 7.57,-16.059 13.004,-22.024 5.437,-5.9527 11.988,-10.3511 19.691,-13.1831 7.691,-2.8516 16.715,-3.5469 27.059,-2.0977 12.996,1.8086 22.836,9.2188 29.554,22.2498 6.703,13.02 8.278,32.36 4.692,58.028 -1.465,10.554 -3.832,20.23 -7.086,29.05 -3.246,8.828 -7.489,16.297 -12.707,22.391 -5.242,6.102 -11.473,10.543 -18.711,13.34 -7.231,2.785 -15.688,3.508 -25.387,2.148 -14.535,-2.011 -25.254,-9.554 -32.195,-22.597 -6.934,-13.063 -8.59,-32.543 -4.977,-58.422 z m -36.863,-5.149 c -2.024,14.481 -1.734,27.61 0.855,39.383 2.61,11.766 7.153,21.977 13.664,30.598 6.497,8.621 14.887,15.679 25.18,21.144 10.301,5.453 22.02,9.098 35.156,10.942 15.328,2.136 28.832,1.836 40.493,-0.899 11.648,-2.73 21.535,-7.511 29.628,-14.324 8.098,-6.805 14.614,-15.523 19.555,-26.117 4.949,-10.625 8.36,-22.731 10.262,-36.324 2.031,-14.493 1.777,-27.571 -0.719,-39.203 -2.504,-11.653 -7.023,-21.79 -13.512,-30.418 -6.5,-8.6255 -14.894,-15.6645 -25.183,-21.1294 -10.305,-5.4648 -22.113,-9.1328 -35.488,-10.9883 -14.891,-2.0898 -28.114,-1.746 -39.665,1 -11.554,2.754 -21.484,7.5118 -29.8,14.3047 -8.313,6.7735 -15,15.406 -20.02,25.902 -5.051,10.465 -8.504,22.52 -10.406,36.129 z" /><path
         id="path22"
         
         d="m 615.793,135.652 c -0.496,5.895 -3.145,10.903 -7.938,15.008 -4.792,4.102 -10.656,7.781 -17.601,11.043 -6.945,3.277 -14.445,6.516 -22.492,9.719 -8.067,3.215 -15.598,7.027 -22.645,11.433 -7.047,4.418 -13.051,9.805 -18.035,16.168 -4.98,6.364 -7.871,14.293 -8.672,23.793 -0.543,6.399 0.524,12.336 3.195,17.778 2.676,5.441 6.473,10.258 11.364,14.465 4.906,4.191 10.82,7.632 17.758,10.336 6.925,2.699 14.39,4.382 22.398,5.043 6.652,0.57 12.555,0.839 17.707,0.824 5.148,-0.016 9.859,-0.223 14.141,-0.649 4.293,-0.406 8.355,-1.015 12.234,-1.804 3.871,-0.782 7.856,-1.664 11.973,-2.664 l 3.754,-44.707 -21.196,-1.774 -2.156,25.668 -6.91,6.617 c -2.918,0.422 -6.047,0.696 -9.399,0.848 -3.355,0.16 -6.906,0.082 -10.648,-0.238 -10.605,-0.887 -18.336,-3.567 -23.176,-8.043 -4.863,-4.481 -7.023,-9.762 -6.515,-15.871 0.5,-5.895 3.132,-10.832 7.925,-14.829 4.778,-3.988 10.649,-7.617 17.602,-10.875 6.937,-3.265 14.43,-6.453 22.473,-9.543 8.05,-3.109 15.578,-6.761 22.605,-10.949 7.012,-4.191 12.988,-9.195 17.941,-14.996 4.926,-5.816 7.758,-13.031 8.477,-21.629 0.668,-7.957 -0.566,-15.187 -3.707,-21.672 -3.141,-6.484 -7.707,-12.144 -13.656,-16.988 -5.981,-4.84 -13.133,-8.7734 -21.485,-11.8085 -8.351,-3.0469 -17.296,-4.961 -26.843,-5.7696 -10.664,-0.8867 -21.145,-0.3789 -31.485,1.5313 -10.336,1.9062 -18.539,4.5078 -24.625,7.7656 l -3.644,43.3872 21.199,1.785 2.078,-24.739 7.195,-6.285 c 3.051,-1.937 6.625,-3.375 10.715,-4.367 4.074,-0.953 9.321,-1.176 15.727,-0.625 10.59,0.887 19.133,3.801 25.617,8.742 6.48,4.942 9.395,11.235 8.75,18.871" /><path
         id="path24"
         
         d="m 615.793,135.652 c -0.496,5.895 -3.145,10.903 -7.938,15.008 -4.792,4.102 -10.656,7.781 -17.601,11.043 -6.945,3.277 -14.445,6.516 -22.492,9.719 -8.067,3.215 -15.598,7.027 -22.645,11.433 -7.047,4.418 -13.051,9.805 -18.035,16.168 -4.98,6.364 -7.871,14.293 -8.672,23.793 -0.543,6.399 0.524,12.336 3.195,17.778 2.676,5.441 6.473,10.258 11.364,14.465 4.906,4.191 10.82,7.632 17.758,10.336 6.925,2.699 14.39,4.382 22.398,5.043 6.652,0.57 12.555,0.839 17.707,0.824 5.148,-0.016 9.859,-0.223 14.141,-0.649 4.293,-0.406 8.355,-1.015 12.234,-1.804 3.871,-0.782 7.856,-1.664 11.973,-2.664 l 3.754,-44.707 -21.196,-1.774 -2.156,25.668 -6.91,6.617 c -2.918,0.422 -6.047,0.696 -9.399,0.848 -3.355,0.16 -6.906,0.082 -10.648,-0.238 -10.605,-0.887 -18.336,-3.567 -23.176,-8.043 -4.863,-4.481 -7.023,-9.762 -6.515,-15.871 0.5,-5.895 3.132,-10.832 7.925,-14.829 4.778,-3.988 10.649,-7.617 17.602,-10.875 6.937,-3.265 14.43,-6.453 22.473,-9.543 8.05,-3.109 15.578,-6.761 22.605,-10.949 7.012,-4.191 12.988,-9.195 17.941,-14.996 4.926,-5.816 7.758,-13.031 8.477,-21.629 0.668,-7.957 -0.566,-15.187 -3.707,-21.672 -3.141,-6.484 -7.707,-12.144 -13.656,-16.988 -5.981,-4.84 -13.133,-8.7734 -21.485,-11.8085 -8.351,-3.0469 -17.296,-4.961 -26.843,-5.7696 -10.664,-0.8867 -21.145,-0.3789 -31.485,1.5313 -10.336,1.9062 -18.539,4.5078 -24.625,7.7656 l -3.644,43.3872 21.199,1.785 2.078,-24.739 7.195,-6.285 c 3.051,-1.937 6.625,-3.375 10.715,-4.367 4.074,-0.953 9.321,-1.176 15.727,-0.625 10.59,0.887 19.133,3.801 25.617,8.742 6.48,4.942 9.395,11.235 8.75,18.871 z" /><path
         id="path26"
         
         d="m 716.621,189.074 c 0.309,-10.629 1.586,-20.457 3.84,-29.496 2.25,-9.027 5.758,-16.793 10.508,-23.305 4.73,-6.511 10.769,-11.613 18.101,-15.277 7.336,-3.687 16.227,-5.367 26.676,-5.074 13.098,0.375 23.719,6.66 31.813,18.855 8.113,12.2 11.8,31.27 11.07,57.18 -0.309,10.629 -1.582,20.508 -3.844,29.645 -2.262,9.136 -5.652,17.011 -10.172,23.648 -4.519,6.637 -10.234,11.738 -17.129,15.313 -6.882,3.582 -15.207,5.234 -24.992,4.949 -14.652,-0.403 -26.156,-6.731 -34.476,-18.934 -8.332,-12.203 -12.129,-31.375 -11.395,-57.504 z m -37.211,-1.062 c -0.41,14.613 1.317,27.636 5.203,39.058 3.867,11.414 9.535,21.047 16.95,28.903 7.402,7.859 16.523,13.933 27.359,18.23 10.828,4.305 22.867,6.625 36.141,7.012 15.476,0.43 28.863,-1.344 40.148,-5.352 11.277,-4.004 20.578,-9.836 27.867,-17.492 7.297,-7.668 12.82,-17.051 16.57,-28.137 3.731,-11.093 5.801,-23.5 6.188,-37.226 0.418,-14.625 -1.258,-27.586 -5.039,-38.887 -3.785,-11.289 -9.375,-20.875 -16.777,-28.734 -7.418,-7.856 -16.524,-13.934 -27.36,-18.231 -10.836,-4.297 -22.984,-6.64 -36.484,-7.019 -15.031,-0.4143 -28.133,1.367 -39.313,5.375 -11.179,4.008 -20.523,9.84 -28.043,17.492 -7.511,7.66 -13.195,16.965 -17.054,27.953 -3.836,10.969 -5.961,23.32 -6.356,37.055" /><path
         id="path28"
         
         d="m 716.621,189.074 c 0.309,-10.629 1.586,-20.457 3.84,-29.496 2.25,-9.027 5.758,-16.793 10.508,-23.305 4.73,-6.511 10.769,-11.613 18.101,-15.277 7.336,-3.687 16.227,-5.367 26.676,-5.074 13.098,0.375 23.719,6.66 31.813,18.855 8.113,12.2 11.8,31.27 11.07,57.18 -0.309,10.629 -1.582,20.508 -3.844,29.645 -2.262,9.136 -5.652,17.011 -10.172,23.648 -4.519,6.637 -10.234,11.738 -17.129,15.313 -6.882,3.582 -15.207,5.234 -24.992,4.949 -14.652,-0.403 -26.156,-6.731 -34.476,-18.934 -8.332,-12.203 -12.129,-31.375 -11.395,-57.504 z m -37.211,-1.062 c -0.41,14.613 1.317,27.636 5.203,39.058 3.867,11.414 9.535,21.047 16.95,28.903 7.402,7.859 16.523,13.933 27.359,18.23 10.828,4.305 22.867,6.625 36.141,7.012 15.476,0.43 28.863,-1.344 40.148,-5.352 11.277,-4.004 20.578,-9.836 27.867,-17.492 7.297,-7.668 12.82,-17.051 16.57,-28.137 3.731,-11.093 5.801,-23.5 6.188,-37.226 0.418,-14.625 -1.258,-27.586 -5.039,-38.887 -3.785,-11.289 -9.375,-20.875 -16.777,-28.734 -7.418,-7.856 -16.524,-13.934 -27.36,-18.231 -10.836,-4.297 -22.984,-6.64 -36.484,-7.019 -15.031,-0.4143 -28.133,1.367 -39.313,5.375 -11.179,4.008 -20.523,9.84 -28.043,17.492 -7.511,7.66 -13.195,16.965 -17.054,27.953 -3.836,10.969 -5.961,23.32 -6.356,37.055 z" /><path
         id="path30"
         
         d="m 880.605,279.824 29.567,-0.707 0.992,41.539 34.902,-0.84 -0.996,-41.531 55.16,-1.316 -0.511,-21.262 -55.153,1.305 -2.328,-97.024 c -0.324,-13.953 1.207,-23.847 4.617,-29.703 3.407,-5.844 9.098,-8.855 17.063,-9.047 6.867,-0.164 12.82,0.907 17.871,3.242 5.047,2.297 9.695,4.856 13.981,7.637 l 8,-13.164 c -2.05,-1.937 -4.805,-4.039 -8.293,-6.273 -3.5,-2.246 -7.485,-4.325 -11.961,-6.207 -4.477,-1.887 -9.442,-3.434 -14.907,-4.633 -5.453,-1.199 -11.062,-1.727 -16.82,-1.59 -14.844,0.359 -26.117,4.445 -33.785,12.273 -7.684,7.829 -11.316,20.61 -10.899,38.332 l 2.563,106.989 -29.574,0.719 0.511,21.261" /><path
         id="path32"
         
         d="m 880.605,279.824 29.567,-0.707 0.992,41.539 34.902,-0.84 -0.996,-41.531 55.16,-1.316 -0.511,-21.262 -55.153,1.305 -2.328,-97.024 c -0.324,-13.953 1.207,-23.847 4.617,-29.703 3.407,-5.844 9.098,-8.855 17.063,-9.047 6.867,-0.164 12.82,0.907 17.871,3.242 5.047,2.297 9.695,4.856 13.981,7.637 l 8,-13.164 c -2.05,-1.937 -4.805,-4.039 -8.293,-6.273 -3.5,-2.246 -7.485,-4.325 -11.961,-6.207 -4.477,-1.887 -9.442,-3.434 -14.907,-4.633 -5.453,-1.199 -11.062,-1.727 -16.82,-1.59 -14.844,0.359 -26.117,4.445 -33.785,12.273 -7.684,7.829 -11.316,20.61 -10.899,38.332 l 2.563,106.989 -29.574,0.719 z" /><path
         id="path34"
         
         d="m 1110.91,240.332 c -5.28,-2.309 -9.68,-5.133 -13.23,-8.449 -3.54,-3.309 -7.43,-8.156 -11.63,-14.539 l -6.89,-103.137 28.84,-1.93 -1.11,-16.5817 -88.22,5.8947 1.12,16.59 24.54,-1.645 9.42,140.945 -24.53,1.645 1.11,16.582 59.35,-3.977 -2.24,-33.492 1.34,-0.082 c 4.23,7.047 9.08,13.098 14.53,18.168 5.45,5.082 11.51,9.508 18.21,13.274 l 31.84,-2.114 -1.99,-29.851 -40.46,2.699" /><path
         id="path36"
         
         d="m 1110.91,240.332 c -5.28,-2.309 -9.68,-5.133 -13.23,-8.449 -3.54,-3.309 -7.43,-8.156 -11.63,-14.539 l -6.89,-103.137 28.84,-1.93 -1.11,-16.5817 -88.22,5.8947 1.12,16.59 24.54,-1.645 9.42,140.945 -24.53,1.645 1.11,16.582 59.35,-3.977 -2.24,-33.492 1.34,-0.082 c 4.23,7.047 9.08,13.098 14.53,18.168 5.45,5.082 11.51,9.508 18.21,13.274 l 31.84,-2.114 -1.99,-29.851 z" /><path
         id="path38"
         
         d="m 1210.16,174.07 c -1.28,-10.558 -1.47,-20.472 -0.56,-29.726 0.88,-9.27 3.2,-17.481 6.93,-24.625 3.72,-7.129 8.93,-13.067 15.64,-17.781 6.7,-4.7153 15.25,-7.7036 25.62,-8.9575 13.03,-1.5742 24.44,3.0703 34.27,13.9455 9.82,10.859 16.29,29.164 19.4,54.898 1.28,10.563 1.48,20.516 0.59,29.895 -0.89,9.367 -3.07,17.672 -6.57,24.898 -3.49,7.219 -8.38,13.117 -14.66,17.668 -6.28,4.551 -14.27,7.418 -23.98,8.594 -14.57,1.769 -26.87,-2.785 -36.91,-13.625 -10.04,-10.832 -16.64,-29.231 -19.77,-55.184 z m -36.96,4.465 c 1.75,14.508 5.4,27.137 10.92,37.856 5.53,10.707 12.54,19.406 21.04,26.086 8.48,6.664 18.4,11.324 29.75,13.968 11.36,2.645 23.62,3.176 36.79,1.578 15.36,-1.855 28.34,-5.601 38.9,-11.23 10.57,-5.629 18.9,-12.773 24.98,-21.438 6.08,-8.64 10.16,-18.742 12.22,-30.265 2.06,-11.52 2.27,-24.098 0.62,-37.742 -1.76,-14.512 -5.34,-27.078 -10.75,-37.692 -5.39,-10.633 -12.35,-19.273 -20.85,-25.9451 -8.48,-6.6718 -18.4,-11.3359 -29.74,-13.9687 -11.36,-2.6602 -23.72,-3.1797 -37.12,-1.5508 -14.93,1.7969 -27.62,5.5195 -38.09,11.125 -10.46,5.6094 -18.85,12.7736 -25.14,21.4606 -6.3,8.684 -10.55,18.731 -12.73,30.168 -2.19,11.418 -2.45,23.946 -0.8,37.59" /><path
         id="path40"
         
         d="m 1210.16,174.07 c -1.28,-10.558 -1.47,-20.472 -0.56,-29.726 0.88,-9.27 3.2,-17.481 6.93,-24.625 3.72,-7.129 8.93,-13.067 15.64,-17.781 6.7,-4.7153 15.25,-7.7036 25.62,-8.9575 13.03,-1.5742 24.44,3.0703 34.27,13.9455 9.82,10.859 16.29,29.164 19.4,54.898 1.28,10.563 1.48,20.516 0.59,29.895 -0.89,9.367 -3.07,17.672 -6.57,24.898 -3.49,7.219 -8.38,13.117 -14.66,17.668 -6.28,4.551 -14.27,7.418 -23.98,8.594 -14.57,1.769 -26.87,-2.785 -36.91,-13.625 -10.04,-10.832 -16.64,-29.231 -19.77,-55.184 z m -36.96,4.465 c 1.75,14.508 5.4,27.137 10.92,37.856 5.53,10.707 12.54,19.406 21.04,26.086 8.48,6.664 18.4,11.324 29.75,13.968 11.36,2.645 23.62,3.176 36.79,1.578 15.36,-1.855 28.34,-5.601 38.9,-11.23 10.57,-5.629 18.9,-12.773 24.98,-21.438 6.08,-8.64 10.16,-18.742 12.22,-30.265 2.06,-11.52 2.27,-24.098 0.62,-37.742 -1.76,-14.512 -5.34,-27.078 -10.75,-37.692 -5.39,-10.633 -12.35,-19.273 -20.85,-25.9451 -8.48,-6.6718 -18.4,-11.3359 -29.74,-13.9687 -11.36,-2.6602 -23.72,-3.1797 -37.12,-1.5508 -14.93,1.7969 -27.62,5.5195 -38.09,11.125 -10.46,5.6094 -18.85,12.7736 -25.14,21.4606 -6.3,8.684 -10.55,18.731 -12.73,30.168 -2.19,11.418 -2.45,23.946 -0.8,37.59 z" /><path
         id="path42"
         
         d="m 1465.64,88.8086 c 1.05,5.8125 -0.23,11.3324 -3.79,16.5274 -3.58,5.199 -8.31,10.273 -14.17,15.223 -5.87,4.937 -12.29,10.007 -19.23,15.175 -6.96,5.18 -13.27,10.817 -18.95,16.895 -5.65,6.078 -10.08,12.824 -13.25,20.262 -3.18,7.429 -3.93,15.843 -2.25,25.222 1.12,6.321 3.69,11.774 7.66,16.344 4,4.582 8.91,8.258 14.72,11.047 5.82,2.797 12.42,4.598 19.81,5.414 7.4,0.812 15.04,0.52 22.95,-0.891 6.57,-1.168 12.35,-2.437 17.31,-3.75 4.97,-1.351 9.47,-2.777 13.51,-4.289 4.02,-1.496 7.82,-3.136 11.34,-4.883 3.54,-1.769 7.16,-3.64 10.88,-5.66 l -7.88,-44.175 -20.94,3.746 4.53,25.367 -4.96,8.176 c -2.72,1.14 -5.68,2.226 -8.87,3.242 -3.2,1.004 -6.66,1.844 -10.36,2.504 -10.47,1.871 -18.62,1.265 -24.47,-1.801 -5.83,-3.074 -9.28,-7.629 -10.36,-13.66 -1.03,-5.809 0.24,-11.266 3.83,-16.364 3.59,-5.082 8.33,-10.105 14.19,-15.039 5.88,-4.941 12.29,-9.953 19.28,-15.023 6.96,-5.074 13.3,-10.539 19.01,-16.398 5.7,-5.852 10.2,-12.227 13.47,-19.11 3.26,-6.887 4.16,-14.5858 2.63,-23.0936 -1.41,-7.8555 -4.46,-14.5156 -9.17,-19.9648 -4.71,-5.4766 -10.56,-9.7539 -17.57,-12.9024 -7.01,-3.1445 -14.95,-5.1015 -23.81,-5.8906 -8.85,-0.7617 -17.98,-0.3281 -27.41,1.3516 -10.53,1.8906 -20.54,5.0781 -30.03,9.5859 -9.49,4.5039 -16.75,9.1289 -21.8,13.8594 l 7.66,42.8595 20.93,-3.738 -4.36,-24.4418 5.34,-7.9375 c 2.45,-2.6485 5.53,-4.9688 9.23,-6.9571 3.69,-1.9922 8.69,-3.539 15.03,-4.6758 10.47,-1.871 19.47,-1.2539 27,1.8555 7.54,3.1094 11.97,8.4336 13.32,15.9883" /><path
         id="path44"
         
         d="m 1465.64,88.8086 c 1.05,5.8125 -0.23,11.3324 -3.79,16.5274 -3.58,5.199 -8.31,10.273 -14.17,15.223 -5.87,4.937 -12.29,10.007 -19.23,15.175 -6.96,5.18 -13.27,10.817 -18.95,16.895 -5.65,6.078 -10.08,12.824 -13.25,20.262 -3.18,7.429 -3.93,15.843 -2.25,25.222 1.12,6.321 3.69,11.774 7.66,16.344 4,4.582 8.91,8.258 14.72,11.047 5.82,2.797 12.42,4.598 19.81,5.414 7.4,0.812 15.04,0.52 22.95,-0.891 6.57,-1.168 12.35,-2.437 17.31,-3.75 4.97,-1.351 9.47,-2.777 13.51,-4.289 4.02,-1.496 7.82,-3.136 11.34,-4.883 3.54,-1.769 7.16,-3.64 10.88,-5.66 l -7.88,-44.175 -20.94,3.746 4.53,25.367 -4.96,8.176 c -2.72,1.14 -5.68,2.226 -8.87,3.242 -3.2,1.004 -6.66,1.844 -10.36,2.504 -10.47,1.871 -18.62,1.265 -24.47,-1.801 -5.83,-3.074 -9.28,-7.629 -10.36,-13.66 -1.03,-5.809 0.24,-11.266 3.83,-16.364 3.59,-5.082 8.33,-10.105 14.19,-15.039 5.88,-4.941 12.29,-9.953 19.28,-15.023 6.96,-5.074 13.3,-10.539 19.01,-16.398 5.7,-5.852 10.2,-12.227 13.47,-19.11 3.26,-6.887 4.16,-14.5858 2.63,-23.0936 -1.41,-7.8555 -4.46,-14.5156 -9.17,-19.9648 -4.71,-5.4766 -10.56,-9.7539 -17.57,-12.9024 -7.01,-3.1445 -14.95,-5.1015 -23.81,-5.8906 -8.85,-0.7617 -17.98,-0.3281 -27.41,1.3516 -10.53,1.8906 -20.54,5.0781 -30.03,9.5859 -9.49,4.5039 -16.75,9.1289 -21.8,13.8594 l 7.66,42.8595 20.93,-3.738 -4.36,-24.4418 5.34,-7.9375 c 2.45,-2.6485 5.53,-4.9688 9.23,-6.9571 3.69,-1.9922 8.69,-3.539 15.03,-4.6758 10.47,-1.871 19.47,-1.2539 27,1.8555 7.54,3.1094 11.97,8.4336 13.32,15.9883 z" /></g></g>
         
         </svg>