<?xml version="1.0" encoding="UTF-8" standalone="no"?>
<svg
   xmlns:dc="http://purl.org/dc/elements/1.1/"
   xmlns:cc="http://creativecommons.org/ns#"
   xmlns:rdf="http://www.w3.org/1999/02/22-rdf-syntax-ns#"
   xmlns:svg="http://www.w3.org/2000/svg"
   xmlns="http://www.w3.org/2000/svg"
   viewBox="0 0 234.30667 55.666668"
   height="55.666668"
   width="234.30667"
   xml:space="preserve"
   id="svg2"
   version="1.1"><metadata
     id="metadata8"><rdf:RDF><cc:Work
         rdf:about=""><dc:format>image/svg+xml</dc:format><dc:type
           rdf:resource="http://purl.org/dc/dcmitype/StillImage" /></cc:Work></rdf:RDF></metadata><defs
     id="defs6" /><g
     transform="matrix(1.3333333,0,0,-1.3333333,0,55.666667)"
     id="g10"><g
       transform="scale(0.1)"
       id="g12"><path
         id="path14"
         
         d="m 99.0977,271.66 c 1.0003,-0.699 2.6793,-1.375 5.0003,-2.023 2.312,-0.633 4.804,-1.375 7.437,-2.207 2.633,-0.836 5.227,-1.532 7.801,-2.117 2.559,-0.579 4.519,-1.028 5.859,-1.344 8.715,-1.969 17.18,-2.778 25.368,-2.387 8.199,0.371 15.707,2.121 22.539,5.285 6.824,3.133 12.722,7.91 17.699,14.309 4.984,6.379 8.605,14.617 10.883,24.679 4.16,18.333 1.48,33.161 -8.055,44.497 -9.535,11.312 -24.25,19.25 -44.149,23.753 -6.031,1.368 -11.101,2.36 -15.203,2.915 -4.093,0.582 -7.797,0.898 -11.074,0.937 z m -44.1133,121.063 4.2578,18.785 34.8789,-7.914 c 10.0629,-2.281 21.0589,-4.305 32.9879,-6.071 11.95,-1.777 23.383,-3.894 34.356,-6.39 12.293,-2.781 24.086,-6.684 35.414,-11.731 11.309,-5.039 20.914,-11.386 28.805,-19.05 7.902,-7.68 13.644,-16.801 17.254,-27.372 3.585,-10.562 3.808,-22.777 0.675,-36.636 -3.004,-13.192 -8.48,-23.883 -16.453,-32.051 -7.965,-8.191 -17.383,-14.227 -28.242,-18.102 -10.879,-3.882 -22.848,-5.863 -35.906,-5.957 -13.082,-0.086 -26.199,1.364 -39.391,4.368 -1.336,0.293 -3.355,0.75 -6.039,1.355 -2.676,0.613 -5.516,1.301 -8.508,2.117 -3,0.789 -5.804,1.598 -8.441,2.43 -2.6369,0.832 -4.59,1.527 -5.883,2.043 l -16.4258,-72.434 33.5278,-7.605 -4.266,-18.77 -101.60162,23.051 4.26952,18.77 30.5234,-6.914 44.7227,197.156 -30.5156,6.922" /><path
         id="path16"
         
         d="m 99.0977,271.66 c 1.0003,-0.699 2.6793,-1.375 5.0003,-2.023 2.312,-0.633 4.804,-1.375 7.437,-2.207 2.633,-0.836 5.227,-1.532 7.801,-2.117 2.559,-0.579 4.519,-1.028 5.859,-1.344 8.715,-1.969 17.18,-2.778 25.368,-2.387 8.199,0.371 15.707,2.121 22.539,5.285 6.824,3.133 12.722,7.91 17.699,14.309 4.984,6.379 8.605,14.617 10.883,24.679 4.16,18.333 1.48,33.161 -8.055,44.497 -9.535,11.312 -24.25,19.25 -44.149,23.753 -6.031,1.368 -11.101,2.36 -15.203,2.915 -4.093,0.582 -7.797,0.898 -11.074,0.937 z m -44.1133,121.063 4.2578,18.785 34.8789,-7.914 c 10.0629,-2.281 21.0589,-4.305 32.9879,-6.071 11.95,-1.777 23.383,-3.894 34.356,-6.39 12.293,-2.781 24.086,-6.684 35.414,-11.731 11.309,-5.039 20.914,-11.386 28.805,-19.05 7.902,-7.68 13.644,-16.801 17.254,-27.372 3.585,-10.562 3.808,-22.777 0.675,-36.636 -3.004,-13.192 -8.48,-23.883 -16.453,-32.051 -7.965,-8.191 -17.383,-14.227 -28.242,-18.102 -10.879,-3.882 -22.848,-5.863 -35.906,-5.957 -13.082,-0.086 -26.199,1.364 -39.391,4.368 -1.336,0.293 -3.355,0.75 -6.039,1.355 -2.676,0.613 -5.516,1.301 -8.508,2.117 -3,0.789 -5.804,1.598 -8.441,2.43 -2.6369,0.832 -4.59,1.527 -5.883,2.043 l -16.4258,-72.434 33.5278,-7.605 -4.266,-18.77 -101.60162,23.051 4.26952,18.77 30.5234,-6.914 L 85.5,385.801 Z" /><path
         id="path18"
         
         d="m 348.422,259.441 c -5.66,-1.851 -10.484,-4.3 -14.473,-7.355 -3.996,-3.043 -8.48,-7.652 -13.465,-13.789 l -17.593,-105.473 29.511,-4.926 -2.828,-16.953 -90.215,15.047 2.836,16.961 25.09,-4.191 24.051,144.14 -25.102,4.184 2.829,16.953 60.703,-10.121 -5.7,-34.25 1.344,-0.238 c 5.086,6.832 10.684,12.574 16.82,17.254 6.122,4.671 12.829,8.605 20.098,11.796 l 32.555,-5.425 -5.09,-30.528 -41.371,6.914" /><path
         id="path20"
         
         d="m 348.422,259.441 c -5.66,-1.851 -10.484,-4.3 -14.473,-7.355 -3.996,-3.043 -8.48,-7.652 -13.465,-13.789 l -17.593,-105.473 29.511,-4.926 -2.828,-16.953 -90.215,15.047 2.836,16.961 25.09,-4.191 24.051,144.14 -25.102,4.184 2.829,16.953 60.703,-10.121 -5.7,-34.25 1.344,-0.238 c 5.086,6.832 10.684,12.574 16.82,17.254 6.122,4.671 12.829,8.605 20.098,11.796 l 32.555,-5.425 -5.09,-30.528 z" /><path
         id="path22"
         
         d="m 501.734,257.105 c -7.089,0.801 -13.453,0.489 -19.043,-0.953 -5.601,-1.445 -10.636,-4.336 -15.058,-8.683 -4.434,-4.332 -8.246,-10.309 -11.406,-17.906 -3.188,-7.594 -5.778,-17.161 -7.782,-28.704 l 82.692,-9.379 c 0.453,2.028 0.859,4.114 1.218,6.266 0.364,2.152 0.645,4.129 0.856,5.957 1.695,15.043 0.016,27.348 -5.035,36.914 -5.051,9.567 -13.86,15.067 -26.442,16.488 z m 53.969,-151.113 c -6.894,-7.7381 -16.062,-13.4529 -27.484,-17.1287 -11.434,-3.6563 -24.332,-4.668 -38.75,-3.043 -15.106,1.711 -28.18,5.4453 -39.231,11.1953 -11.047,5.7504 -20.004,13.1094 -26.871,22.0784 -6.855,8.953 -11.644,19.426 -14.336,31.371 -2.703,11.957 -3.246,24.996 -1.656,39.125 3.465,30.523 13.738,52.828 30.879,66.926 17.113,14.082 39.504,19.578 67.191,16.441 9.145,-1.039 17.989,-3.203 26.547,-6.484 8.547,-3.266 15.949,-7.918 22.223,-13.934 6.262,-6.016 11.019,-13.586 14.277,-22.726 3.242,-9.129 4.16,-20.083 2.703,-32.821 -0.433,-3.883 -1.132,-7.949 -2.082,-12.222 -0.937,-4.29 -2.144,-8.77 -3.609,-13.434 l -119.887,13.578 c -1.152,-10.031 -0.851,-19.289 0.848,-27.789 1.719,-8.488 4.937,-16.004 9.672,-22.531 4.726,-6.539 10.929,-11.93 18.597,-16.129 7.661,-4.211 17.016,-6.945 28.043,-8.203 8.953,-1.008 17.461,-0.465 25.493,1.609 8.027,2.098 14.562,4.809 19.593,8.176 l 7.84,-14.055" /><path
         id="path24"
         
         d="m 501.734,257.105 c -7.089,0.801 -13.453,0.489 -19.043,-0.953 -5.601,-1.445 -10.636,-4.336 -15.058,-8.683 -4.434,-4.332 -8.246,-10.309 -11.406,-17.906 -3.188,-7.594 -5.778,-17.161 -7.782,-28.704 l 82.692,-9.379 c 0.453,2.028 0.859,4.114 1.218,6.266 0.364,2.152 0.645,4.129 0.856,5.957 1.695,15.043 0.016,27.348 -5.035,36.914 -5.051,9.567 -13.86,15.067 -26.442,16.488 z m 53.969,-151.113 c -6.894,-7.7381 -16.062,-13.4529 -27.484,-17.1287 -11.434,-3.6563 -24.332,-4.668 -38.75,-3.043 -15.106,1.711 -28.18,5.4453 -39.231,11.1953 -11.047,5.7504 -20.004,13.1094 -26.871,22.0784 -6.855,8.953 -11.644,19.426 -14.336,31.371 -2.703,11.957 -3.246,24.996 -1.656,39.125 3.465,30.523 13.738,52.828 30.879,66.926 17.113,14.082 39.504,19.578 67.191,16.441 9.145,-1.039 17.989,-3.203 26.547,-6.484 8.547,-3.266 15.949,-7.918 22.223,-13.934 6.262,-6.016 11.019,-13.586 14.277,-22.726 3.242,-9.129 4.16,-20.083 2.703,-32.821 -0.433,-3.883 -1.132,-7.949 -2.082,-12.222 -0.937,-4.29 -2.144,-8.77 -3.609,-13.434 l -119.887,13.578 c -1.152,-10.031 -0.851,-19.289 0.848,-27.789 1.719,-8.488 4.937,-16.004 9.672,-22.531 4.726,-6.539 10.929,-11.93 18.597,-16.129 7.661,-4.211 17.016,-6.945 28.043,-8.203 8.953,-1.008 17.461,-0.465 25.493,1.609 8.027,2.098 14.562,4.809 19.593,8.176 z" /><path
         id="path26"
         
         d="m 734.555,45.7148 c 0.398,7.5508 -1.977,13.6993 -7.121,18.4493 -5.149,4.7539 -11.715,8.7539 -19.684,12.0468 -7.984,3.2813 -16.617,6.0782 -25.91,8.4024 -9.274,2.3164 -17.981,4.9648 -26.094,7.8906 -9.902,-5.207 -16.57,-10.6523 -19.953,-16.3437 -3.41,-5.668 -5.27,-11.8086 -5.617,-18.461 -0.508,-9.6172 3.887,-17.8789 13.164,-24.7929 9.285,-6.9102 23.07,-10.8321 41.39,-11.7891 9.399,-0.5039 17.211,-0.1641 23.465,1.0039 6.262,1.1758 11.348,2.9023 15.254,5.2305 3.906,2.3281 6.692,5.0507 8.344,8.1718 1.645,3.1368 2.574,6.5313 2.762,10.1914 z M 644.902,201.191 c -0.324,-5.957 0.071,-11.48 1.188,-16.582 1.109,-5.109 3.125,-9.523 6.031,-13.234 2.899,-3.715 6.922,-6.723 12.098,-9.055 5.14,-2.336 11.73,-3.73 19.754,-4.132 14.644,-0.77 25.355,2.402 32.168,9.507 6.789,7.114 10.519,16.84 11.16,29.192 0.254,4.808 0.281,8.832 0.101,12.062 -0.168,3.211 -0.476,6.086 -0.914,8.653 -0.445,2.535 -0.953,4.808 -1.547,6.785 -0.582,1.984 -1.16,4.019 -1.734,6.125 -5.156,2.562 -10.676,4.386 -16.59,5.5 -5.902,1.117 -12.082,1.847 -18.488,2.176 -15.559,0.816 -26.484,-1.836 -32.774,-7.922 -6.292,-6.114 -9.769,-15.805 -10.453,-29.075 z m 148.453,47.704 -1.148,-21.993 -40.164,2.11 c 3.035,-3.375 5.777,-7.992 8.234,-13.867 2.438,-5.868 3.469,-12.801 3.036,-20.809 -0.883,-16.961 -8.235,-30.227 -22.043,-39.82 -13.817,-9.625 -33.204,-13.77 -58.141,-12.469 -4.582,0.238 -8.477,0.488 -11.668,0.777 -3.211,0.281 -6.617,0.973 -10.231,2.094 -1.257,-2.242 -2.82,-4.625 -4.671,-7.164 -1.856,-2.543 -2.864,-5.301 -3.008,-8.281 -0.254,-4.809 2.523,-8.563 8.359,-11.285 5.828,-2.711 13.153,-5.286 21.981,-7.68 8.82,-2.422 18.453,-4.867 28.882,-7.363 10.418,-2.508 20.059,-5.8559 28.907,-10.1294 8.84,-4.2343 16.074,-9.6093 21.703,-16.0976 5.64,-6.4883 8.18,-14.7735 7.672,-24.8477 -0.469,-8.7031 -3.102,-16.1836 -7.899,-22.4805 C 758.352,23.293 751.77,18.2422 743.434,14.4414 735.086,10.6289 725.25,7.98828 713.93,6.49609 702.598,5.01953 690.285,4.64453 677.016,5.33594 648.402,6.82422 627.195,11.7227 613.398,20 c -13.796,8.2969 -20.351,19.0977 -19.652,32.375 0.672,12.8281 5.535,22.4297 14.582,28.8477 9.059,6.4062 21.606,11.4804 37.637,15.25 -5.824,2.8281 -10.477,5.8203 -13.988,9.0043 -3.516,3.152 -5.106,7.703 -4.782,13.664 0.125,2.754 0.957,5.504 2.485,8.293 1.535,2.796 3.488,5.457 5.925,7.961 2.426,2.519 5.071,4.785 7.934,6.824 2.848,2.027 5.578,3.664 8.168,4.906 -14.449,4.648 -25.367,11.883 -32.785,21.68 -7.406,9.808 -10.77,21.226 -10.086,34.277 0.867,16.707 8.094,29.742 21.672,39.148 13.578,9.383 33.058,13.426 58.469,12.102 l 104.378,-5.437" /><path
         id="path28"
         
         d="m 734.555,45.7148 c 0.398,7.5508 -1.977,13.6993 -7.121,18.4493 -5.149,4.7539 -11.715,8.7539 -19.684,12.0468 -7.984,3.2813 -16.617,6.0782 -25.91,8.4024 -9.274,2.3164 -17.981,4.9648 -26.094,7.8906 -9.902,-5.207 -16.57,-10.6523 -19.953,-16.3437 -3.41,-5.668 -5.27,-11.8086 -5.617,-18.461 -0.508,-9.6172 3.887,-17.8789 13.164,-24.7929 9.285,-6.9102 23.07,-10.8321 41.39,-11.7891 9.399,-0.5039 17.211,-0.1641 23.465,1.0039 6.262,1.1758 11.348,2.9023 15.254,5.2305 3.906,2.3281 6.692,5.0507 8.344,8.1718 1.645,3.1368 2.574,6.5313 2.762,10.1914 z M 644.902,201.191 c -0.324,-5.957 0.071,-11.48 1.188,-16.582 1.109,-5.109 3.125,-9.523 6.031,-13.234 2.899,-3.715 6.922,-6.723 12.098,-9.055 5.14,-2.336 11.73,-3.73 19.754,-4.132 14.644,-0.77 25.355,2.402 32.168,9.507 6.789,7.114 10.519,16.84 11.16,29.192 0.254,4.808 0.281,8.832 0.101,12.062 -0.168,3.211 -0.476,6.086 -0.914,8.653 -0.445,2.535 -0.953,4.808 -1.547,6.785 -0.582,1.984 -1.16,4.019 -1.734,6.125 -5.156,2.562 -10.676,4.386 -16.59,5.5 -5.902,1.117 -12.082,1.847 -18.488,2.176 -15.559,0.816 -26.484,-1.836 -32.774,-7.922 -6.292,-6.114 -9.769,-15.805 -10.453,-29.075 z m 148.453,47.704 -1.148,-21.993 -40.164,2.11 c 3.035,-3.375 5.777,-7.992 8.234,-13.867 2.438,-5.868 3.469,-12.801 3.036,-20.809 -0.883,-16.961 -8.235,-30.227 -22.043,-39.82 -13.817,-9.625 -33.204,-13.77 -58.141,-12.469 -4.582,0.238 -8.477,0.488 -11.668,0.777 -3.211,0.281 -6.617,0.973 -10.231,2.094 -1.257,-2.242 -2.82,-4.625 -4.671,-7.164 -1.856,-2.543 -2.864,-5.301 -3.008,-8.281 -0.254,-4.809 2.523,-8.563 8.359,-11.285 5.828,-2.711 13.153,-5.286 21.981,-7.68 8.82,-2.422 18.453,-4.867 28.882,-7.363 10.418,-2.508 20.059,-5.8559 28.907,-10.1294 8.84,-4.2343 16.074,-9.6093 21.703,-16.0976 5.64,-6.4883 8.18,-14.7735 7.672,-24.8477 -0.469,-8.7031 -3.102,-16.1836 -7.899,-22.4805 C 758.352,23.293 751.77,18.2422 743.434,14.4414 735.086,10.6289 725.25,7.98828 713.93,6.49609 702.598,5.01953 690.285,4.64453 677.016,5.33594 648.402,6.82422 627.195,11.7227 613.398,20 c -13.796,8.2969 -20.351,19.0977 -19.652,32.375 0.672,12.8281 5.535,22.4297 14.582,28.8477 9.059,6.4062 21.606,11.4804 37.637,15.25 -5.824,2.8281 -10.477,5.8203 -13.988,9.0043 -3.516,3.152 -5.106,7.703 -4.782,13.664 0.125,2.754 0.957,5.504 2.485,8.293 1.535,2.796 3.488,5.457 5.925,7.961 2.426,2.519 5.071,4.785 7.934,6.824 2.848,2.027 5.578,3.664 8.168,4.906 -14.449,4.648 -25.367,11.883 -32.785,21.68 -7.406,9.808 -10.77,21.226 -10.086,34.277 0.867,16.707 8.094,29.742 21.672,39.148 13.578,9.383 33.058,13.426 58.469,12.102 z" /><path
         id="path30"
         
         d="m 825.805,139.836 c -0.184,15.117 -0.032,30.598 0.445,46.426 0.492,15.816 0.645,30.961 0.465,45.386 l -26.137,-0.32 -0.215,17.188 61.891,0.769 c -0.238,-17.863 -0.426,-35.023 -0.559,-51.398 -0.132,-16.399 -0.093,-33.422 0.121,-51.063 0.125,-9.402 0.754,-17.707 1.864,-24.902 1.133,-7.199 3.144,-13.324 6.086,-18.324 2.929,-5.0121 6.925,-8.7347 12.015,-11.2035 5.063,-2.4609 11.496,-3.6328 19.285,-3.5273 11.465,0.1328 21.039,3.9297 28.75,11.3628 7.696,7.422 13.536,17.36 17.493,29.793 l -1.293,103.145 -25.094,-0.32 -0.227,17.203 61.203,0.762 2.063,-163.3091 25.439,0.3203 0.22,-17.1758 -57.409,-0.75 -2.906,39.1756 -1.727,-0.031 c -1.086,-4.824 -3.262,-9.7813 -6.523,-14.8594 -3.262,-5.082 -7.375,-9.7148 -12.367,-13.9141 -4.985,-4.1992 -10.801,-7.6484 -17.407,-10.3593 -6.621,-2.7227 -13.816,-4.1329 -21.605,-4.2383 -10.317,-0.1289 -19.379,0.8476 -27.211,2.9219 -7.82,2.0781 -14.402,5.9492 -19.738,11.621 -5.36,5.6563 -9.454,13.293 -12.325,22.8752 -2.879,9.601 -4.414,21.84 -4.597,36.746" /><path
         id="path32"
         
         d="m 825.805,139.836 c -0.184,15.117 -0.032,30.598 0.445,46.426 0.492,15.816 0.645,30.961 0.465,45.386 l -26.137,-0.32 -0.215,17.188 61.891,0.769 c -0.238,-17.863 -0.426,-35.023 -0.559,-51.398 -0.132,-16.399 -0.093,-33.422 0.121,-51.063 0.125,-9.402 0.754,-17.707 1.864,-24.902 1.133,-7.199 3.144,-13.324 6.086,-18.324 2.929,-5.0121 6.925,-8.7347 12.015,-11.2035 5.063,-2.4609 11.496,-3.6328 19.285,-3.5273 11.465,0.1328 21.039,3.9297 28.75,11.3628 7.696,7.422 13.536,17.36 17.493,29.793 l -1.293,103.145 -25.094,-0.32 -0.227,17.203 61.203,0.762 2.063,-163.3091 25.439,0.3203 0.22,-17.1758 -57.409,-0.75 -2.906,39.1756 -1.727,-0.031 c -1.086,-4.824 -3.262,-9.7813 -6.523,-14.8594 -3.262,-5.082 -7.375,-9.7148 -12.367,-13.9141 -4.985,-4.1992 -10.801,-7.6484 -17.407,-10.3593 -6.621,-2.7227 -13.816,-4.1329 -21.605,-4.2383 -10.317,-0.1289 -19.379,0.8476 -27.211,2.9219 -7.82,2.0781 -14.402,5.9492 -19.738,11.621 -5.36,5.6563 -9.454,13.293 -12.325,22.8752 -2.879,9.601 -4.414,21.84 -4.597,36.746 z" /><path
         id="path34"
         
         d="m 1252.49,89.2695 -83.96,-6.8281 -1.39,17.1367 22.61,1.8359 -7.01,86.008 c -1.47,18.062 -5.36,31.887 -11.66,41.496 -6.29,9.594 -16.77,13.812 -31.38,12.613 -6.41,-0.511 -12.2,-2.023 -17.41,-4.511 -5.19,-2.5 -9.77,-5.637 -13.71,-9.407 -3.95,-3.769 -7.28,-8.054 -10,-12.871 -2.71,-4.832 -4.67,-9.824 -5.85,-14.98 l 8.6,-105.5432 22.61,1.8359 1.41,-17.125 -83.97,-6.8594 -1.39,17.1406 25.36,2.0664 -11.87,145.6527 -25.36,-2.067 -1.39,17.137 61.34,5.008 2.9,-35.653 0.34,0.028 c 4.36,11.402 11.33,21.281 20.88,29.64 9.54,8.379 21.52,13.145 35.93,14.317 10.27,0.844 19.5,0.488 27.68,-1.027 8.16,-1.528 15.16,-4.93 21.01,-10.192 5.83,-5.269 10.55,-12.598 14.2,-21.941 3.63,-9.379 6.06,-21.481 7.27,-36.332 l 7.45,-91.493 25.36,2.047 1.4,-17.1325" /><path
         id="path36"
         
         d="m 1252.49,89.2695 -83.96,-6.8281 -1.39,17.1367 22.61,1.8359 -7.01,86.008 c -1.47,18.062 -5.36,31.887 -11.66,41.496 -6.29,9.594 -16.77,13.812 -31.38,12.613 -6.41,-0.511 -12.2,-2.023 -17.41,-4.511 -5.19,-2.5 -9.77,-5.637 -13.71,-9.407 -3.95,-3.769 -7.28,-8.054 -10,-12.871 -2.71,-4.832 -4.67,-9.824 -5.85,-14.98 l 8.6,-105.5432 22.61,1.8359 1.41,-17.125 -83.97,-6.8594 -1.39,17.1406 25.36,2.0664 -11.87,145.6527 -25.36,-2.067 -1.39,17.137 61.34,5.008 2.9,-35.653 0.34,0.028 c 4.36,11.402 11.33,21.281 20.88,29.64 9.54,8.379 21.52,13.145 35.93,14.317 10.27,0.844 19.5,0.488 27.68,-1.027 8.16,-1.528 15.16,-4.93 21.01,-10.192 5.83,-5.269 10.55,-12.598 14.2,-21.941 3.63,-9.379 6.06,-21.481 7.27,-36.332 l 7.45,-91.493 25.36,2.047 z" /><path
         id="path38"
         
         d="m 1248.24,271.566 30.31,4.204 -5.91,42.574 35.76,4.941 5.9,-42.551 56.55,7.832 3.02,-21.781 -56.55,-7.855 13.81,-99.434 c 1.99,-14.312 5.21,-24.18 9.65,-29.574 4.45,-5.391 10.78,-7.527 18.94,-6.391 7.03,0.981 12.95,3.063 17.71,6.282 4.77,3.203 9.1,6.578 13,10.125 l 10.35,-12.098 c -1.75,-2.332 -4.22,-4.93 -7.41,-7.801 -3.2,-2.871 -6.92,-5.644 -11.18,-8.324 -4.26,-2.672 -9.08,-5.07 -14.44,-7.211 -5.37,-2.125 -11.02,-3.606 -16.91,-4.422 -15.23,-2.1093 -27.41,0.195 -36.55,6.898 -9.14,6.719 -14.98,19.157 -17.49,37.325 l -15.23,109.664 -30.31,-4.203 -3.02,21.8" /><path
         id="path40"
         
         d="m 1248.24,271.566 30.31,4.204 -5.91,42.574 35.76,4.941 5.9,-42.551 56.55,7.832 3.02,-21.781 -56.55,-7.855 13.81,-99.434 c 1.99,-14.312 5.21,-24.18 9.65,-29.574 4.45,-5.391 10.78,-7.527 18.94,-6.391 7.03,0.981 12.95,3.063 17.71,6.282 4.77,3.203 9.1,6.578 13,10.125 l 10.35,-12.098 c -1.75,-2.332 -4.22,-4.93 -7.41,-7.801 -3.2,-2.871 -6.92,-5.644 -11.18,-8.324 -4.26,-2.672 -9.08,-5.07 -14.44,-7.211 -5.37,-2.125 -11.02,-3.606 -16.91,-4.422 -15.23,-2.1093 -27.41,0.195 -36.55,6.898 -9.14,6.719 -14.98,19.157 -17.49,37.325 l -15.23,109.664 -30.31,-4.203 z" /><path
         id="path42"
         
         d="m 1496.18,147.012 c 5.4,1.039 10.08,2.808 14.04,5.32 3.95,2.5 7.32,5.352 10.09,8.574 2.77,3.219 5.03,6.629 6.78,10.227 1.76,3.605 3.16,7.019 4.18,10.262 l -7.7,40.171 c -14.63,-2.793 -26.31,-6.031 -35.08,-9.683 -8.75,-3.668 -15.41,-7.57 -19.99,-11.695 -4.57,-4.145 -7.4,-8.602 -8.46,-13.364 -1.07,-4.746 -1.14,-9.613 -0.18,-14.562 1.92,-10.121 6.1,-17.328 12.52,-21.582 6.42,-4.254 14.34,-5.469 23.8,-3.668 z m 69.27,42.304 c 0.99,-5.171 2.12,-10.386 3.34,-15.628 1.24,-5.258 2.5,-9.969 3.76,-14.161 l 22.64,4.332 3.23,-16.886 -53.99,-10.321 -9.56,31.411 -1.7,-0.321 c -0.26,-4.715 -1.5,-9.508 -3.73,-14.355 -2.21,-4.867 -5.32,-9.426 -9.28,-13.684 -3.96,-4.265 -8.92,-8.012 -14.82,-11.234 -5.91,-3.25 -12.71,-5.594 -20.35,-7.055 -7.67,-1.453 -14.92,-1.68 -21.76,-0.656 -6.84,1.004 -13.02,3.101 -18.53,6.254 -5.51,3.144 -10.09,7.34 -13.79,12.574 -3.69,5.258 -6.21,11.473 -7.6,18.687 -2.11,11.032 -1.56,20.586 1.7,28.684 3.22,8.074 8.96,15.059 17.17,20.953 8.2,5.891 18.89,11.035 32.05,15.418 13.16,4.391 28.72,8.418 46.69,12.086 -0.22,3.652 -0.65,7.09 -1.27,10.316 -0.62,3.227 -1.23,6.411 -1.82,9.516 -2.65,13.82 -7.02,23.895 -13.14,30.231 -6.11,6.32 -15.24,8.328 -27.41,5.996 -4.49,-0.856 -9.29,-1.996 -14.38,-3.438 -5.11,-1.43 -9.58,-3.656 -13.43,-6.683 l 5.83,-30.473 -30.39,-5.824 -7.18,37.476 c 7.34,5.828 16.23,11.508 26.67,17 10.45,5.504 23.13,9.692 38.08,12.543 12.89,2.469 23.56,2.824 32.01,1.047 8.43,-1.762 15.23,-4.898 20.44,-9.394 5.2,-4.473 9.05,-9.93 11.58,-16.329 2.5,-6.402 4.39,-12.867 5.64,-19.41 2.71,-14.164 5.02,-27.793 6.94,-40.832 1.91,-13.07 4.03,-25.664 6.36,-37.84" /><path
         id="path44"
         
         d="m 1496.18,147.012 c 5.4,1.039 10.08,2.808 14.04,5.32 3.95,2.5 7.32,5.352 10.09,8.574 2.77,3.219 5.03,6.629 6.78,10.227 1.76,3.605 3.16,7.019 4.18,10.262 l -7.7,40.171 c -14.63,-2.793 -26.31,-6.031 -35.08,-9.683 -8.75,-3.668 -15.41,-7.57 -19.99,-11.695 -4.57,-4.145 -7.4,-8.602 -8.46,-13.364 -1.07,-4.746 -1.14,-9.613 -0.18,-14.562 1.92,-10.121 6.1,-17.328 12.52,-21.582 6.42,-4.254 14.34,-5.469 23.8,-3.668 z m 69.27,42.304 c 0.99,-5.171 2.12,-10.386 3.34,-15.628 1.24,-5.258 2.5,-9.969 3.76,-14.161 l 22.64,4.332 3.23,-16.886 -53.99,-10.321 -9.56,31.411 -1.7,-0.321 c -0.26,-4.715 -1.5,-9.508 -3.73,-14.355 -2.21,-4.867 -5.32,-9.426 -9.28,-13.684 -3.96,-4.265 -8.92,-8.012 -14.82,-11.234 -5.91,-3.25 -12.71,-5.594 -20.35,-7.055 -7.67,-1.453 -14.92,-1.68 -21.76,-0.656 -6.84,1.004 -13.02,3.101 -18.53,6.254 -5.51,3.144 -10.09,7.34 -13.79,12.574 -3.69,5.258 -6.21,11.473 -7.6,18.687 -2.11,11.032 -1.56,20.586 1.7,28.684 3.22,8.074 8.96,15.059 17.17,20.953 8.2,5.891 18.89,11.035 32.05,15.418 13.16,4.391 28.72,8.418 46.69,12.086 -0.22,3.652 -0.65,7.09 -1.27,10.316 -0.62,3.227 -1.23,6.411 -1.82,9.516 -2.65,13.82 -7.02,23.895 -13.14,30.231 -6.11,6.32 -15.24,8.328 -27.41,5.996 -4.49,-0.856 -9.29,-1.996 -14.38,-3.438 -5.11,-1.43 -9.58,-3.656 -13.43,-6.683 l 5.83,-30.473 -30.39,-5.824 -7.18,37.476 c 7.34,5.828 16.23,11.508 26.67,17 10.45,5.504 23.13,9.692 38.08,12.543 12.89,2.469 23.56,2.824 32.01,1.047 8.43,-1.762 15.23,-4.898 20.44,-9.394 5.2,-4.473 9.05,-9.93 11.58,-16.329 2.5,-6.402 4.39,-12.867 5.64,-19.41 2.71,-14.164 5.02,-27.793 6.94,-40.832 1.91,-13.07 4.03,-25.664 6.36,-37.84 z" /><path
         id="path46"
         
         d="m 1717.6,218.738 c -1.47,5.934 -5,10.61 -10.57,14.004 -5.58,3.414 -12.17,6.196 -19.79,8.395 -7.64,2.187 -15.84,4.258 -24.59,6.226 -8.75,1.95 -17.1,4.614 -25.01,7.946 -7.91,3.351 -14.95,7.863 -21.08,13.543 -6.13,5.679 -10.38,13.296 -12.77,22.867 -1.6,6.441 -1.49,12.676 0.34,18.683 1.84,6.008 4.92,11.563 9.23,16.641 4.31,5.09 9.8,9.57 16.43,13.477 6.63,3.886 13.98,6.839 22.04,8.839 6.7,1.68 12.69,2.926 17.94,3.762 5.27,0.828 10.12,1.379 14.56,1.668 4.44,0.281 8.71,0.324 12.79,0.16 4.08,-0.16 8.3,-0.414 12.65,-0.746 l 11.21,-45.031 -21.35,-5.328 -6.43,25.894 -8.14,5.617 c -3.05,-0.062 -6.3,-0.292 -9.75,-0.687 -3.45,-0.395 -7.05,-1.063 -10.84,-2.008 -10.68,-2.644 -18.13,-6.656 -22.34,-12.027 -4.23,-5.36 -5.55,-11.125 -4.03,-17.281 1.47,-5.93 4.99,-10.547 10.52,-13.829 5.54,-3.293 12.13,-6.031 19.76,-8.222 7.64,-2.188 15.8,-4.192 24.54,-6.051 8.72,-1.844 17.03,-4.32 24.88,-7.453 7.87,-3.121 14.78,-7.238 20.79,-12.359 6,-5.125 10.08,-12.008 12.23,-20.711 2,-8.004 1.91,-15.594 -0.22,-22.727 -2.14,-7.133 -5.87,-13.676 -11.15,-19.594 -5.3,-5.929 -11.96,-11.125 -19.99,-15.601 -8.04,-4.477 -16.86,-7.907 -26.48,-10.297 -10.73,-2.676 -21.52,-3.887 -32.39,-3.649 -10.88,0.266 -19.67,1.555 -26.44,3.903 l -10.86,43.699 21.35,5.324 6.21,-24.949 8.39,-5.227 c 3.42,-1.468 7.31,-2.363 11.63,-2.668 4.34,-0.316 9.72,0.329 16.18,1.93 10.67,2.66 18.92,7.027 24.72,13.149 5.8,6.117 7.75,13.023 5.83,20.718" /><path
         id="path48"
         
         d="m 1717.6,218.738 c -1.47,5.934 -5,10.61 -10.57,14.004 -5.58,3.414 -12.17,6.196 -19.79,8.395 -7.64,2.187 -15.84,4.258 -24.59,6.226 -8.75,1.95 -17.1,4.614 -25.01,7.946 -7.91,3.351 -14.95,7.863 -21.08,13.543 -6.13,5.679 -10.38,13.296 -12.77,22.867 -1.6,6.441 -1.49,12.676 0.34,18.683 1.84,6.008 4.92,11.563 9.23,16.641 4.31,5.09 9.8,9.57 16.43,13.477 6.63,3.886 13.98,6.839 22.04,8.839 6.7,1.68 12.69,2.926 17.94,3.762 5.27,0.828 10.12,1.379 14.56,1.668 4.44,0.281 8.71,0.324 12.79,0.16 4.08,-0.16 8.3,-0.414 12.65,-0.746 l 11.21,-45.031 -21.35,-5.328 -6.43,25.894 -8.14,5.617 c -3.05,-0.062 -6.3,-0.292 -9.75,-0.687 -3.45,-0.395 -7.05,-1.063 -10.84,-2.008 -10.68,-2.644 -18.13,-6.656 -22.34,-12.027 -4.23,-5.36 -5.55,-11.125 -4.03,-17.281 1.47,-5.93 4.99,-10.547 10.52,-13.829 5.54,-3.293 12.13,-6.031 19.76,-8.222 7.64,-2.188 15.8,-4.192 24.54,-6.051 8.72,-1.844 17.03,-4.32 24.88,-7.453 7.87,-3.121 14.78,-7.238 20.79,-12.359 6,-5.125 10.08,-12.008 12.23,-20.711 2,-8.004 1.91,-15.594 -0.22,-22.727 -2.14,-7.133 -5.87,-13.676 -11.15,-19.594 -5.3,-5.929 -11.96,-11.125 -19.99,-15.601 -8.04,-4.477 -16.86,-7.907 -26.48,-10.297 -10.73,-2.676 -21.52,-3.887 -32.39,-3.649 -10.88,0.266 -19.67,1.555 -26.44,3.903 l -10.86,43.699 21.35,5.324 6.21,-24.949 8.39,-5.227 c 3.42,-1.468 7.31,-2.363 11.63,-2.668 4.34,-0.316 9.72,0.329 16.18,1.93 10.67,2.66 18.92,7.027 24.72,13.149 5.8,6.117 7.75,13.023 5.83,20.718 z" /></g></g>
         </svg>