<?xml version="1.0" encoding="UTF-8" standalone="no"?>
<svg
   xmlns:dc="http://purl.org/dc/elements/1.1/"
   xmlns:cc="http://creativecommons.org/ns#"
   xmlns:rdf="http://www.w3.org/1999/02/22-rdf-syntax-ns#"
   xmlns:svg="http://www.w3.org/2000/svg"
   xmlns="http://www.w3.org/2000/svg"
   viewBox="0 0 202.8 42.799999"
   height="42.799999"
   width="202.8"
   xml:space="preserve"
   id="svg2"
   version="1.1"><metadata
     id="metadata8"><rdf:RDF><cc:Work
         rdf:about=""><dc:format>image/svg+xml</dc:format><dc:type
           rdf:resource="http://purl.org/dc/dcmitype/StillImage" /></cc:Work></rdf:RDF></metadata><defs
     id="defs6" /><g
     transform="matrix(1.3333333,0,0,-1.3333333,0,42.8)"
     id="g10"><g
       transform="scale(0.1)"
       id="g12"><path
         id="path14"
         
         d="m 87.7344,114.254 c 1.0469,-0.188 2.6094,-0.113 4.6719,0.219 2.0664,0.324 4.2812,0.632 6.6445,0.929 2.3872,0.293 4.6912,0.672 6.9292,1.141 2.239,0.469 3.942,0.828 5.09,1.062 7.602,1.59 14.555,4.004 20.879,7.25 6.309,3.25 11.602,7.344 15.848,12.297 4.238,4.942 7.172,10.828 8.793,17.664 1.613,6.832 1.515,14.629 -0.32,23.379 -3.332,15.938 -10.79,26.66 -22.403,32.157 -11.597,5.488 -26.054,6.425 -43.3475,2.816 -5.2539,-1.098 -9.6054,-2.164 -13.0429,-3.184 -3.4375,-1.023 -6.4571,-2.109 -9.0547,-3.257 z M 9.33203,193.77 5.91797,210.109 36.2461,216.441 c 8.7578,1.832 18.1602,4.2 28.1992,7.11 10.0508,2.906 19.836,5.359 29.3555,7.351 10.7112,2.235 21.4222,3.407 32.1522,3.512 10.731,0.113 20.586,-1.43 29.578,-4.625 8.992,-3.195 16.805,-8.312 23.449,-15.348 6.657,-7.031 11.235,-16.578 13.743,-28.632 2.398,-11.481 1.941,-21.871 -1.395,-31.192 -3.324,-9.32 -8.574,-17.472 -15.746,-24.445 -7.176,-6.981 -15.883,-12.859 -26.148,-17.641 -10.266,-4.785 -21.129,-8.371 -32.602,-10.769 -1.168,-0.246 -2.922,-0.606 -5.254,-1.102 -2.336,-0.48 -4.832,-0.953 -7.473,-1.4022 -2.644,-0.4492 -5.148,-0.8203 -7.5347,-1.1172 C 94.207,97.8438 92.4141,97.6758 91.207,97.625 l 13.156,-63.0039 29.172,6.0937 3.414,-16.332 L 48.5664,5.91797 45.1523,22.2539 71.6992,27.8008 35.8711,199.313 9.33203,193.77" /><path
         id="path16"
         
         d="m 87.7344,114.254 c 1.0469,-0.188 2.6094,-0.113 4.6719,0.219 2.0664,0.324 4.2812,0.632 6.6445,0.929 2.3872,0.293 4.6912,0.672 6.9292,1.141 2.239,0.469 3.942,0.828 5.09,1.062 7.602,1.59 14.555,4.004 20.879,7.25 6.309,3.25 11.602,7.344 15.848,12.297 4.238,4.942 7.172,10.828 8.793,17.664 1.613,6.832 1.515,14.629 -0.32,23.379 -3.332,15.938 -10.79,26.66 -22.403,32.157 -11.597,5.488 -26.054,6.425 -43.3475,2.816 -5.2539,-1.098 -9.6054,-2.164 -13.0429,-3.184 -3.4375,-1.023 -6.4571,-2.109 -9.0547,-3.257 z M 9.33203,193.77 5.91797,210.109 36.2461,216.441 c 8.7578,1.832 18.1602,4.2 28.1992,7.11 10.0508,2.906 19.836,5.359 29.3555,7.351 10.7112,2.235 21.4222,3.407 32.1522,3.512 10.731,0.113 20.586,-1.43 29.578,-4.625 8.992,-3.195 16.805,-8.312 23.449,-15.348 6.657,-7.031 11.235,-16.578 13.743,-28.632 2.398,-11.481 1.941,-21.871 -1.395,-31.192 -3.324,-9.32 -8.574,-17.472 -15.746,-24.445 -7.176,-6.981 -15.883,-12.859 -26.148,-17.641 -10.266,-4.785 -21.129,-8.371 -32.602,-10.769 -1.168,-0.246 -2.922,-0.606 -5.254,-1.102 -2.336,-0.48 -4.832,-0.953 -7.473,-1.4022 -2.644,-0.4492 -5.148,-0.8203 -7.5347,-1.1172 C 94.207,97.8438 92.4141,97.6758 91.207,97.625 l 13.156,-63.0039 29.172,6.0937 3.414,-16.332 L 48.5664,5.91797 45.1523,22.2539 71.6992,27.8008 35.8711,199.313 Z" /><path
         id="path18"
         
         d="m 295.016,184.504 c -4.153,-3.07 -7.442,-6.399 -9.895,-10.004 -2.449,-3.605 -4.879,-8.613 -7.281,-15.023 l 14.387,-91.5473 25.613,4.0273 2.308,-14.7226 -78.296,-12.3125 -2.317,14.7148 21.781,3.4297 -19.668,125.1096 -21.781,-3.426 -2.32,14.723 52.703,8.285 4.672,-29.735 1.176,0.188 c 2.32,6.996 5.363,13.254 9.113,18.773 3.754,5.516 8.187,10.586 13.297,15.215 l 28.258,4.442 4.164,-26.496 -35.914,-5.641" /><path
         id="path20"
         
         d="m 295.016,184.504 c -4.153,-3.07 -7.442,-6.399 -9.895,-10.004 -2.449,-3.605 -4.879,-8.613 -7.281,-15.023 l 14.387,-91.5473 25.613,4.0273 2.308,-14.7226 -78.296,-12.3125 -2.317,14.7148 21.781,3.4297 -19.668,125.1096 -21.781,-3.426 -2.32,14.723 52.703,8.285 4.672,-29.735 1.176,0.188 c 2.32,6.996 5.363,13.254 9.113,18.773 3.754,5.516 8.187,10.586 13.297,15.215 l 28.258,4.442 4.164,-26.496 z" /><path
         id="path22"
         
         d="m 394.551,146.363 c 1.031,-9.48 2.887,-18.175 5.547,-26.078 2.668,-7.902 6.351,-14.594 11.058,-20.082 4.715,-5.4764 10.465,-9.6053 17.289,-12.3514 6.817,-2.7618 14.875,-3.6328 24.196,-2.6172 11.683,1.2695 20.707,7.6445 27.082,19.1366 6.363,11.484 8.293,28.777 5.781,51.887 -1.031,9.476 -2.883,18.215 -5.559,26.219 -2.683,8 -6.277,14.8 -10.785,20.41 -4.527,5.597 -9.996,9.754 -16.394,12.453 -6.422,2.699 -13.965,3.578 -22.696,2.629 -13.082,-1.426 -22.906,-7.887 -29.472,-19.395 -6.559,-11.504 -8.578,-28.91 -6.047,-52.211 z m -33.172,-3.609 c -1.418,13.031 -0.805,24.789 1.844,35.269 2.656,10.473 7,19.493 13.07,27.047 6.066,7.555 13.781,13.645 23.133,18.254 9.375,4.614 19.98,7.567 31.808,8.86 13.801,1.5 25.887,0.863 36.254,-1.903 10.367,-2.769 19.098,-7.316 26.176,-13.64 7.066,-6.325 12.672,-14.305 16.816,-23.95 4.141,-9.64 6.875,-20.582 8.208,-32.824 1.417,-13.035 0.832,-24.742 -1.723,-35.109 -2.555,-10.375 -6.867,-19.328 -12.934,-26.8869 -6.058,-7.5547 -13.765,-13.6406 -23.148,-18.2578 -9.363,-4.6094 -20.067,-7.5742 -32.078,-8.8867 -13.414,-1.4571 -25.246,-0.793 -35.528,1.9804 -10.269,2.7813 -19.039,7.3243 -26.308,13.625 -7.27,6.3008 -13.028,14.215 -17.25,23.754 -4.231,9.527 -7.008,20.414 -8.34,32.668" /><path
         id="path24"
         
         d="m 394.551,146.363 c 1.031,-9.48 2.887,-18.175 5.547,-26.078 2.668,-7.902 6.351,-14.594 11.058,-20.082 4.715,-5.4764 10.465,-9.6053 17.289,-12.3514 6.817,-2.7618 14.875,-3.6328 24.196,-2.6172 11.683,1.2695 20.707,7.6445 27.082,19.1366 6.363,11.484 8.293,28.777 5.781,51.887 -1.031,9.476 -2.883,18.215 -5.559,26.219 -2.683,8 -6.277,14.8 -10.785,20.41 -4.527,5.597 -9.996,9.754 -16.394,12.453 -6.422,2.699 -13.965,3.578 -22.696,2.629 -13.082,-1.426 -22.906,-7.887 -29.472,-19.395 -6.559,-11.504 -8.578,-28.91 -6.047,-52.211 z m -33.172,-3.609 c -1.418,13.031 -0.805,24.789 1.844,35.269 2.656,10.473 7,19.493 13.07,27.047 6.066,7.555 13.781,13.645 23.133,18.254 9.375,4.614 19.98,7.567 31.808,8.86 13.801,1.5 25.887,0.863 36.254,-1.903 10.367,-2.769 19.098,-7.316 26.176,-13.64 7.066,-6.325 12.672,-14.305 16.816,-23.95 4.141,-9.64 6.875,-20.582 8.208,-32.824 1.417,-13.035 0.832,-24.742 -1.723,-35.109 -2.555,-10.375 -6.867,-19.328 -12.934,-26.8869 -6.058,-7.5547 -13.765,-13.6406 -23.148,-18.2578 -9.363,-4.6094 -20.067,-7.5742 -32.078,-8.8867 -13.414,-1.4571 -25.246,-0.793 -35.528,1.9804 -10.269,2.7813 -19.039,7.3243 -26.308,13.625 -7.27,6.3008 -13.028,14.215 -17.25,23.754 -4.231,9.527 -7.008,20.414 -8.34,32.668 z" /><path
         id="path26"
         
         d="m 623.676,104.641 c 10.949,0.738 19.297,4.382 25.051,10.945 5.761,6.555 9.55,15.371 11.41,26.449 l -5.899,87.707 c -4.117,1.711 -8.656,2.903 -13.586,3.571 -4.953,0.66 -11.398,0.726 -19.351,0.183 -7.36,-0.492 -13.77,-2.523 -19.227,-6.07 -5.461,-3.551 -9.933,-8.434 -13.406,-14.641 -3.484,-6.211 -5.941,-13.59 -7.363,-22.144 -1.418,-8.567 -1.77,-17.996 -1.09,-28.301 0.566,-8.324 1.836,-16.11 3.832,-23.332 1.98,-7.238 4.758,-13.473 8.301,-18.707 3.55,-5.242 7.918,-9.281 13.093,-12.113 5.192,-2.84 11.27,-4.02 18.235,-3.547 z m 37.246,16.836 c -0.887,-4.637 -2.516,-9.125 -4.91,-13.469 -2.399,-4.34 -5.418,-8.2346 -9.078,-11.6603 -3.645,-3.4375 -7.903,-6.211 -12.727,-8.3243 -4.848,-2.1171 -10.137,-3.3711 -15.867,-3.7578 -22.012,-1.4843 -38.945,3.8985 -50.828,16.1404 -11.871,12.239 -18.731,32.145 -20.582,59.692 -0.903,13.281 0.14,25.144 3.129,35.605 2.976,10.453 7.601,19.375 13.871,26.77 6.261,7.386 14.054,13.191 23.312,17.398 9.289,4.211 19.762,6.699 31.461,7.492 4.156,0.282 7.735,0.422 10.723,0.422 2.984,0 5.769,-0.109 8.387,-0.332 2.593,-0.219 5.117,-0.605 7.535,-1.137 2.429,-0.531 5.05,-1.105 7.886,-1.707 l -3.648,54.11 -24.664,-1.656 -1.008,14.871 55.895,3.757 14.004,-208.128 20.82,1.406 1.004,-14.8674 -48.739,-3.2852 -4.785,30.7426 -1.191,-0.082" /><path
         id="path28"
         
         d="m 623.676,104.641 c 10.949,0.738 19.297,4.382 25.051,10.945 5.761,6.555 9.55,15.371 11.41,26.449 l -5.899,87.707 c -4.117,1.711 -8.656,2.903 -13.586,3.571 -4.953,0.66 -11.398,0.726 -19.351,0.183 -7.36,-0.492 -13.77,-2.523 -19.227,-6.07 -5.461,-3.551 -9.933,-8.434 -13.406,-14.641 -3.484,-6.211 -5.941,-13.59 -7.363,-22.144 -1.418,-8.567 -1.77,-17.996 -1.09,-28.301 0.566,-8.324 1.836,-16.11 3.832,-23.332 1.98,-7.238 4.758,-13.473 8.301,-18.707 3.55,-5.242 7.918,-9.281 13.093,-12.113 5.192,-2.84 11.27,-4.02 18.235,-3.547 z m 37.246,16.836 c -0.887,-4.637 -2.516,-9.125 -4.91,-13.469 -2.399,-4.34 -5.418,-8.2346 -9.078,-11.6603 -3.645,-3.4375 -7.903,-6.211 -12.727,-8.3243 -4.848,-2.1171 -10.137,-3.3711 -15.867,-3.7578 -22.012,-1.4843 -38.945,3.8985 -50.828,16.1404 -11.871,12.239 -18.731,32.145 -20.582,59.692 -0.903,13.281 0.14,25.144 3.129,35.605 2.976,10.453 7.601,19.375 13.871,26.77 6.261,7.386 14.054,13.191 23.312,17.398 9.289,4.211 19.762,6.699 31.461,7.492 4.156,0.282 7.735,0.422 10.723,0.422 2.984,0 5.769,-0.109 8.387,-0.332 2.593,-0.219 5.117,-0.605 7.535,-1.137 2.429,-0.531 5.05,-1.105 7.886,-1.707 l -3.648,54.11 -24.664,-1.656 -1.008,14.871 55.895,3.757 14.004,-208.128 20.82,1.406 1.004,-14.8674 -48.739,-3.2852 -4.785,30.7426 z" /><path
         id="path30"
         
         d="m 747.363,155.207 c 0.067,13.113 0.418,26.523 1.078,40.227 0.641,13.711 1.012,26.816 1.051,39.332 l -22.648,0.093 0.066,14.907 53.641,-0.231 c -0.457,-15.492 -0.867,-30.347 -1.235,-44.543 -0.363,-14.211 -0.574,-28.957 -0.625,-44.25 -0.05,-8.152 0.372,-15.347 1.227,-21.613 0.875,-6.266 2.543,-11.582 5.008,-15.965 2.465,-4.387 5.875,-7.676 10.242,-9.879 4.363,-2.203 9.918,-3.32 16.668,-3.347 9.934,-0.043 18.293,3.097 25.078,9.429 6.777,6.324 11.992,14.852 15.602,25.563 l 0.379,89.39 -21.743,0.102 0.051,14.891 53.043,-0.227 -0.609,-141.539 22.062,-0.102 -0.062,-14.8981 -49.774,0.2187 -1.933,33.9764 -1.485,0.016 c -1.011,-4.176 -2.972,-8.438 -5.871,-12.801 -2.906,-4.355 -6.539,-8.309 -10.929,-11.871 -4.379,-3.5587 -9.465,-6.4649 -15.247,-8.7266 -5.761,-2.25 -12.031,-3.3711 -18.777,-3.3438 -8.937,0.0391 -16.785,1.0157 -23.523,2.9297 -6.754,1.918 -12.395,5.3672 -16.953,10.3557 -4.54,4.984 -7.993,11.652 -10.329,20.012 -2.351,8.355 -3.507,18.98 -3.453,31.894" /><path
         id="path32"
         
         d="m 747.363,155.207 c 0.067,13.113 0.418,26.523 1.078,40.227 0.641,13.711 1.012,26.816 1.051,39.332 l -22.648,0.093 0.066,14.907 53.641,-0.231 c -0.457,-15.492 -0.867,-30.347 -1.235,-44.543 -0.363,-14.211 -0.574,-28.957 -0.625,-44.25 -0.05,-8.152 0.372,-15.347 1.227,-21.613 0.875,-6.266 2.543,-11.582 5.008,-15.965 2.465,-4.387 5.875,-7.676 10.242,-9.879 4.363,-2.203 9.918,-3.32 16.668,-3.347 9.934,-0.043 18.293,3.097 25.078,9.429 6.777,6.324 11.992,14.852 15.602,25.563 l 0.379,89.39 -21.743,0.102 0.051,14.891 53.043,-0.227 -0.609,-141.539 22.062,-0.102 -0.062,-14.8981 -49.774,0.2187 -1.933,33.9764 -1.485,0.016 c -1.011,-4.176 -2.972,-8.438 -5.871,-12.801 -2.906,-4.355 -6.539,-8.309 -10.929,-11.871 -4.379,-3.5587 -9.465,-6.4649 -15.247,-8.7266 -5.761,-2.25 -12.031,-3.3711 -18.777,-3.3438 -8.937,0.0391 -16.785,1.0157 -23.523,2.9297 -6.754,1.918 -12.395,5.3672 -16.953,10.3557 -4.54,4.984 -7.993,11.652 -10.329,20.012 -2.351,8.355 -3.507,18.98 -3.453,31.894 z" /><path
         id="path34"
         
         d="m 1055.93,103.848 c -4.52,-5.516 -11.4,-10.4417 -20.7,-14.7855 -9.3,-4.3398 -20.11,-6.1641 -32.41,-5.457 -13.082,0.7461 -24.429,3.332 -34.031,7.7656 -9.594,4.4258 -17.453,10.3439 -23.598,17.7659 -6.14,7.41 -10.523,16.218 -13.121,26.418 -2.597,10.191 -3.543,21.437 -2.847,33.738 1.507,26.375 9.644,46.113 24.425,59.199 14.774,13.078 34.165,18.934 58.172,17.567 10.91,-0.625 19.9,-1.84 26.94,-3.633 7.06,-1.793 13.49,-4.348 19.27,-7.664 l -2.21,-38.68 -26.78,1.531 1.61,28.02 c -2.9,1.914 -8.82,3.137 -17.79,3.648 -7.57,0.434 -14.313,-0.269 -20.212,-2.113 -5.906,-1.84 -10.984,-5.109 -15.25,-9.82 -4.273,-4.711 -7.632,-11.145 -10.113,-19.321 -2.457,-8.179 -4.035,-18.289 -4.722,-30.328 -0.458,-7.898 0.207,-15.508 1.984,-22.84 1.777,-7.328 4.695,-13.828 8.762,-19.511 4.07,-5.684 9.347,-10.289 15.824,-13.828 6.484,-3.54 14.207,-5.559 23.167,-6.079 4.77,-0.265 9.03,-0.015 12.77,0.77 3.73,0.781 7.02,1.633 9.87,2.566 2.84,0.93 5.41,2.032 7.67,3.293 2.27,1.266 4.44,2.629 6.52,4.11 l 6.8,-12.332" /><path
         id="path36"
         
         d="m 1055.93,103.848 c -4.52,-5.516 -11.4,-10.4417 -20.7,-14.7855 -9.3,-4.3398 -20.11,-6.1641 -32.41,-5.457 -13.082,0.7461 -24.429,3.332 -34.031,7.7656 -9.594,4.4258 -17.453,10.3439 -23.598,17.7659 -6.14,7.41 -10.523,16.218 -13.121,26.418 -2.597,10.191 -3.543,21.437 -2.847,33.738 1.507,26.375 9.644,46.113 24.425,59.199 14.774,13.078 34.165,18.934 58.172,17.567 10.91,-0.625 19.9,-1.84 26.94,-3.633 7.06,-1.793 13.49,-4.348 19.27,-7.664 l -2.21,-38.68 -26.78,1.531 1.61,28.02 c -2.9,1.914 -8.82,3.137 -17.79,3.648 -7.57,0.434 -14.313,-0.269 -20.212,-2.113 -5.906,-1.84 -10.984,-5.109 -15.25,-9.82 -4.273,-4.711 -7.632,-11.145 -10.113,-19.321 -2.457,-8.179 -4.035,-18.289 -4.722,-30.328 -0.458,-7.898 0.207,-15.508 1.984,-22.84 1.777,-7.328 4.695,-13.828 8.762,-19.511 4.07,-5.684 9.347,-10.289 15.824,-13.828 6.484,-3.54 14.207,-5.559 23.167,-6.079 4.77,-0.265 9.03,-0.015 12.77,0.77 3.73,0.781 7.02,1.633 9.87,2.566 2.84,0.93 5.41,2.032 7.67,3.293 2.27,1.266 4.44,2.629 6.52,4.11 z" /><path
         id="path38"
         
         d="m 1085.45,238.207 26.37,-2.641 3.72,37.063 31.13,-3.113 -3.71,-37.071 49.22,-4.925 -1.9,-18.977 -49.22,4.93 -8.67,-86.582 c -1.25,-12.453 -0.56,-21.407 2.1,-26.864 2.65,-5.4567 7.53,-8.5387 14.64,-9.2536 6.14,-0.6132 11.53,-0.0546 16.2,1.6797 4.66,1.7188 8.99,3.6836 13.02,5.8789 l 6.25,-12.3086 c -1.96,-1.6015 -4.59,-3.2851 -7.85,-5.0507 -3.27,-1.7735 -6.97,-3.3477 -11.1,-4.7266 -4.14,-1.3906 -8.69,-2.4258 -13.65,-3.1289 -4.95,-0.7031 -10,-0.793 -15.14,-0.2813 -13.25,1.3321 -23.04,5.7539 -29.38,13.2774 -6.32,7.5195 -8.69,19.1877 -7.12,35.0037 l 9.57,95.477 -26.4,2.64 1.92,18.973" /><path
         id="path40"
         
         d="m 1085.45,238.207 26.37,-2.641 3.72,37.063 31.13,-3.113 -3.71,-37.071 49.22,-4.925 -1.9,-18.977 -49.22,4.93 -8.67,-86.582 c -1.25,-12.453 -0.56,-21.407 2.1,-26.864 2.65,-5.4567 7.53,-8.5387 14.64,-9.2536 6.14,-0.6132 11.53,-0.0546 16.2,1.6797 4.66,1.7188 8.99,3.6836 13.02,5.8789 l 6.25,-12.3086 c -1.96,-1.6015 -4.59,-3.2851 -7.85,-5.0507 -3.27,-1.7735 -6.97,-3.3477 -11.1,-4.7266 -4.14,-1.3906 -8.69,-2.4258 -13.65,-3.1289 -4.95,-0.7031 -10,-0.793 -15.14,-0.2813 -13.25,1.3321 -23.04,5.7539 -29.38,13.2774 -6.32,7.5195 -8.69,19.1877 -7.12,35.0037 l 9.57,95.477 -26.4,2.64 z" /><path
         id="path42"
         
         d="m 1244.45,141.98 c -1.4,-9.425 -1.81,-18.312 -1.23,-26.625 0.58,-8.324 2.45,-15.7339 5.61,-22.2222 3.17,-6.4961 7.69,-11.9414 13.6,-16.3281 5.9,-4.3906 13.48,-7.2734 22.75,-8.6484 11.62,-1.7227 21.98,2.164 31.05,11.6601 9.05,9.5039 15.29,25.7496 18.7,48.7386 1.41,9.433 1.83,18.359 1.26,26.781 -0.56,8.41 -2.33,15.91 -5.27,22.465 -2.96,6.574 -7.2,11.972 -12.72,16.199 -5.52,4.23 -12.61,6.992 -21.28,8.281 -13.01,1.93 -24.16,-1.836 -33.42,-11.308 -9.26,-9.469 -15.61,-25.801 -19.05,-48.993 z m -33.03,4.903 c 1.94,12.972 5.5,24.187 10.72,33.66 5.21,9.469 11.7,17.09 19.48,22.863 7.76,5.778 16.77,9.715 27,11.809 10.24,2.094 21.25,2.269 33,0.523 13.75,-2.035 25.28,-5.707 34.61,-11.008 9.34,-5.296 16.62,-11.906 21.86,-19.812 5.24,-7.906 8.66,-17.055 10.21,-27.422 1.59,-10.379 1.45,-21.656 -0.35,-33.844 -1.92,-12.961 -5.44,-24.1481 -10.54,-33.527 -5.1,-9.3867 -11.54,-16.9609 -19.31,-22.7422 -7.78,-5.7812 -16.77,-9.7148 -27,-11.8086 -10.25,-2.0976 -21.34,-2.2578 -33.3,-0.4804 -13.34,1.9765 -24.63,5.6093 -33.86,10.8984 -9.25,5.2891 -16.6,11.8984 -22.02,19.8359 -5.44,7.9336 -9,17.0509 -10.68,27.3479 -1.68,10.289 -1.61,21.523 0.18,33.707" /><path
         id="path44"
         
         d="m 1244.45,141.98 c -1.4,-9.425 -1.81,-18.312 -1.23,-26.625 0.58,-8.324 2.45,-15.7339 5.61,-22.2222 3.17,-6.4961 7.69,-11.9414 13.6,-16.3281 5.9,-4.3906 13.48,-7.2734 22.75,-8.6484 11.62,-1.7227 21.98,2.164 31.05,11.6601 9.05,9.5039 15.29,25.7496 18.7,48.7386 1.41,9.433 1.83,18.359 1.26,26.781 -0.56,8.41 -2.33,15.91 -5.27,22.465 -2.96,6.574 -7.2,11.972 -12.72,16.199 -5.52,4.23 -12.61,6.992 -21.28,8.281 -13.01,1.93 -24.16,-1.836 -33.42,-11.308 -9.26,-9.469 -15.61,-25.801 -19.05,-48.993 z m -33.03,4.903 c 1.94,12.972 5.5,24.187 10.72,33.66 5.21,9.469 11.7,17.09 19.48,22.863 7.76,5.778 16.77,9.715 27,11.809 10.24,2.094 21.25,2.269 33,0.523 13.75,-2.035 25.28,-5.707 34.61,-11.008 9.34,-5.296 16.62,-11.906 21.86,-19.812 5.24,-7.906 8.66,-17.055 10.21,-27.422 1.59,-10.379 1.45,-21.656 -0.35,-33.844 -1.92,-12.961 -5.44,-24.1481 -10.54,-33.527 -5.1,-9.3867 -11.54,-16.9609 -19.31,-22.7422 -7.78,-5.7812 -16.77,-9.7148 -27,-11.8086 -10.25,-2.0976 -21.34,-2.2578 -33.3,-0.4804 -13.34,1.9765 -24.63,5.6093 -33.86,10.8984 -9.25,5.2891 -16.6,11.8984 -22.02,19.8359 -5.44,7.9336 -9,17.0509 -10.68,27.3479 -1.68,10.289 -1.61,21.523 0.18,33.707 z" /><path
         id="path46"
         
         d="m 1471.32,60.0391 c 1.05,5.1992 0.01,10.1679 -3.09,14.8906 -3.11,4.7266 -7.24,9.3672 -12.41,13.9062 -5.17,4.5469 -10.82,9.1993 -16.95,13.9771 -6.14,4.777 -11.69,9.941 -16.64,15.496 -4.97,5.554 -8.8,11.691 -11.52,18.418 -2.69,6.722 -3.21,14.269 -1.53,22.648 1.14,5.645 3.52,10.48 7.2,14.512 3.66,4.023 8.11,7.234 13.38,9.625 5.27,2.386 11.22,3.879 17.87,4.468 6.63,0.594 13.48,0.188 20.53,-1.226 5.89,-1.184 11.04,-2.422 15.46,-3.707 4.43,-1.293 8.44,-2.66 12.02,-4.082 3.58,-1.442 6.95,-2.969 10.08,-4.606 3.14,-1.652 6.35,-3.406 9.66,-5.281 l -7.93,-39.445 -18.68,3.758 4.53,22.644 -4.28,7.426 c -2.43,1.078 -5.04,2.102 -7.89,3.074 -2.85,0.965 -5.93,1.785 -9.24,2.445 -9.35,1.879 -16.68,1.497 -21.95,-1.144 -5.3,-2.648 -8.49,-6.664 -9.57,-12.047 -1.04,-5.199 0,-10.113 3.12,-14.746 3.12,-4.625 7.28,-9.219 12.44,-13.75 5.16,-4.547 10.83,-9.148 16.99,-13.828 6.15,-4.68 11.72,-9.699 16.74,-15.0587 4.99,-5.3594 8.9,-11.1563 11.69,-17.3907 2.81,-6.2383 3.46,-13.1523 1.93,-20.75 -1.41,-7.0078 -4.27,-12.9218 -8.61,-17.7265 -4.32,-4.8086 -9.65,-8.5508 -15.98,-11.2266 -6.35,-2.6797 -13.49,-4.2891 -21.45,-4.8203 -7.95,-0.5313 -16.13,0.0508 -24.55,1.7344 -9.41,1.8828 -18.31,4.9375 -26.73,9.1562 -8.43,4.2266 -14.85,8.5 -19.28,12.836 l 7.68,38.2734 18.69,-3.7539 -4.36,-21.832 4.62,-7.2032 c 2.15,-2.4218 4.86,-4.5547 8.15,-6.414 3.27,-1.8555 7.72,-3.3438 13.38,-4.4766 9.35,-1.8711 17.43,-1.4922 24.24,1.1523 6.81,2.6368 10.89,7.3282 12.24,14.0743" /><path
         id="path48"
         
         d="m 1471.32,60.0391 c 1.05,5.1992 0.01,10.1679 -3.09,14.8906 -3.11,4.7266 -7.24,9.3672 -12.41,13.9062 -5.17,4.5469 -10.82,9.1993 -16.95,13.9771 -6.14,4.777 -11.69,9.941 -16.64,15.496 -4.97,5.554 -8.8,11.691 -11.52,18.418 -2.69,6.722 -3.21,14.269 -1.53,22.648 1.14,5.645 3.52,10.48 7.2,14.512 3.66,4.023 8.11,7.234 13.38,9.625 5.27,2.386 11.22,3.879 17.87,4.468 6.63,0.594 13.48,0.188 20.53,-1.226 5.89,-1.184 11.04,-2.422 15.46,-3.707 4.43,-1.293 8.44,-2.66 12.02,-4.082 3.58,-1.442 6.95,-2.969 10.08,-4.606 3.14,-1.652 6.35,-3.406 9.66,-5.281 l -7.93,-39.445 -18.68,3.758 4.53,22.644 -4.28,7.426 c -2.43,1.078 -5.04,2.102 -7.89,3.074 -2.85,0.965 -5.93,1.785 -9.24,2.445 -9.35,1.879 -16.68,1.497 -21.95,-1.144 -5.3,-2.648 -8.49,-6.664 -9.57,-12.047 -1.04,-5.199 0,-10.113 3.12,-14.746 3.12,-4.625 7.28,-9.219 12.44,-13.75 5.16,-4.547 10.83,-9.148 16.99,-13.828 6.15,-4.68 11.72,-9.699 16.74,-15.0587 4.99,-5.3594 8.9,-11.1563 11.69,-17.3907 2.81,-6.2383 3.46,-13.1523 1.93,-20.75 -1.41,-7.0078 -4.27,-12.9218 -8.61,-17.7265 -4.32,-4.8086 -9.65,-8.5508 -15.98,-11.2266 -6.35,-2.6797 -13.49,-4.2891 -21.45,-4.8203 -7.95,-0.5313 -16.13,0.0508 -24.55,1.7344 -9.41,1.8828 -18.31,4.9375 -26.73,9.1562 -8.43,4.2266 -14.85,8.5 -19.28,12.836 l 7.68,38.2734 18.69,-3.7539 -4.36,-21.832 4.62,-7.2032 c 2.15,-2.4218 4.86,-4.5547 8.15,-6.414 3.27,-1.8555 7.72,-3.3438 13.38,-4.4766 9.35,-1.8711 17.43,-1.4922 24.24,1.1523 6.81,2.6368 10.89,7.3282 12.24,14.0743 z" /></g></g>
         </svg>