<?xml version="1.0" encoding="UTF-8" standalone="no"?>
<svg
   xmlns:dc="http://purl.org/dc/elements/1.1/"
   xmlns:cc="http://creativecommons.org/ns#"
   xmlns:rdf="http://www.w3.org/1999/02/22-rdf-syntax-ns#"
   xmlns:svg="http://www.w3.org/2000/svg"
   xmlns="http://www.w3.org/2000/svg"
   viewBox="0 0 177.53333 39.293331"
   height="39.293331"
   width="177.53333"
   xml:space="preserve"
   id="servicios"
   version="1.1"><metadata
     id="metadata8"><rdf:RDF><cc:Work
         rdf:about=""><dc:format>image/svg+xml</dc:format><dc:type
           rdf:resource="http://purl.org/dc/dcmitype/StillImage" /></cc:Work></rdf:RDF></metadata><defs
     id="defs6" /><g
     transform="matrix(1.3333333,0,0,-1.3333333,0,39.293333)"
     id="g10"><g
       transform="scale(0.1)"
       id="g12"><path
         id="path14"
         
         d="m 48.043,32.6797 6.5625,-6.0742 c 3.9843,-1.8907 9.207,-3.1133 15.6679,-3.6446 6.461,-0.5273 13.3907,-0.125 20.8204,1.2422 7.0312,1.2891 13.4062,3.2032 19.0972,5.7657 5.684,2.5468 10.504,5.707 14.481,9.4609 3.945,3.7578 6.785,8.1055 8.508,13.0703 1.711,4.957 2.008,10.5664 0.855,16.8242 -1.461,8.0117 -5.367,14.1641 -11.711,18.4571 -6.336,4.2929 -13.886,7.7539 -22.6482,10.3867 -8.7735,2.637 -18.1992,5.051 -28.3008,7.246 -10.0898,2.195 -19.6172,5.195 -28.6055,8.996 -8.9804,3.82 -16.8398,8.938 -23.5703,15.391 -6.7187,6.437 -11.12889,15.324 -13.20311,26.652 -3.04296,16.613 0.89454,30.711 11.80081,42.305 10.9062,11.582 27.0976,19.351 48.5976,23.281 13.4844,2.473 25.2618,3.719 35.3675,3.758 10.082,0.019 18.824,-0.801 26.215,-2.484 l 9.214,-50.415 -18.765,-3.433 -5.797,31.66 -6.035,6.473 c -3.985,0.879 -9.5745,1.062 -16.7542,0.562 -7.1835,-0.508 -14.1914,-1.383 -21.0312,-2.637 -11.7266,-2.14 -20.4141,-6.515 -26.0781,-13.105 -5.6563,-6.59 -7.586,-14.77 -5.7969,-24.535 1.4609,-8.016 5.3711,-14.219 11.7383,-18.61 6.3476,-4.39 13.9219,-8.007 22.7265,-10.832 8.7969,-2.836 18.2618,-5.402 28.375,-7.683 10.1136,-2.285 19.6366,-5.293 28.6056,-9.004 8.961,-3.711 16.789,-8.691 23.488,-14.934 6.688,-6.25 11.02,-14.7497 12.985,-25.4997 3.48,-18.9531 -1.207,-34.8086 -14.008,-47.543 C 138.031,21.0234 118.91,12.3242 93.5156,7.67969 79.6445,5.14063 67.3477,4.40625 56.6563,5.47266 45.957,6.53906 37.957,8.3125 32.6602,10.7773 l -9.7618,53.3555 18.7618,3.4297 6.3828,-34.8828" /><path
         id="path16"
         
         d="m 48.043,32.6797 6.5625,-6.0742 c 3.9843,-1.8907 9.207,-3.1133 15.6679,-3.6446 6.461,-0.5273 13.3907,-0.125 20.8204,1.2422 7.0312,1.2891 13.4062,3.2032 19.0972,5.7657 5.684,2.5468 10.504,5.707 14.481,9.4609 3.945,3.7578 6.785,8.1055 8.508,13.0703 1.711,4.957 2.008,10.5664 0.855,16.8242 -1.461,8.0117 -5.367,14.1641 -11.711,18.4571 -6.336,4.2929 -13.886,7.7539 -22.6482,10.3867 -8.7735,2.637 -18.1992,5.051 -28.3008,7.246 -10.0898,2.195 -19.6172,5.195 -28.6055,8.996 -8.9804,3.82 -16.8398,8.938 -23.5703,15.391 -6.7187,6.437 -11.12889,15.324 -13.20311,26.652 -3.04296,16.613 0.89454,30.711 11.80081,42.305 10.9062,11.582 27.0976,19.351 48.5976,23.281 13.4844,2.473 25.2618,3.719 35.3675,3.758 10.082,0.019 18.824,-0.801 26.215,-2.484 l 9.214,-50.415 -18.765,-3.433 -5.797,31.66 -6.035,6.473 c -3.985,0.879 -9.5745,1.062 -16.7542,0.562 -7.1835,-0.508 -14.1914,-1.383 -21.0312,-2.637 -11.7266,-2.14 -20.4141,-6.515 -26.0781,-13.105 -5.6563,-6.59 -7.586,-14.77 -5.7969,-24.535 1.4609,-8.016 5.3711,-14.219 11.7383,-18.61 6.3476,-4.39 13.9219,-8.007 22.7265,-10.832 8.7969,-2.836 18.2618,-5.402 28.375,-7.683 10.1136,-2.285 19.6366,-5.293 28.6056,-9.004 8.961,-3.711 16.789,-8.691 23.488,-14.934 6.688,-6.25 11.02,-14.7497 12.985,-25.4997 3.48,-18.9531 -1.207,-34.8086 -14.008,-47.543 C 138.031,21.0234 118.91,12.3242 93.5156,7.67969 79.6445,5.14063 67.3477,4.40625 56.6563,5.47266 45.957,6.53906 37.957,8.3125 32.6602,10.7773 l -9.7618,53.3555 18.7618,3.4297 z" /><path
         id="path18"
         
         d="m 257.191,184.137 c -6.136,-0.789 -11.41,-2.375 -15.832,-4.75 -4.414,-2.371 -8.046,-5.84 -10.882,-10.422 -2.817,-4.567 -4.793,-10.371 -5.883,-17.438 -1.114,-7.043 -1.309,-15.636 -0.614,-25.765 l 71.52,9.23 c -0.031,1.809 -0.109,3.637 -0.254,5.528 -0.148,1.882 -0.312,3.613 -0.512,5.183 -1.675,13.012 -5.64,23.02 -11.875,30.027 -6.238,7.008 -14.789,9.813 -25.668,8.407 z M 333.879,68.1328 c -4.195,-7.9609 -10.731,-14.6523 -19.586,-20.1055 -8.855,-5.4492 -19.512,-8.9687 -31.98,-10.5898 -13.067,-1.6719 -24.848,-1.2422 -35.321,1.3164 -10.492,2.5469 -19.558,6.8828 -27.187,13.0117 -7.629,6.1211 -13.817,13.9375 -18.567,23.4532 -4.742,9.4921 -7.902,20.3554 -9.488,32.5742 -3.398,26.395 0.637,47.301 12.145,62.703 11.476,15.41 29.199,24.652 53.136,27.738 7.922,1.02 15.821,1.032 23.688,0.055 7.863,-0.996 15.058,-3.367 21.586,-7.137 6.515,-3.765 12.086,-9.156 16.722,-16.172 4.61,-7.011 7.645,-16.035 9.071,-27.062 0.425,-3.355 0.683,-6.934 0.769,-10.723 0.086,-3.797 0.012,-7.808 -0.262,-12.047 L 224.891,111.766 c 1.125,-8.672 3.277,-16.3988 6.48,-23.1996 3.195,-6.8047 7.461,-12.457 12.801,-16.9805 5.324,-4.5273 11.656,-7.7695 18.984,-9.7226 7.328,-1.961 15.754,-2.3242 25.297,-1.086 7.754,0.9922 14.801,3.1993 21.121,6.629 6.34,3.4179 11.254,7.0585 14.809,10.9257 l 9.496,-10.1992" /><path
         id="path20"
         
         d="m 257.191,184.137 c -6.136,-0.789 -11.41,-2.375 -15.832,-4.75 -4.414,-2.371 -8.046,-5.84 -10.882,-10.422 -2.817,-4.567 -4.793,-10.371 -5.883,-17.438 -1.114,-7.043 -1.309,-15.636 -0.614,-25.765 l 71.52,9.23 c -0.031,1.809 -0.109,3.637 -0.254,5.528 -0.148,1.882 -0.312,3.613 -0.512,5.183 -1.675,13.012 -5.64,23.02 -11.875,30.027 -6.238,7.008 -14.789,9.813 -25.668,8.407 z M 333.879,68.1328 c -4.195,-7.9609 -10.731,-14.6523 -19.586,-20.1055 -8.855,-5.4492 -19.512,-8.9687 -31.98,-10.5898 -13.067,-1.6719 -24.848,-1.2422 -35.321,1.3164 -10.492,2.5469 -19.558,6.8828 -27.187,13.0117 -7.629,6.1211 -13.817,13.9375 -18.567,23.4532 -4.742,9.4921 -7.902,20.3554 -9.488,32.5742 -3.398,26.395 0.637,47.301 12.145,62.703 11.476,15.41 29.199,24.652 53.136,27.738 7.922,1.02 15.821,1.032 23.688,0.055 7.863,-0.996 15.058,-3.367 21.586,-7.137 6.515,-3.765 12.086,-9.156 16.722,-16.172 4.61,-7.011 7.645,-16.035 9.071,-27.062 0.425,-3.355 0.683,-6.934 0.769,-10.723 0.086,-3.797 0.012,-7.808 -0.262,-12.047 L 224.891,111.766 c 1.125,-8.672 3.277,-16.3988 6.48,-23.1996 3.195,-6.8047 7.461,-12.457 12.801,-16.9805 5.324,-4.5273 11.656,-7.7695 18.984,-9.7226 7.328,-1.961 15.754,-2.3242 25.297,-1.086 7.754,0.9922 14.801,3.1993 21.121,6.629 6.34,3.4179 11.254,7.0585 14.809,10.9257 z" /><path
         id="path22"
         
         d="m 427.164,185.754 c -4.355,-2.758 -7.894,-5.852 -10.59,-9.258 -2.715,-3.418 -5.492,-8.23 -8.375,-14.453 l 7.699,-92.3633 25.832,2.1641 1.247,-14.8477 -78.989,-6.5898 -1.242,14.8437 21.977,1.8359 -10.512,126.2111 -21.977,-1.836 -1.242,14.855 53.153,4.422 2.503,-29.984 1.184,0.098 c 2.824,6.82 6.313,12.828 10.457,18.058 4.145,5.231 8.938,9.969 14.363,14.207 l 28.516,2.375 2.215,-26.719 -36.219,-3.019" /><path
         id="path24"
         
         d="m 427.164,185.754 c -4.355,-2.758 -7.894,-5.852 -10.59,-9.258 -2.715,-3.418 -5.492,-8.23 -8.375,-14.453 l 7.699,-92.3633 25.832,2.1641 1.247,-14.8477 -78.989,-6.5898 -1.242,14.8437 21.977,1.8359 -10.512,126.2111 -21.977,-1.836 -1.242,14.855 53.153,4.422 2.503,-29.984 1.184,0.098 c 2.824,6.82 6.313,12.828 10.457,18.058 4.145,5.231 8.938,9.969 14.363,14.207 l 28.516,2.375 2.215,-26.719 z" /><path
         id="path26"
         
         d="m 550.793,63.2773 -62.703,139.1917 -16.965,-0.66 -0.594,14.89 70.274,2.746 0.582,-14.89 -19.949,-0.774 39.656,-92.386 9.051,-32.1489 1.503,0.0547 7.133,32.7852 29.891,95.105 -18.164,-0.711 -0.567,14.887 57.164,2.238 0.583,-14.882 -18.458,-0.727 -46.273,-143.4687 -32.164,-1.25" /><path
         id="path28"
         
         d="m 550.793,63.2773 -62.703,139.1917 -16.965,-0.66 -0.594,14.89 70.274,2.746 0.582,-14.89 -19.949,-0.774 39.656,-92.386 9.051,-32.1489 1.503,0.0547 7.133,32.7852 29.891,95.105 -18.164,-0.711 -0.567,14.887 57.164,2.238 0.583,-14.882 -18.458,-0.727 -46.273,-143.4687 z" /><path
         id="path30"
         
         d="m 736.785,66.1211 -75.383,0.1836 0.032,14.8984 22.058,-0.0508 0.305,126.6447 -22.051,0.051 0.024,14.898 53.347,-0.121 -0.336,-141.5547 22.047,-0.0508 z M 677.391,270.984 c 0.015,5.77 2.054,10.329 6.14,13.704 4.071,3.355 9.301,5.031 15.649,5.019 6.758,-0.016 12.07,-1.719 15.929,-5.105 3.871,-3.387 5.797,-7.961 5.786,-13.711 -0.004,-5.77 -1.95,-10.336 -5.848,-13.707 -3.875,-3.371 -9.203,-5.039 -15.953,-5.024 -6.356,0.012 -11.559,1.715 -15.625,5.098 -4.078,3.394 -6.102,7.969 -6.078,13.726" /><path
         id="path32"
         
         d="m 736.785,66.1211 -75.383,0.1836 0.032,14.8984 22.058,-0.0508 0.305,126.6447 -22.051,0.051 0.024,14.898 53.347,-0.121 -0.336,-141.5547 22.047,-0.0508 z M 677.391,270.984 c 0.015,5.77 2.054,10.329 6.14,13.704 4.071,3.355 9.301,5.031 15.649,5.019 6.758,-0.016 12.07,-1.719 15.929,-5.105 3.871,-3.387 5.797,-7.961 5.786,-13.711 -0.004,-5.77 -1.95,-10.336 -5.848,-13.707 -3.875,-3.371 -9.203,-5.039 -15.953,-5.024 -6.356,0.012 -11.559,1.715 -15.625,5.098 -4.078,3.394 -6.102,7.969 -6.078,13.726 z" /><path
         id="path34"
         
         d="m 891.387,80.7148 c -4.41,-5.582 -11.231,-10.6171 -20.469,-15.1132 -9.238,-4.4883 -20,-6.4844 -32.305,-5.9844 -13.093,0.5469 -24.492,2.9531 -34.148,7.2187 -9.668,4.2774 -17.637,10.0821 -23.887,17.3946 -6.262,7.3125 -10.777,16.0425 -13.547,26.1995 -2.758,10.156 -3.89,21.379 -3.383,33.691 1.09,26.395 8.899,46.262 23.473,59.586 14.563,13.309 33.852,19.477 57.871,18.504 10.91,-0.457 19.926,-1.527 27.012,-3.203 7.094,-1.692 13.547,-4.141 19.383,-7.363 l -1.59,-38.7 -26.793,1.102 1.141,28.035 c -2.907,1.871 -8.864,2.996 -17.836,3.367 -7.579,0.317 -14.293,-0.504 -20.172,-2.441 -5.879,-1.938 -10.91,-5.285 -15.094,-10.063 -4.188,-4.777 -7.465,-11.273 -9.789,-19.48 -2.336,-8.219 -3.75,-18.344 -4.242,-30.402 -0.332,-7.903 0.457,-15.5 2.359,-22.805 1.879,-7.293 4.899,-13.758 9.07,-19.371 4.161,-5.6175 9.5,-10.1331 16.039,-13.5706 6.555,-3.4375 14.297,-5.3242 23.262,-5.7031 4.778,-0.1875 9.016,0.125 12.746,0.9726 3.723,0.836 7.008,1.75 9.832,2.7266 2.832,0.9766 5.371,2.1133 7.621,3.4102 2.25,1.3007 4.403,2.7031 6.461,4.2148 l 6.985,-12.2227" /><path
         id="path36"
         
         d="m 891.387,80.7148 c -4.41,-5.582 -11.231,-10.6171 -20.469,-15.1132 -9.238,-4.4883 -20,-6.4844 -32.305,-5.9844 -13.093,0.5469 -24.492,2.9531 -34.148,7.2187 -9.668,4.2774 -17.637,10.0821 -23.887,17.3946 -6.262,7.3125 -10.777,16.0425 -13.547,26.1995 -2.758,10.156 -3.89,21.379 -3.383,33.691 1.09,26.395 8.899,46.262 23.473,59.586 14.563,13.309 33.852,19.477 57.871,18.504 10.91,-0.457 19.926,-1.527 27.012,-3.203 7.094,-1.692 13.547,-4.141 19.383,-7.363 l -1.59,-38.7 -26.793,1.102 1.141,28.035 c -2.907,1.871 -8.864,2.996 -17.836,3.367 -7.579,0.317 -14.293,-0.504 -20.172,-2.441 -5.879,-1.938 -10.91,-5.285 -15.094,-10.063 -4.188,-4.777 -7.465,-11.273 -9.789,-19.48 -2.336,-8.219 -3.75,-18.344 -4.242,-30.402 -0.332,-7.903 0.457,-15.5 2.359,-22.805 1.879,-7.293 4.899,-13.758 9.07,-19.371 4.161,-5.6175 9.5,-10.1331 16.039,-13.5706 6.555,-3.4375 14.297,-5.3242 23.262,-5.7031 4.778,-0.1875 9.016,0.125 12.746,0.9726 3.723,0.836 7.008,1.75 9.832,2.7266 2.832,0.9766 5.371,2.1133 7.621,3.4102 2.25,1.3007 4.403,2.7031 6.461,4.2148 z" /><path
         id="path38"
         
         d="m 989.234,52.7813 -75.148,6.0234 1.195,14.8437 21.981,-1.7617 10.113,126.2463 -21.98,1.762 1.175,14.855 53.172,-4.262 L 968.449,69.3945 990.43,67.625 Z M 945.875,261.621 c 0.473,5.742 2.855,10.137 7.195,13.18 4.321,3.039 9.653,4.316 15.993,3.804 6.722,-0.542 11.906,-2.644 15.488,-6.32 3.594,-3.68 5.152,-8.39 4.691,-14.133 -0.453,-5.746 -2.746,-10.144 -6.883,-13.203 -4.132,-3.047 -9.578,-4.312 -16.293,-3.773 -6.336,0.512 -11.41,2.605 -15.199,6.301 -3.785,3.695 -5.445,8.41 -4.992,14.144" /><path
         id="path40"
         
         d="m 989.234,52.7813 -75.148,6.0234 1.195,14.8437 21.981,-1.7617 10.113,126.2463 -21.98,1.762 1.175,14.855 53.172,-4.262 L 968.449,69.3945 990.43,67.625 Z M 945.875,261.621 c 0.473,5.742 2.855,10.137 7.195,13.18 4.321,3.039 9.653,4.316 15.993,3.804 6.722,-0.542 11.906,-2.644 15.488,-6.32 3.594,-3.68 5.152,-8.39 4.691,-14.133 -0.453,-5.746 -2.746,-10.144 -6.883,-13.203 -4.132,-3.047 -9.578,-4.312 -16.293,-3.773 -6.336,0.512 -11.41,2.605 -15.199,6.301 -3.785,3.695 -5.445,8.41 -4.992,14.144 z" /><path
         id="path42"
         
         d="m 1055.44,124.645 c -1.18,-9.469 -1.39,-18.356 -0.61,-26.6489 0.78,-8.3125 2.83,-15.668 6.14,-22.0898 3.32,-6.4102 7.98,-11.75 13.99,-15.9961 5.99,-4.2539 13.64,-6.9493 22.95,-8.0977 11.65,-1.4609 21.92,2.6797 30.75,12.3828 8.84,9.7149 14.69,26.1055 17.55,49.1717 1.19,9.465 1.39,18.395 0.62,26.793 -0.77,8.41 -2.7,15.856 -5.8,22.348 -3.13,6.492 -7.48,11.789 -13.09,15.894 -5.63,4.098 -12.79,6.692 -21.48,7.766 -13.07,1.629 -24.12,-2.41 -33.15,-12.098 -9.04,-9.683 -14.99,-26.164 -17.87,-49.425 z m -33.13,4.105 c 1.62,13.02 4.92,24.324 9.9,33.906 4.99,9.59 11.3,17.371 18.93,23.332 7.63,5.957 16.55,10.102 26.73,12.446 10.18,2.336 21.17,2.773 32.99,1.3 13.77,-1.707 25.38,-5.101 34.84,-10.183 9.45,-5.071 16.9,-11.512 22.33,-19.285 5.43,-7.786 9.05,-16.844 10.86,-27.18 1.81,-10.324 1.95,-21.602 0.44,-33.836 -1.61,-13.0078 -4.86,-24.2695 -9.73,-33.7695 -4.88,-9.5039 -11.15,-17.2383 -18.77,-23.1914 -7.62,-5.9571 -16.54,-10.1094 -26.73,-12.4414 -10.16,-2.3477 -21.27,-2.7657 -33.26,-1.2813 -13.38,1.6641 -24.76,5.0313 -34.12,10.0938 -9.37,5.0742 -16.86,11.4961 -22.48,19.3086 -5.63,7.8007 -9.4,16.8242 -11.32,27.0781 -1.94,10.2501 -2.13,21.4801 -0.61,33.7031" /><path
         id="path44"
         
         d="m 1055.44,124.645 c -1.18,-9.469 -1.39,-18.356 -0.61,-26.6489 0.78,-8.3125 2.83,-15.668 6.14,-22.0898 3.32,-6.4102 7.98,-11.75 13.99,-15.9961 5.99,-4.2539 13.64,-6.9493 22.95,-8.0977 11.65,-1.4609 21.92,2.6797 30.75,12.3828 8.84,9.7149 14.69,26.1055 17.55,49.1717 1.19,9.465 1.39,18.395 0.62,26.793 -0.77,8.41 -2.7,15.856 -5.8,22.348 -3.13,6.492 -7.48,11.789 -13.09,15.894 -5.63,4.098 -12.79,6.692 -21.48,7.766 -13.07,1.629 -24.12,-2.41 -33.15,-12.098 -9.04,-9.683 -14.99,-26.164 -17.87,-49.425 z m -33.13,4.105 c 1.62,13.02 4.92,24.324 9.9,33.906 4.99,9.59 11.3,17.371 18.93,23.332 7.63,5.957 16.55,10.102 26.73,12.446 10.18,2.336 21.17,2.773 32.99,1.3 13.77,-1.707 25.38,-5.101 34.84,-10.183 9.45,-5.071 16.9,-11.512 22.33,-19.285 5.43,-7.786 9.05,-16.844 10.86,-27.18 1.81,-10.324 1.95,-21.602 0.44,-33.836 -1.61,-13.0078 -4.86,-24.2695 -9.73,-33.7695 -4.88,-9.5039 -11.15,-17.2383 -18.77,-23.1914 -7.62,-5.9571 -16.54,-10.1094 -26.73,-12.4414 -10.16,-2.3477 -21.27,-2.7657 -33.26,-1.2813 -13.38,1.6641 -24.76,5.0313 -34.12,10.0938 -9.37,5.0742 -16.86,11.4961 -22.48,19.3086 -5.63,7.8007 -9.4,16.8242 -11.32,27.0781 -1.94,10.2501 -2.13,21.4801 -0.61,33.7031 z" /><path
         id="path46"
         
         d="m 1284.5,48.0625 c 0.92,5.2266 -0.23,10.168 -3.45,14.8164 -3.23,4.6602 -7.48,9.1953 -12.74,13.6055 -5.27,4.4219 -11.04,8.9453 -17.27,13.5781 -6.25,4.6211 -11.92,9.6602 -17.01,15.0855 -5.11,5.438 -9.1,11.481 -11.95,18.149 -2.87,6.648 -3.55,14.187 -2.07,22.594 1,5.679 3.27,10.57 6.85,14.691 3.55,4.102 7.93,7.426 13.15,9.934 5.21,2.507 11.12,4.14 17.75,4.89 6.63,0.75 13.48,0.512 20.58,-0.734 5.89,-1.043 11.07,-2.156 15.53,-3.34 4.45,-1.191 8.5,-2.457 12.12,-3.797 3.61,-1.34 7,-2.797 10.18,-4.367 3.17,-1.566 6.43,-3.242 9.77,-5.039 l -6.98,-39.625 -18.78,3.305 4.02,22.75 -4.48,7.324 c -2.43,1.027 -5.09,1.988 -7.96,2.887 -2.86,0.894 -5.96,1.644 -9.28,2.226 -9.39,1.649 -16.7,1.09 -21.92,-1.676 -5.24,-2.769 -8.34,-6.863 -9.28,-12.273 -0.92,-5.215 0.24,-10.102 3.46,-14.66 3.23,-4.551 7.49,-9.039 12.77,-13.453 5.27,-4.418 11.03,-8.891 17.3,-13.414 6.28,-4.5317 11.97,-9.4262 17.09,-14.6606 5.14,-5.2422 9.17,-10.9453 12.13,-17.1016 2.94,-6.1719 3.75,-13.0781 2.41,-20.6992 -1.24,-7.043 -3.96,-13.0156 -8.18,-17.9258 -4.2,-4.914 -9.45,-8.7734 -15.72,-11.6094 -6.29,-2.8242 -13.39,-4.6054 -21.32,-5.3281 -7.94,-0.7226 -16.14,-0.3359 -24.59,1.1563 -9.44,1.6523 -18.42,4.4922 -26.95,8.5195 -8.51,4.0156 -15.03,8.125 -19.56,12.3633 l 6.76,38.4492 18.78,-3.3047 -3.85,-21.9336 4.8,-7.0859 c 2.19,-2.3828 4.97,-4.4453 8.28,-6.2227 3.32,-1.7773 7.82,-3.1562 13.49,-4.1523 9.39,-1.6563 17.46,-1.0821 24.2,1.7265 6.75,2.7969 10.73,7.5782 11.92,14.3516" /><path
         id="path48"
         
         d="m 1284.5,48.0625 c 0.92,5.2266 -0.23,10.168 -3.45,14.8164 -3.23,4.6602 -7.48,9.1953 -12.74,13.6055 -5.27,4.4219 -11.04,8.9453 -17.27,13.5781 -6.25,4.6211 -11.92,9.6602 -17.01,15.0855 -5.11,5.438 -9.1,11.481 -11.95,18.149 -2.87,6.648 -3.55,14.187 -2.07,22.594 1,5.679 3.27,10.57 6.85,14.691 3.55,4.102 7.93,7.426 13.15,9.934 5.21,2.507 11.12,4.14 17.75,4.89 6.63,0.75 13.48,0.512 20.58,-0.734 5.89,-1.043 11.07,-2.156 15.53,-3.34 4.45,-1.191 8.5,-2.457 12.12,-3.797 3.61,-1.34 7,-2.797 10.18,-4.367 3.17,-1.566 6.43,-3.242 9.77,-5.039 l -6.98,-39.625 -18.78,3.305 4.02,22.75 -4.48,7.324 c -2.43,1.027 -5.09,1.988 -7.96,2.887 -2.86,0.894 -5.96,1.644 -9.28,2.226 -9.39,1.649 -16.7,1.09 -21.92,-1.676 -5.24,-2.769 -8.34,-6.863 -9.28,-12.273 -0.92,-5.215 0.24,-10.102 3.46,-14.66 3.23,-4.551 7.49,-9.039 12.77,-13.453 5.27,-4.418 11.03,-8.891 17.3,-13.414 6.28,-4.5317 11.97,-9.4262 17.09,-14.6606 5.14,-5.2422 9.17,-10.9453 12.13,-17.1016 2.94,-6.1719 3.75,-13.0781 2.41,-20.6992 -1.24,-7.043 -3.96,-13.0156 -8.18,-17.9258 -4.2,-4.914 -9.45,-8.7734 -15.72,-11.6094 -6.29,-2.8242 -13.39,-4.6054 -21.32,-5.3281 -7.94,-0.7226 -16.14,-0.3359 -24.59,1.1563 -9.44,1.6523 -18.42,4.4922 -26.95,8.5195 -8.51,4.0156 -15.03,8.125 -19.56,12.3633 l 6.76,38.4492 18.78,-3.3047 -3.85,-21.9336 4.8,-7.0859 c 2.19,-2.3828 4.97,-4.4453 8.28,-6.2227 3.32,-1.7773 7.82,-3.1562 13.49,-4.1523 9.39,-1.6563 17.46,-1.0821 24.2,1.7265 6.75,2.7969 10.73,7.5782 11.92,14.3516 z" /></g></g>
         </svg>