<?xml version="1.0" encoding="UTF-8" standalone="no"?>
<svg
   xmlns:dc="http://purl.org/dc/elements/1.1/"
   xmlns:cc="http://creativecommons.org/ns#"
   xmlns:rdf="http://www.w3.org/1999/02/22-rdf-syntax-ns#"
   xmlns:svg="http://www.w3.org/2000/svg"
   xmlns="http://www.w3.org/2000/svg"
   viewBox="0 0 216.22667 45.613335"
   height="45.613335"
   width="216.22667"
   xml:space="preserve"
   id="telegram"
   version="1.1"><metadata
     id="metadata8"><rdf:RDF><cc:Work
         rdf:about=""><dc:format>image/svg+xml</dc:format><dc:type
           rdf:resource="http://purl.org/dc/dcmitype/StillImage" /></cc:Work></rdf:RDF></metadata><defs
     id="defs6" /><g
     transform="matrix(1.3333333,0,0,-1.3333333,0,45.613333)"
     id="g10"><g
       transform="scale(0.1)"
       id="g12"><path
         id="path14"
         
         d="m 223.313,30.7773 -106.5,-24.77339 -4.368,18.74999 34.489,8.0195 -45.801,196.9216 -59.9494,-13.949 -4.9844,-8.93 10.0469,-43.199 -24.1055,-5.601 -16.13669,69.304 219.02709,50.969 16.121,-69.324 -24.105,-5.61 -10.051,43.2 -8.418,5.808 -59.937,-13.949 45.816,-196.9179 34.496,8.0352 4.36,-18.754" /><path
         id="path16"
         
         d="m 223.313,30.7773 -106.5,-24.77339 -4.368,18.74999 34.489,8.0195 -45.801,196.9216 -59.9494,-13.949 -4.9844,-8.93 10.0469,-43.199 -24.1055,-5.601 -16.13669,69.304 219.02709,50.969 16.121,-69.324 -24.105,-5.61 -10.051,43.2 -8.418,5.808 -59.937,-13.949 45.816,-196.9179 34.496,8.0352 z" /><path
         id="path18"
         
         d="m 332.098,222.078 c -7.035,-1.215 -13.047,-3.293 -18.032,-6.238 -4.98,-2.949 -9.007,-7.129 -12.039,-12.527 -3.047,-5.407 -5.035,-12.204 -5.964,-20.387 -0.93,-8.184 -0.743,-18.098 0.554,-29.742 l 82.004,14.078 c -0.117,2.062 -0.305,4.187 -0.558,6.351 -0.258,2.164 -0.54,4.157 -0.852,5.961 -2.555,14.914 -7.602,26.258 -15.121,34.035 -7.524,7.782 -17.524,10.602 -29.992,8.469 z M 426.07,92.0195 C 421.605,82.6445 414.395,74.6055 404.449,67.9063 394.5,61.1953 382.387,56.625 368.09,54.1719 c -14.977,-2.5781 -28.574,-2.6406 -40.793,-0.2031 -12.207,2.4414 -22.863,7.0078 -31.949,13.707 -9.094,6.6992 -16.598,15.414 -22.528,26.1484 -5.937,10.7108 -10.097,23.0778 -12.504,37.0938 -5.179,30.27 -1.531,54.559 10.973,72.875 12.508,18.305 32.496,29.824 59.945,34.527 9.075,1.547 18.172,1.95 27.293,1.196 9.121,-0.762 17.539,-3.157 25.239,-7.192 7.695,-4.027 14.375,-9.972 20.05,-17.836 5.672,-7.863 9.59,-18.125 11.762,-30.769 0.656,-3.848 1.129,-7.953 1.41,-12.324 0.289,-4.368 0.367,-9.004 0.278,-13.907 L 298.332,137.094 c 1.703,-9.946 4.566,-18.758 8.578,-26.438 4.02,-7.683 9.211,-14.0115 15.57,-18.9607 6.368,-4.9648 13.825,-8.3906 22.348,-10.3008 8.547,-1.9101 18.293,-1.9179 29.235,-0.039 8.886,1.5234 16.902,4.414 24.023,8.6601 7.133,4.2422 12.652,8.6758 16.547,13.3044 L 426.07,92.0195" /><path
         id="path20"
         
         d="m 332.098,222.078 c -7.035,-1.215 -13.047,-3.293 -18.032,-6.238 -4.98,-2.949 -9.007,-7.129 -12.039,-12.527 -3.047,-5.407 -5.035,-12.204 -5.964,-20.387 -0.93,-8.184 -0.743,-18.098 0.554,-29.742 l 82.004,14.078 c -0.117,2.062 -0.305,4.187 -0.558,6.351 -0.258,2.164 -0.54,4.157 -0.852,5.961 -2.555,14.914 -7.602,26.258 -15.121,34.035 -7.524,7.782 -17.524,10.602 -29.992,8.469 z M 426.07,92.0195 C 421.605,82.6445 414.395,74.6055 404.449,67.9063 394.5,61.1953 382.387,56.625 368.09,54.1719 c -14.977,-2.5781 -28.574,-2.6406 -40.793,-0.2031 -12.207,2.4414 -22.863,7.0078 -31.949,13.707 -9.094,6.6992 -16.598,15.414 -22.528,26.1484 -5.937,10.7108 -10.097,23.0778 -12.504,37.0938 -5.179,30.27 -1.531,54.559 10.973,72.875 12.508,18.305 32.496,29.824 59.945,34.527 9.075,1.547 18.172,1.95 27.293,1.196 9.121,-0.762 17.539,-3.157 25.239,-7.192 7.695,-4.027 14.375,-9.972 20.05,-17.836 5.672,-7.863 9.59,-18.125 11.762,-30.769 0.656,-3.848 1.129,-7.953 1.41,-12.324 0.289,-4.368 0.367,-9.004 0.278,-13.907 L 298.332,137.094 c 1.703,-9.946 4.566,-18.758 8.578,-26.438 4.02,-7.683 9.211,-14.0115 15.57,-18.9607 6.368,-4.9648 13.825,-8.3906 22.348,-10.3008 8.547,-1.9101 18.293,-1.9179 29.235,-0.039 8.886,1.5234 16.902,4.414 24.023,8.6601 7.133,4.2422 12.652,8.6758 16.547,13.3044 z" /><path
         id="path22"
         
         d="M 551.332,83.6992 465,73.0273 l -2.109,17.0625 25.242,3.1133 -27.41,221.8089 -29,-3.578 -2.106,17.062 64.832,8.008 29.52,-238.8673 25.258,3.1173 2.105,-17.0548" /><path
         id="path24"
         
         d="M 551.332,83.6992 465,73.0273 l -2.109,17.0625 25.242,3.1133 -27.41,221.8089 -29,-3.578 -2.106,17.062 64.832,8.008 29.52,-238.8673 25.258,3.1173 z" /><path
         id="path26"
         
         d="m 653.137,261.203 c -7.137,-0.449 -13.344,-1.879 -18.582,-4.285 -5.289,-2.41 -9.715,-6.133 -13.309,-11.18 -3.601,-5.058 -6.305,-11.601 -8.078,-19.644 -1.801,-8.031 -2.68,-17.91 -2.625,-29.621 l 83.039,5.293 c 0.094,2.082 0.141,4.207 0.113,6.382 -0.023,2.188 -0.09,4.188 -0.203,6.016 -0.965,15.102 -4.777,26.922 -11.437,35.457 -6.653,8.524 -16.289,12.395 -28.918,11.582 z m 79.66,-139.281 c -5.43,-8.832 -13.457,-16.07 -24.059,-21.684 -10.597,-5.6169 -23.136,-8.8903 -37.605,-9.8083 -15.176,-0.9688 -28.699,0.4062 -40.582,4.1289 -11.887,3.7227 -22.008,9.3944 -30.328,17.0154 -8.325,7.621 -14.868,17.074 -19.641,28.371 -4.742,11.301 -7.578,24.039 -8.488,38.227 -1.942,30.652 4.258,54.414 18.633,71.297 14.378,16.883 35.468,26.203 63.269,27.992 9.188,0.574 18.277,0.004 27.266,-1.711 8.992,-1.727 17.101,-5 24.336,-9.82 7.222,-4.825 13.238,-11.442 18.035,-19.864 4.816,-8.425 7.629,-19.039 8.437,-31.851 0.239,-3.895 0.282,-8.024 0.102,-12.399 -0.18,-4.371 -0.594,-8.984 -1.199,-13.855 l -120.426,-7.688 c 0.648,-10.066 2.555,-19.125 5.738,-27.191 3.176,-8.066 7.668,-14.894 13.461,-20.504 5.809,-5.598 12.856,-9.801 21.145,-12.605 8.3,-2.797 17.976,-3.844 29.05,-3.145 9,0.586 17.266,2.594 24.821,6.067 7.535,3.468 13.488,7.289 17.859,11.476 l 10.176,-12.449" /><path
         id="path28"
         
         d="m 653.137,261.203 c -7.137,-0.449 -13.344,-1.879 -18.582,-4.285 -5.289,-2.41 -9.715,-6.133 -13.309,-11.18 -3.601,-5.058 -6.305,-11.601 -8.078,-19.644 -1.801,-8.031 -2.68,-17.91 -2.625,-29.621 l 83.039,5.293 c 0.094,2.082 0.141,4.207 0.113,6.382 -0.023,2.188 -0.09,4.188 -0.203,6.016 -0.965,15.102 -4.777,26.922 -11.437,35.457 -6.653,8.524 -16.289,12.395 -28.918,11.582 z m 79.66,-139.281 c -5.43,-8.832 -13.457,-16.07 -24.059,-21.684 -10.597,-5.6169 -23.136,-8.8903 -37.605,-9.8083 -15.176,-0.9688 -28.699,0.4062 -40.582,4.1289 -11.887,3.7227 -22.008,9.3944 -30.328,17.0154 -8.325,7.621 -14.868,17.074 -19.641,28.371 -4.742,11.301 -7.578,24.039 -8.488,38.227 -1.942,30.652 4.258,54.414 18.633,71.297 14.378,16.883 35.468,26.203 63.269,27.992 9.188,0.574 18.277,0.004 27.266,-1.711 8.992,-1.727 17.101,-5 24.336,-9.82 7.222,-4.825 13.238,-11.442 18.035,-19.864 4.816,-8.425 7.629,-19.039 8.437,-31.851 0.239,-3.895 0.282,-8.024 0.102,-12.399 -0.18,-4.371 -0.594,-8.984 -1.199,-13.855 l -120.426,-7.688 c 0.648,-10.066 2.555,-19.125 5.738,-27.191 3.176,-8.066 7.668,-14.894 13.461,-20.504 5.809,-5.598 12.856,-9.801 21.145,-12.605 8.3,-2.797 17.976,-3.844 29.05,-3.145 9,0.586 17.266,2.594 24.821,6.067 7.535,3.468 13.488,7.289 17.859,11.476 z" /><path
         id="path30"
         
         d="m 805.527,226.961 c 0.106,-5.969 0.883,-11.449 2.336,-16.469 1.453,-5.019 3.766,-9.273 6.918,-12.777 3.153,-3.512 7.391,-6.238 12.688,-8.215 5.316,-1.969 11.969,-2.895 19.996,-2.758 14.656,0.238 25.137,4.137 31.433,11.699 6.29,7.547 9.34,17.528 9.137,29.899 -0.086,4.82 -0.32,8.816 -0.719,12.023 -0.402,3.203 -0.902,6.055 -1.515,8.578 -0.617,2.508 -1.278,4.727 -2,6.672 -0.731,1.93 -1.446,3.934 -2.172,5.981 -5.305,2.195 -10.949,3.652 -16.926,4.355 -5.976,0.699 -12.164,1 -18.578,0.895 -15.594,-0.262 -26.309,-3.66 -32.152,-10.164 -5.86,-6.52 -8.68,-16.426 -8.446,-29.719 z M 905.68,78.0117 c -0.125,7.5664 -2.926,13.5313 -8.379,17.918 -5.473,4.3833 -12.297,7.9293 -20.473,10.6643 -8.183,2.726 -16.976,4.926 -26.418,6.609 -9.422,1.672 -18.281,3.699 -26.574,6.09 -9.535,-5.902 -15.801,-11.793 -18.797,-17.684 -2.992,-5.8981 -4.434,-12.1637 -4.324,-18.8121 0.156,-9.6289 5.105,-17.5703 14.84,-23.8281 9.73,-6.2461 23.769,-9.2305 42.105,-8.9219 9.403,0.1562 17.172,1.0312 23.336,2.6289 6.176,1.5937 11.117,3.6758 14.856,6.2578 3.742,2.5898 6.32,5.4961 7.777,8.7305 1.414,3.2343 2.113,6.6875 2.051,10.3476 z m 44.679,206.7383 0.368,-22.008 -40.215,-0.664 c 3.258,-3.164 6.312,-7.578 9.164,-13.258 2.844,-5.683 4.34,-12.539 4.469,-20.566 0.277,-16.961 -6.141,-30.703 -19.258,-41.246 -13.129,-10.528 -32.18,-16.008 -57.153,-16.43 -4.582,-0.07 -8.484,-0.082 -11.691,-0.019 -3.219,0.054 -6.648,0.519 -10.344,1.367 -1.109,-2.305 -2.496,-4.797 -4.168,-7.457 -1.676,-2.668 -2.488,-5.492 -2.449,-8.461 0.086,-4.813 3.133,-8.379 9.129,-10.688 6,-2.304 13.484,-4.359 22.445,-6.156 8.985,-1.793 18.754,-3.59 29.328,-5.351 10.575,-1.774 20.418,-4.477 29.536,-8.102 9.125,-3.625 16.703,-8.488 22.773,-14.578 6.066,-6.086 9.18,-14.176 9.352,-24.2619 0.14,-8.7109 -1.965,-16.3633 -6.321,-22.9688 C 930.969,57.293 924.738,51.8008 916.68,47.418 908.613,43.043 898.977,39.7344 887.797,37.4805 876.59,35.2266 864.344,33.9961 851.055,33.7734 822.406,33.293 800.918,36.7227 786.59,44.0391 c -14.356,7.332 -21.629,17.6406 -21.856,30.9375 -0.218,12.8281 3.977,22.7617 12.571,29.7774 8.59,7.023 20.761,12.949 36.508,17.801 -6.016,2.422 -10.872,5.093 -14.586,8.019 -3.719,2.91 -5.629,7.344 -5.723,13.313 -0.051,2.75 0.59,5.558 1.918,8.457 1.32,2.883 3.109,5.66 5.359,8.336 2.254,2.672 4.731,5.125 7.453,7.347 2.711,2.231 5.309,4.047 7.809,5.461 -14.727,3.657 -26.121,10.11 -34.203,19.379 -8.047,9.254 -12.195,20.43 -12.418,33.492 -0.277,16.727 6.031,30.246 18.926,40.547 12.89,10.309 32.07,15.676 57.5,16.09 l 104.511,1.754" /><path
         id="path32"
         
         d="m 805.527,226.961 c 0.106,-5.969 0.883,-11.449 2.336,-16.469 1.453,-5.019 3.766,-9.273 6.918,-12.777 3.153,-3.512 7.391,-6.238 12.688,-8.215 5.316,-1.969 11.969,-2.895 19.996,-2.758 14.656,0.238 25.137,4.137 31.433,11.699 6.29,7.547 9.34,17.528 9.137,29.899 -0.086,4.82 -0.32,8.816 -0.719,12.023 -0.402,3.203 -0.902,6.055 -1.515,8.578 -0.617,2.508 -1.278,4.727 -2,6.672 -0.731,1.93 -1.446,3.934 -2.172,5.981 -5.305,2.195 -10.949,3.652 -16.926,4.355 -5.976,0.699 -12.164,1 -18.578,0.895 -15.594,-0.262 -26.309,-3.66 -32.152,-10.164 -5.86,-6.52 -8.68,-16.426 -8.446,-29.719 z M 905.68,78.0117 c -0.125,7.5664 -2.926,13.5313 -8.379,17.918 -5.473,4.3833 -12.297,7.9293 -20.473,10.6643 -8.183,2.726 -16.976,4.926 -26.418,6.609 -9.422,1.672 -18.281,3.699 -26.574,6.09 -9.535,-5.902 -15.801,-11.793 -18.797,-17.684 -2.992,-5.8981 -4.434,-12.1637 -4.324,-18.8121 0.156,-9.6289 5.105,-17.5703 14.84,-23.8281 9.73,-6.2461 23.769,-9.2305 42.105,-8.9219 9.403,0.1562 17.172,1.0312 23.336,2.6289 6.176,1.5937 11.117,3.6758 14.856,6.2578 3.742,2.5898 6.32,5.4961 7.777,8.7305 1.414,3.2343 2.113,6.6875 2.051,10.3476 z m 44.679,206.7383 0.368,-22.008 -40.215,-0.664 c 3.258,-3.164 6.312,-7.578 9.164,-13.258 2.844,-5.683 4.34,-12.539 4.469,-20.566 0.277,-16.961 -6.141,-30.703 -19.258,-41.246 -13.129,-10.528 -32.18,-16.008 -57.153,-16.43 -4.582,-0.07 -8.484,-0.082 -11.691,-0.019 -3.219,0.054 -6.648,0.519 -10.344,1.367 -1.109,-2.305 -2.496,-4.797 -4.168,-7.457 -1.676,-2.668 -2.488,-5.492 -2.449,-8.461 0.086,-4.813 3.133,-8.379 9.129,-10.688 6,-2.304 13.484,-4.359 22.445,-6.156 8.985,-1.793 18.754,-3.59 29.328,-5.351 10.575,-1.774 20.418,-4.477 29.536,-8.102 9.125,-3.625 16.703,-8.488 22.773,-14.578 6.066,-6.086 9.18,-14.176 9.352,-24.2619 0.14,-8.7109 -1.965,-16.3633 -6.321,-22.9688 C 930.969,57.293 924.738,51.8008 916.68,47.418 908.613,43.043 898.977,39.7344 887.797,37.4805 876.59,35.2266 864.344,33.9961 851.055,33.7734 822.406,33.293 800.918,36.7227 786.59,44.0391 c -14.356,7.332 -21.629,17.6406 -21.856,30.9375 -0.218,12.8281 3.977,22.7617 12.571,29.7774 8.59,7.023 20.761,12.949 36.508,17.801 -6.016,2.422 -10.872,5.093 -14.586,8.019 -3.719,2.91 -5.629,7.344 -5.723,13.313 -0.051,2.75 0.59,5.558 1.918,8.457 1.32,2.883 3.109,5.66 5.359,8.336 2.254,2.672 4.731,5.125 7.453,7.347 2.711,2.231 5.309,4.047 7.809,5.461 -14.727,3.657 -26.121,10.11 -34.203,19.379 -8.047,9.254 -12.195,20.43 -12.418,33.492 -0.277,16.727 6.031,30.246 18.926,40.547 12.89,10.309 32.07,15.676 57.5,16.09 z" /><path
         id="path34"
         
         d="m 1056.72,249.531 c -5.38,-2.566 -9.83,-5.609 -13.42,-9.152 -3.57,-3.543 -7.42,-8.672 -11.57,-15.402 l -3.91,-106.86 29.9,-1.097 -0.63,-17.1841 -91.395,3.3551 0.625,17.18 25.422,-0.941 5.352,146.039 -25.43,0.926 0.617,17.175 61.519,-2.238 -1.27,-34.711 1.38,-0.043 c 4.16,7.41 8.98,13.824 14.46,19.25 5.47,5.422 11.6,10.192 18.41,14.297 l 32.98,-1.207 -1.13,-30.926 -41.91,1.539" /><path
         id="path36"
         
         d="m 1056.72,249.531 c -5.38,-2.566 -9.83,-5.609 -13.42,-9.152 -3.57,-3.543 -7.42,-8.672 -11.57,-15.402 l -3.91,-106.86 29.9,-1.097 -0.63,-17.1841 -91.395,3.3551 0.625,17.18 25.422,-0.941 5.352,146.039 -25.43,0.926 0.617,17.175 61.519,-2.238 -1.27,-34.711 1.38,-0.043 c 4.16,7.41 8.98,13.824 14.46,19.25 5.47,5.422 11.6,10.192 18.41,14.297 l 32.98,-1.207 -1.13,-30.926 z" /><path
         id="path38"
         
         d="m 1185.04,110.68 c 5.46,-0.485 10.45,-0.071 14.94,1.254 4.49,1.324 8.51,3.156 12.06,5.488 3.53,2.32 6.65,4.98 9.35,7.965 2.67,2.976 4.94,5.879 6.81,8.711 l 3.64,40.761 c -14.84,1.321 -26.97,1.418 -36.4,0.313 -9.41,-1.117 -16.9,-3.039 -22.43,-5.774 -5.54,-2.726 -9.47,-6.23 -11.82,-10.507 -2.32,-4.27 -3.73,-8.938 -4.16,-13.953 -0.93,-10.274 1.13,-18.34 6.1,-24.192 5.02,-5.863 12.31,-9.223 21.91,-10.066 z m 78.22,21.672 c -0.48,-5.254 -0.85,-10.571 -1.08,-15.95 -0.26,-5.39 -0.34,-10.281 -0.27,-14.656 l 22.95,-2.039 -1.54,-17.1328 -54.73,4.8906 -0.59,32.8402 -1.71,0.152 c -1.55,-4.465 -4.05,-8.723 -7.52,-12.785 -3.48,-4.067 -7.71,-7.602 -12.69,-10.6134 -4.99,-3 -10.77,-5.25 -17.34,-6.7344 -6.59,-1.4844 -13.74,-1.875 -21.51,-1.1836 -7.76,0.6953 -14.8,2.4727 -21.1,5.3282 -6.3,2.8671 -11.67,6.5742 -16.11,11.1092 -4.41,4.531 -7.69,9.832 -9.79,15.887 -2.1,6.062 -2.84,12.738 -2.18,20.047 1,11.183 4.16,20.215 9.5,27.109 5.33,6.895 12.75,12.035 22.26,15.449 9.5,3.407 21.19,5.418 35.05,6.02 13.87,0.609 29.94,0.203 48.23,-1.195 0.77,3.57 1.3,7.003 1.61,10.277 0.28,3.269 0.58,6.492 0.86,9.648 1.25,14.004 -0.2,24.891 -4.34,32.664 -4.15,7.766 -12.38,12.196 -24.71,13.297 -4.57,0.403 -9.49,0.625 -14.78,0.641 -5.29,0.023 -10.22,-0.899 -14.74,-2.746 l -2.75,-30.91 -30.83,2.746 3.39,38.019 c 8.65,3.598 18.75,6.614 30.31,9.032 11.54,2.417 24.89,2.957 40.05,1.605 13.07,-1.168 23.43,-3.762 31.06,-7.781 7.62,-4.02 13.31,-8.895 17.09,-14.637 3.76,-5.75 5.98,-12.043 6.64,-18.887 0.65,-6.855 0.7,-13.586 0.11,-20.203 -1.29,-14.387 -2.81,-28.121 -4.54,-41.195 -1.75,-13.078 -3.16,-25.785 -4.26,-38.113" /><path
         id="path40"
         
         d="m 1185.04,110.68 c 5.46,-0.485 10.45,-0.071 14.94,1.254 4.49,1.324 8.51,3.156 12.06,5.488 3.53,2.32 6.65,4.98 9.35,7.965 2.67,2.976 4.94,5.879 6.81,8.711 l 3.64,40.761 c -14.84,1.321 -26.97,1.418 -36.4,0.313 -9.41,-1.117 -16.9,-3.039 -22.43,-5.774 -5.54,-2.726 -9.47,-6.23 -11.82,-10.507 -2.32,-4.27 -3.73,-8.938 -4.16,-13.953 -0.93,-10.274 1.13,-18.34 6.1,-24.192 5.02,-5.863 12.31,-9.223 21.91,-10.066 z m 78.22,21.672 c -0.48,-5.254 -0.85,-10.571 -1.08,-15.95 -0.26,-5.39 -0.34,-10.281 -0.27,-14.656 l 22.95,-2.039 -1.54,-17.1328 -54.73,4.8906 -0.59,32.8402 -1.71,0.152 c -1.55,-4.465 -4.05,-8.723 -7.52,-12.785 -3.48,-4.067 -7.71,-7.602 -12.69,-10.6134 -4.99,-3 -10.77,-5.25 -17.34,-6.7344 -6.59,-1.4844 -13.74,-1.875 -21.51,-1.1836 -7.76,0.6953 -14.8,2.4727 -21.1,5.3282 -6.3,2.8671 -11.67,6.5742 -16.11,11.1092 -4.41,4.531 -7.69,9.832 -9.79,15.887 -2.1,6.062 -2.84,12.738 -2.18,20.047 1,11.183 4.16,20.215 9.5,27.109 5.33,6.895 12.75,12.035 22.26,15.449 9.5,3.407 21.19,5.418 35.05,6.02 13.87,0.609 29.94,0.203 48.23,-1.195 0.77,3.57 1.3,7.003 1.61,10.277 0.28,3.269 0.58,6.492 0.86,9.648 1.25,14.004 -0.2,24.891 -4.34,32.664 -4.15,7.766 -12.38,12.196 -24.71,13.297 -4.57,0.403 -9.49,0.625 -14.78,0.641 -5.29,0.023 -10.22,-0.899 -14.74,-2.746 l -2.75,-30.91 -30.83,2.746 3.39,38.019 c 8.65,3.598 18.75,6.614 30.31,9.032 11.54,2.417 24.89,2.957 40.05,1.605 13.07,-1.168 23.43,-3.762 31.06,-7.781 7.62,-4.02 13.31,-8.895 17.09,-14.637 3.76,-5.75 5.98,-12.043 6.64,-18.887 0.65,-6.855 0.7,-13.586 0.11,-20.203 -1.29,-14.387 -2.81,-28.121 -4.54,-41.195 -1.75,-13.078 -3.16,-25.785 -4.26,-38.113 z" /><path
         id="path42"
         
         d="m 1498.83,49.1563 -81.67,14.0234 2.91,16.9453 22.37,-3.8437 14.13,82.3437 c 1.63,9.492 2.69,18.035 3.18,25.625 0.49,7.59 -0.03,14.07 -1.54,19.449 -1.52,5.379 -4.31,9.754 -8.39,13.137 -4.07,3.363 -9.72,5.68 -16.95,6.91 -5.43,0.942 -10.56,0.828 -15.41,-0.312 -4.84,-1.149 -9.37,-3.102 -13.57,-5.871 -4.19,-2.766 -7.96,-6.137 -11.31,-10.09 -3.37,-3.965 -6.26,-8.297 -8.69,-12.985 l -18.04,-105.0505 22.36,-3.8477 -2.9,-16.9453 -83.03,14.2539 2.91,16.9493 25.08,-4.3047 24.73,144.027 -25.08,4.301 2.91,16.945 60.66,-10.418 -6.18,-35.925 0.35,-0.051 c 5.74,10.406 14.17,18.551 25.3,24.437 11.12,5.875 23.82,7.598 38.04,5.149 5.87,-1.004 11.59,-2.57 17.16,-4.684 5.58,-2.121 10.45,-5.168 14.66,-9.148 4.19,-3.985 7.56,-9.035 10.13,-15.168 2.55,-6.137 3.72,-13.84 3.52,-23.113 3.23,5.261 7.17,10.171 11.78,14.734 4.61,4.551 9.8,8.363 15.57,11.449 5.76,3.086 12.01,5.266 18.74,6.551 6.74,1.281 13.83,1.285 21.29,0.016 9.26,-1.602 17.14,-4.118 23.65,-7.559 6.49,-3.441 11.58,-8.332 15.27,-14.66 3.67,-6.328 5.82,-14.488 6.43,-24.477 0.61,-9.996 -0.35,-22.445 -2.91,-37.351 l -15.43,-89.8011 25.08,-4.3125 -2.91,-16.9336 -83.02,14.2539 2.91,16.9375 22.36,-3.8281 15.25,88.7809 c 1.43,8.356 2.26,15.942 2.51,22.766 0.24,6.812 -0.5,12.648 -2.23,17.477 -1.73,4.839 -4.66,8.824 -8.76,11.972 -4.12,3.153 -9.89,5.367 -17.35,6.641 -11.98,2.051 -21.93,-0.016 -29.84,-6.215 -7.93,-6.199 -14.4,-15.035 -19.39,-26.504 l -17.45,-101.6562 23.72,-4.082 -2.91,-16.9375" /><path
         id="path44"
         
         d="m 1498.83,49.1563 -81.67,14.0234 2.91,16.9453 22.37,-3.8437 14.13,82.3437 c 1.63,9.492 2.69,18.035 3.18,25.625 0.49,7.59 -0.03,14.07 -1.54,19.449 -1.52,5.379 -4.31,9.754 -8.39,13.137 -4.07,3.363 -9.72,5.68 -16.95,6.91 -5.43,0.942 -10.56,0.828 -15.41,-0.312 -4.84,-1.149 -9.37,-3.102 -13.57,-5.871 -4.19,-2.766 -7.96,-6.137 -11.31,-10.09 -3.37,-3.965 -6.26,-8.297 -8.69,-12.985 l -18.04,-105.0505 22.36,-3.8477 -2.9,-16.9453 -83.03,14.2539 2.91,16.9493 25.08,-4.3047 24.73,144.027 -25.08,4.301 2.91,16.945 60.66,-10.418 -6.18,-35.925 0.35,-0.051 c 5.74,10.406 14.17,18.551 25.3,24.437 11.12,5.875 23.82,7.598 38.04,5.149 5.87,-1.004 11.59,-2.57 17.16,-4.684 5.58,-2.121 10.45,-5.168 14.66,-9.148 4.19,-3.985 7.56,-9.035 10.13,-15.168 2.55,-6.137 3.72,-13.84 3.52,-23.113 3.23,5.261 7.17,10.171 11.78,14.734 4.61,4.551 9.8,8.363 15.57,11.449 5.76,3.086 12.01,5.266 18.74,6.551 6.74,1.281 13.83,1.285 21.29,0.016 9.26,-1.602 17.14,-4.118 23.65,-7.559 6.49,-3.441 11.58,-8.332 15.27,-14.66 3.67,-6.328 5.82,-14.488 6.43,-24.477 0.61,-9.996 -0.35,-22.445 -2.91,-37.351 l -15.43,-89.8011 25.08,-4.3125 -2.91,-16.9336 -83.02,14.2539 2.91,16.9375 22.36,-3.8281 15.25,88.7809 c 1.43,8.356 2.26,15.942 2.51,22.766 0.24,6.812 -0.5,12.648 -2.23,17.477 -1.73,4.839 -4.66,8.824 -8.76,11.972 -4.12,3.153 -9.89,5.367 -17.35,6.641 -11.98,2.051 -21.93,-0.016 -29.84,-6.215 -7.93,-6.199 -14.4,-15.035 -19.39,-26.504 l -17.45,-101.6562 23.72,-4.082 z" /></g></g>
         </svg>