<?xml version="1.0" encoding="UTF-8" standalone="no"?>
<svg
   xmlns:dc="http://purl.org/dc/elements/1.1/"
   xmlns:cc="http://creativecommons.org/ns#"
   xmlns:rdf="http://www.w3.org/1999/02/22-rdf-syntax-ns#"
   xmlns:svg="http://www.w3.org/2000/svg"
   xmlns="http://www.w3.org/2000/svg"
   viewBox="0 0 279 52.599998"
   height="52.599998"
   width="279"
   xml:space="preserve"
   id="svg2"
   version="1.1"><metadata
     id="metadata8"><rdf:RDF><cc:Work
         rdf:about=""><dc:format>image/svg+xml</dc:format><dc:type
           rdf:resource="http://purl.org/dc/dcmitype/StillImage" /></cc:Work></rdf:RDF></metadata><defs
     id="defs6" /><g
     transform="matrix(1.3333333,0,0,-1.3333333,0,52.6)"
     id="g10"><g
       transform="scale(0.1)"
       id="g12"><path
         id="path14"
         
         d="m 122.633,112.129 -105.4846,28.824 5.0899,18.578 34.1523,-9.336 53.3204,195.02 -59.3712,16.226 -8.625,-5.488 -11.7031,-42.789 -23.87107,6.539 18.75777,68.645 216.9106,-59.289 -18.766,-68.653 -23.879,6.528 11.703,42.785 -4.644,9.113 -59.371,16.231 -53.309,-195.024 34.172,-9.34 -5.082,-18.57" /><path
         id="path16"
         
         d="m 122.633,112.129 -105.4846,28.824 5.0899,18.578 34.1523,-9.336 53.3204,195.02 -59.3712,16.226 -8.625,-5.488 -11.7031,-42.789 -23.87107,6.539 18.75777,68.645 216.9106,-59.289 -18.766,-68.653 -23.879,6.528 11.703,42.785 -4.644,9.113 -59.371,16.231 -53.309,-195.024 34.172,-9.34 z" /><path
         id="path18"
         
         d="m 305.477,242.277 c -6.989,1.461 -13.34,1.754 -19.043,0.848 -5.731,-0.902 -11.004,-3.309 -15.817,-7.211 -4.824,-3.906 -9.176,-9.48 -13.054,-16.758 -3.879,-7.258 -7.36,-16.539 -10.461,-27.843 l 81.425,-17.141 c 0.657,1.969 1.258,4.008 1.817,6.113 0.566,2.11 1.035,4.051 1.414,5.856 3.121,14.804 2.617,27.207 -1.512,37.214 -4.125,10.004 -12.383,16.309 -24.769,18.922 z M 344.91,86.7422 c -7.605,-7.0625 -17.262,-11.8828 -28.988,-14.4609 -11.719,-2.5586 -24.66,-2.3516 -38.852,0.6406 -14.879,3.1289 -27.543,8.0859 -38.007,14.8476 -10.446,6.7735 -18.668,14.9335 -24.653,24.5195 -5.988,9.574 -9.754,20.441 -11.312,32.606 -1.555,12.144 -0.871,25.179 2.058,39.093 6.332,30.051 18.676,51.282 37.055,63.7 18.383,12.414 41.195,15.746 68.453,10.011 9.016,-1.898 17.617,-4.883 25.813,-8.949 8.211,-4.066 15.144,-9.402 20.812,-15.98 5.668,-6.594 9.699,-14.582 12.063,-23.981 2.375,-9.398 2.234,-20.394 -0.407,-32.934 -0.8,-3.82 -1.879,-7.82 -3.23,-11.968 -1.348,-4.176 -2.969,-8.524 -4.867,-13.039 l -118.082,24.863 c -2.078,-9.867 -2.668,-19.106 -1.758,-27.727 0.89,-8.632 3.39,-16.41 7.492,-23.367 4.074,-6.957 9.734,-12.894 16.984,-17.812 7.235,-4.918 16.278,-8.5316 27.153,-10.805 8.808,-1.8672 17.324,-2.1289 25.519,-0.8125 8.188,1.3125 14.957,3.4102 20.285,6.2695 l 6.469,-14.7148" /><path
         id="path20"
         
         d="m 305.477,242.277 c -6.989,1.461 -13.34,1.754 -19.043,0.848 -5.731,-0.902 -11.004,-3.309 -15.817,-7.211 -4.824,-3.906 -9.176,-9.48 -13.054,-16.758 -3.879,-7.258 -7.36,-16.539 -10.461,-27.843 l 81.425,-17.141 c 0.657,1.969 1.258,4.008 1.817,6.113 0.566,2.11 1.035,4.051 1.414,5.856 3.121,14.804 2.617,27.207 -1.512,37.214 -4.125,10.004 -12.383,16.309 -24.769,18.922 z M 344.91,86.7422 c -7.605,-7.0625 -17.262,-11.8828 -28.988,-14.4609 -11.719,-2.5586 -24.66,-2.3516 -38.852,0.6406 -14.879,3.1289 -27.543,8.0859 -38.007,14.8476 -10.446,6.7735 -18.668,14.9335 -24.653,24.5195 -5.988,9.574 -9.754,20.441 -11.312,32.606 -1.555,12.144 -0.871,25.179 2.058,39.093 6.332,30.051 18.676,51.282 37.055,63.7 18.383,12.414 41.195,15.746 68.453,10.011 9.016,-1.898 17.617,-4.883 25.813,-8.949 8.211,-4.066 15.144,-9.402 20.812,-15.98 5.668,-6.594 9.699,-14.582 12.063,-23.981 2.375,-9.398 2.234,-20.394 -0.407,-32.934 -0.8,-3.82 -1.879,-7.82 -3.23,-11.968 -1.348,-4.176 -2.969,-8.524 -4.867,-13.039 l -118.082,24.863 c -2.078,-9.867 -2.668,-19.106 -1.758,-27.727 0.89,-8.632 3.39,-16.41 7.492,-23.367 4.074,-6.957 9.734,-12.894 16.984,-17.812 7.235,-4.918 16.278,-8.5316 27.153,-10.805 8.808,-1.8672 17.324,-2.1289 25.519,-0.8125 8.188,1.3125 14.957,3.4102 20.285,6.2695 z" /><path
         id="path22"
         
         d="m 488.965,81.3594 c 0.918,6.0469 -0.531,11.7265 -4.352,17.0117 -3.836,5.2849 -8.843,10.4099 -15.039,15.3749 -6.183,4.965 -12.945,10.035 -20.269,15.215 -7.325,5.184 -13.996,10.848 -20,16.992 -6.02,6.133 -10.754,13.012 -14.227,20.617 -3.473,7.606 -4.461,16.282 -2.965,26.024 1.008,6.57 3.508,12.277 7.528,17.105 4,4.84 8.984,8.77 14.933,11.797 5.942,3.039 12.719,5.059 20.352,6.094 7.617,1.039 15.531,0.918 23.746,-0.332 6.828,-1.051 12.832,-2.207 18.016,-3.465 5.16,-1.258 9.843,-2.625 14.07,-4.07 4.199,-1.461 8.148,-3.059 11.847,-4.774 3.708,-1.742 7.5,-3.597 11.403,-5.586 l -7.043,-45.879 -21.754,3.348 4.039,26.34 -5.32,8.328 c -2.856,1.121 -5.946,2.16 -9.266,3.129 -3.328,0.976 -6.922,1.75 -10.777,2.34 -10.867,1.664 -19.285,0.84 -25.246,-2.477 -5.965,-3.332 -9.426,-8.125 -10.383,-14.394 -0.934,-6.043 0.515,-11.653 4.367,-16.825 3.848,-5.164 8.875,-10.242 15.055,-15.203 6.207,-4.965 12.965,-9.968 20.312,-15.047 7.332,-5.062 14.035,-10.546 20.074,-16.476 6.055,-5.914 10.852,-12.387 14.422,-19.426 3.551,-7.043 4.649,-14.9726 3.293,-23.8124 -1.246,-8.1641 -4.25,-15.125 -8.98,-20.8828 -4.735,-5.7774 -10.688,-10.3672 -17.848,-13.7852 -7.172,-3.4218 -15.32,-5.6523 -24.457,-6.6836 -9.141,-1.0234 -18.605,-0.789 -28.391,0.7149 -10.929,1.6797 -21.371,4.7226 -31.296,9.1445 -9.93,4.4219 -17.559,9.0156 -22.891,13.7813 l 6.84,44.5153 21.75,-3.34 -3.899,-25.3863 5.715,-8.0742 c 2.598,-2.6719 5.844,-4.9922 9.715,-6.957 3.871,-1.961 9.09,-3.4492 15.668,-4.4571 10.871,-1.6718 20.168,-0.8046 27.879,2.5938 7.703,3.4101 12.168,9.0273 13.379,16.8672" /><path
         id="path24"
         
         d="m 488.965,81.3594 c 0.918,6.0469 -0.531,11.7265 -4.352,17.0117 -3.836,5.2849 -8.843,10.4099 -15.039,15.3749 -6.183,4.965 -12.945,10.035 -20.269,15.215 -7.325,5.184 -13.996,10.848 -20,16.992 -6.02,6.133 -10.754,13.012 -14.227,20.617 -3.473,7.606 -4.461,16.282 -2.965,26.024 1.008,6.57 3.508,12.277 7.528,17.105 4,4.84 8.984,8.77 14.933,11.797 5.942,3.039 12.719,5.059 20.352,6.094 7.617,1.039 15.531,0.918 23.746,-0.332 6.828,-1.051 12.832,-2.207 18.016,-3.465 5.16,-1.258 9.843,-2.625 14.07,-4.07 4.199,-1.461 8.148,-3.059 11.847,-4.774 3.708,-1.742 7.5,-3.597 11.403,-5.586 l -7.043,-45.879 -21.754,3.348 4.039,26.34 -5.32,8.328 c -2.856,1.121 -5.946,2.16 -9.266,3.129 -3.328,0.976 -6.922,1.75 -10.777,2.34 -10.867,1.664 -19.285,0.84 -25.246,-2.477 -5.965,-3.332 -9.426,-8.125 -10.383,-14.394 -0.934,-6.043 0.515,-11.653 4.367,-16.825 3.848,-5.164 8.875,-10.242 15.055,-15.203 6.207,-4.965 12.965,-9.968 20.312,-15.047 7.332,-5.062 14.035,-10.546 20.074,-16.476 6.055,-5.914 10.852,-12.387 14.422,-19.426 3.551,-7.043 4.649,-14.9726 3.293,-23.8124 -1.246,-8.1641 -4.25,-15.125 -8.98,-20.8828 -4.735,-5.7774 -10.688,-10.3672 -17.848,-13.7852 -7.172,-3.4218 -15.32,-5.6523 -24.457,-6.6836 -9.141,-1.0234 -18.605,-0.789 -28.391,0.7149 -10.929,1.6797 -21.371,4.7226 -31.296,9.1445 -9.93,4.4219 -17.559,9.0156 -22.891,13.7813 l 6.84,44.5153 21.75,-3.34 -3.899,-25.3863 5.715,-8.0742 c 2.598,-2.6719 5.844,-4.9922 9.715,-6.957 3.871,-1.961 9.09,-3.4492 15.668,-4.4571 10.871,-1.6718 20.168,-0.8046 27.879,2.5938 7.703,3.4101 12.168,9.0273 13.379,16.8672 z" /><path
         id="path26"
         
         d="m 566.527,210.816 30.434,-3.214 4.504,42.75 35.906,-3.786 -4.508,-42.746 56.762,-5.972 -2.305,-21.883 -56.75,5.98 -10.539,-99.8512 c -1.504,-14.3555 -0.75,-24.7032 2.27,-31.0079 3.027,-6.3086 8.64,-9.9023 16.847,-10.7656 7.063,-0.75 13.29,-0.1445 18.688,1.832 5.394,1.961 10.418,4.2071 15.062,6.7188 l 7.141,-14.2422 c -2.273,-1.8437 -5.293,-3.7695 -9.082,-5.7891 -3.789,-2.0156 -8.066,-3.8046 -12.844,-5.3906 -4.777,-1.5625 -10.023,-2.7461 -15.75,-3.5117 -5.738,-0.7773 -11.562,-0.8672 -17.48,-0.2383 -15.289,1.5977 -26.559,6.7696 -33.817,15.4844 -7.265,8.7227 -9.933,22.1953 -8.019,40.4297 l 11.605,110.1137 -30.437,3.203 2.312,21.886" /><path
         id="path28"
         
         d="m 566.527,210.816 30.434,-3.214 4.504,42.75 35.906,-3.786 -4.508,-42.746 56.762,-5.972 -2.305,-21.883 -56.75,5.98 -10.539,-99.8512 c -1.504,-14.3555 -0.75,-24.7032 2.27,-31.0079 3.027,-6.3086 8.64,-9.9023 16.847,-10.7656 7.063,-0.75 13.29,-0.1445 18.688,1.832 5.394,1.961 10.418,4.2071 15.062,6.7188 l 7.141,-14.2422 c -2.273,-1.8437 -5.293,-3.7695 -9.082,-5.7891 -3.789,-2.0156 -8.066,-3.8046 -12.844,-5.3906 -4.777,-1.5625 -10.023,-2.7461 -15.75,-3.5117 -5.738,-0.7773 -11.562,-0.8672 -17.48,-0.2383 -15.289,1.5977 -26.559,6.7696 -33.817,15.4844 -7.265,8.7227 -9.933,22.1953 -8.019,40.4297 l 11.605,110.1137 -30.437,3.203 z" /><path
         id="path30"
         
         d="m 792.773,9.91406 -86.8,5.70314 1.113,17.1367 25.398,-1.6445 9.539,145.8046 -25.386,1.668 1.117,17.148 61.418,-4.023 L 768.496,28.7383 793.902,27.082 Z M 739.238,250.152 c 0.438,6.629 3.117,11.735 8.063,15.325 4.945,3.578 11.078,5.132 18.398,4.656 7.774,-0.516 13.774,-2.86 17.973,-7.039 4.207,-4.188 6.098,-9.594 5.66,-16.227 -0.437,-6.629 -3.008,-11.742 -7.727,-15.34 -4.71,-3.597 -10.964,-5.129 -18.73,-4.621 -7.328,0.473 -13.207,2.805 -17.645,7.004 -4.437,4.192 -6.429,9.613 -5.992,16.242" /><path
         id="path32"
         
         d="m 792.773,9.91406 -86.8,5.70314 1.113,17.1367 25.398,-1.6445 9.539,145.8046 -25.386,1.668 1.117,17.148 61.418,-4.023 L 768.496,28.7383 793.902,27.082 Z M 739.238,250.152 c 0.438,6.629 3.117,11.735 8.063,15.325 4.945,3.578 11.078,5.132 18.398,4.656 7.774,-0.516 13.774,-2.86 17.973,-7.039 4.207,-4.188 6.098,-9.594 5.66,-16.227 -0.437,-6.629 -3.008,-11.742 -7.727,-15.34 -4.71,-3.597 -10.964,-5.129 -18.73,-4.621 -7.328,0.473 -13.207,2.805 -17.645,7.004 -4.437,4.192 -6.429,9.613 -5.992,16.242 z" /><path
         id="path34"
         
         d="m 1028.29,5.62891 -82.86,-0.25 -0.067,17.17579 22.703,0.0781 -0.25,83.5472 c -0.023,9.633 -0.461,18.222 -1.277,25.789 -0.836,7.551 -2.461,13.847 -4.879,18.89 -2.422,5.039 -5.926,8.868 -10.519,11.493 -4.594,2.613 -10.559,3.91 -17.887,3.894 -5.512,-0.016 -10.547,-1 -15.117,-2.965 -4.59,-1.965 -8.707,-4.66 -12.36,-8.113 -3.66,-3.457 -6.808,-7.422 -9.418,-11.898 -2.625,-4.461 -4.734,-9.243 -6.32,-14.29 l 0.324,-106.5894 22.692,0.0782 0.05,-17.19536 -84.242,-0.25781 -0.043,17.19917 25.438,0.0782 -0.449,146.117 -25.438,-0.074 -0.062,17.191 61.554,0.192 0.117,-36.442 0.344,-0.011 c 3.86,11.25 10.762,20.718 20.707,28.433 9.949,7.707 22.149,11.59 36.586,11.629 5.953,0.02 11.867,-0.531 17.711,-1.664 5.848,-1.129 11.199,-3.297 16.016,-6.484 4.816,-3.192 9.019,-7.59 12.59,-13.203 3.57,-5.598 6.054,-12.993 7.446,-22.149 2.29,5.731 5.31,11.238 9.07,16.531 3.77,5.282 8.22,9.938 13.37,13.965 5.15,4.024 10.92,7.25 17.34,9.688 6.41,2.422 13.39,3.636 20.96,3.672 9.39,0.019 17.6,-1.094 24.59,-3.368 7,-2.281 12.86,-6.214 17.57,-11.816 4.71,-5.598 8.23,-13.262 10.55,-23.008 2.33,-9.73 3.52,-22.156 3.56,-37.289 l 0.28,-91.1171 25.44,0.0743 0.05,-17.19536 -84.24,-0.25 -0.05,17.19926 22.7,0.0586 -0.28,90.0903 c -0.02,8.472 -0.51,16.097 -1.44,22.859 -0.95,6.758 -2.69,12.367 -5.21,16.828 -2.53,4.465 -6.1,7.895 -10.69,10.289 -4.59,2.391 -10.67,3.578 -18.24,3.555 -12.15,-0.039 -21.59,-3.793 -28.32,-11.258 -6.75,-7.473 -11.59,-17.285 -14.53,-29.438 l 0.31,-103.1597 24.07,0.0664 0.05,-17.17579" /><path
         id="path36"
         
         d="m 1028.29,5.62891 -82.86,-0.25 -0.067,17.17579 22.703,0.0781 -0.25,83.5472 c -0.023,9.633 -0.461,18.222 -1.277,25.789 -0.836,7.551 -2.461,13.847 -4.879,18.89 -2.422,5.039 -5.926,8.868 -10.519,11.493 -4.594,2.613 -10.559,3.91 -17.887,3.894 -5.512,-0.016 -10.547,-1 -15.117,-2.965 -4.59,-1.965 -8.707,-4.66 -12.36,-8.113 -3.66,-3.457 -6.808,-7.422 -9.418,-11.898 -2.625,-4.461 -4.734,-9.243 -6.32,-14.29 l 0.324,-106.5894 22.692,0.0782 0.05,-17.19536 -84.242,-0.25781 -0.043,17.19917 25.438,0.0782 -0.449,146.117 -25.438,-0.074 -0.062,17.191 61.554,0.192 0.117,-36.442 0.344,-0.011 c 3.86,11.25 10.762,20.718 20.707,28.433 9.949,7.707 22.149,11.59 36.586,11.629 5.953,0.02 11.867,-0.531 17.711,-1.664 5.848,-1.129 11.199,-3.297 16.016,-6.484 4.816,-3.192 9.019,-7.59 12.59,-13.203 3.57,-5.598 6.054,-12.993 7.446,-22.149 2.29,5.731 5.31,11.238 9.07,16.531 3.77,5.282 8.22,9.938 13.37,13.965 5.15,4.024 10.92,7.25 17.34,9.688 6.41,2.422 13.39,3.636 20.96,3.672 9.39,0.019 17.6,-1.094 24.59,-3.368 7,-2.281 12.86,-6.214 17.57,-11.816 4.71,-5.598 8.23,-13.262 10.55,-23.008 2.33,-9.73 3.52,-22.156 3.56,-37.289 l 0.28,-91.1171 25.44,0.0743 0.05,-17.19536 -84.24,-0.25 -0.05,17.19926 22.7,0.0586 -0.28,90.0903 c -0.02,8.472 -0.51,16.097 -1.44,22.859 -0.95,6.758 -2.69,12.367 -5.21,16.828 -2.53,4.465 -6.1,7.895 -10.69,10.289 -4.59,2.391 -10.67,3.578 -18.24,3.555 -12.15,-0.039 -21.59,-3.793 -28.32,-11.258 -6.75,-7.473 -11.59,-17.285 -14.53,-29.438 l 0.31,-103.1597 24.07,0.0664 z" /><path
         id="path38"
         
         d="m 1209.17,103.43 c 0.94,-10.9691 2.84,-21.0472 5.72,-30.2308 2.87,-9.1914 6.94,-17 12.24,-23.4492 5.28,-6.4453 11.81,-11.3398 19.61,-14.6992 7.8,-3.3555 17.07,-4.5586 27.84,-3.6328 13.52,1.1601 24.1,8.2851 31.74,21.3633 7.65,13.0898 10.32,32.9921 8.02,59.7027 -0.95,10.969 -2.86,21.094 -5.74,30.407 -2.88,9.277 -6.86,17.226 -11.93,23.804 -5.06,6.582 -11.26,11.512 -18.58,14.801 -7.33,3.277 -16.03,4.481 -26.1,3.613 -15.13,-1.296 -26.63,-8.504 -34.5,-21.613 -7.88,-13.101 -10.64,-33.125 -8.32,-60.066 z m -38.37,-3.313 c -1.29,15.067 -0.29,28.617 3.04,40.629 3.33,12.035 8.58,22.32 15.77,30.875 7.18,8.555 16.24,15.387 27.17,20.461 10.93,5.086 23.22,8.215 36.91,9.395 15.96,1.378 29.88,0.328 41.77,-3.125 11.89,-3.469 21.85,-8.93 29.83,-16.411 8,-7.484 14.26,-16.843 18.8,-28.062 4.52,-11.227 7.4,-23.926 8.61,-38.078 1.31,-15.074 0.34,-28.5588 -2.88,-40.4533 -3.23,-11.9063 -8.43,-22.1329 -15.61,-30.6875 -7.18,-8.5586 -16.24,-15.375 -27.17,-20.4571 -10.93,-5.0859 -23.35,-8.2265 -37.25,-9.4218 -15.51,-1.3399 -29.15,-0.2696 -40.93,3.1992 -11.79,3.4687 -21.79,8.9297 -30.01,16.3984 -8.21,7.4453 -14.64,16.7305 -19.27,27.8438 -4.63,11.1015 -7.56,23.7304 -8.78,37.8943" /><path
         id="path40"
         
         d="m 1209.17,103.43 c 0.94,-10.9691 2.84,-21.0472 5.72,-30.2308 2.87,-9.1914 6.94,-17 12.24,-23.4492 5.28,-6.4453 11.81,-11.3398 19.61,-14.6992 7.8,-3.3555 17.07,-4.5586 27.84,-3.6328 13.52,1.1601 24.1,8.2851 31.74,21.3633 7.65,13.0898 10.32,32.9921 8.02,59.7027 -0.95,10.969 -2.86,21.094 -5.74,30.407 -2.88,9.277 -6.86,17.226 -11.93,23.804 -5.06,6.582 -11.26,11.512 -18.58,14.801 -7.33,3.277 -16.03,4.481 -26.1,3.613 -15.13,-1.296 -26.63,-8.504 -34.5,-21.613 -7.88,-13.101 -10.64,-33.125 -8.32,-60.066 z m -38.37,-3.313 c -1.29,15.067 -0.29,28.617 3.04,40.629 3.33,12.035 8.58,22.32 15.77,30.875 7.18,8.555 16.24,15.387 27.17,20.461 10.93,5.086 23.22,8.215 36.91,9.395 15.96,1.378 29.88,0.328 41.77,-3.125 11.89,-3.469 21.85,-8.93 29.83,-16.411 8,-7.484 14.26,-16.843 18.8,-28.062 4.52,-11.227 7.4,-23.926 8.61,-38.078 1.31,-15.074 0.34,-28.5588 -2.88,-40.4533 -3.23,-11.9063 -8.43,-22.1329 -15.61,-30.6875 -7.18,-8.5586 -16.24,-15.375 -27.17,-20.4571 -10.93,-5.0859 -23.35,-8.2265 -37.25,-9.4218 -15.51,-1.3399 -29.15,-0.2696 -40.93,3.1992 -11.79,3.4687 -21.79,8.9297 -30.01,16.3984 -8.21,7.4453 -14.64,16.7305 -19.27,27.8438 -4.63,11.1015 -7.56,23.7304 -8.78,37.8943 z" /><path
         id="path42"
         
         d="m 1607.01,62.3828 -83.25,-12.8398 -2.61,16.9961 22.41,3.4609 -13.14,85.301 c -2.75,17.89 -7.63,31.398 -14.6,40.535 -6.97,9.133 -17.71,12.578 -32.21,10.34 -6.34,-0.973 -12.02,-2.895 -17.03,-5.75 -5.01,-2.863 -9.34,-6.313 -13.02,-10.36 -3.67,-4.05 -6.68,-8.574 -9.04,-13.574 -2.36,-5.004 -3.94,-10.117 -4.76,-15.344 l 16.14,-104.6636 22.42,3.457 2.62,-16.9922 -83.25,-12.8281 -2.62,16.9922 25.15,3.8633 -22.27,144.4294 -25.15,-3.875 -2.62,16.992 60.83,9.375 5.46,-35.343 0.33,0.062 c 3.54,11.668 9.77,22.02 18.7,31.055 8.92,9.027 20.52,14.641 34.8,16.844 10.19,1.57 19.41,1.89 27.68,0.968 8.26,-0.929 15.48,-3.832 21.69,-8.664 6.19,-4.84 11.44,-11.8 15.74,-20.879 4.29,-9.074 7.59,-20.976 9.85,-35.711 l 13.99,-90.7339 25.15,3.8828 2.61,-16.9961" /><path
         id="path44"
         
         d="m 1607.01,62.3828 -83.25,-12.8398 -2.61,16.9961 22.41,3.4609 -13.14,85.301 c -2.75,17.89 -7.63,31.398 -14.6,40.535 -6.97,9.133 -17.71,12.578 -32.21,10.34 -6.34,-0.973 -12.02,-2.895 -17.03,-5.75 -5.01,-2.863 -9.34,-6.313 -13.02,-10.36 -3.67,-4.05 -6.68,-8.574 -9.04,-13.574 -2.36,-5.004 -3.94,-10.117 -4.76,-15.344 l 16.14,-104.6636 22.42,3.457 2.62,-16.9922 -83.25,-12.8281 -2.62,16.9922 25.15,3.8633 -22.27,144.4294 -25.15,-3.875 -2.62,16.992 60.83,9.375 5.46,-35.343 0.33,0.062 c 3.54,11.668 9.77,22.02 18.7,31.055 8.92,9.027 20.52,14.641 34.8,16.844 10.19,1.57 19.41,1.89 27.68,0.968 8.26,-0.929 15.48,-3.832 21.69,-8.664 6.19,-4.84 11.44,-11.8 15.74,-20.879 4.29,-9.074 7.59,-20.976 9.85,-35.711 l 13.99,-90.7339 25.15,3.8828 z" /><path
         id="path46"
         
         d="m 1721.38,87.1758 -85.15,-17.7422 -3.52,16.832 24.92,5.1875 -29.81,143.0629 -24.91,-5.192 -3.49,16.836 60.25,12.555 33.3,-159.9025 24.9,5.1835 z M 1605.56,304.332 c -1.35,6.504 -0.14,12.141 3.68,16.93 3.8,4.761 9.29,7.91 16.47,9.39 7.64,1.594 14.04,0.93 19.2,-1.968 5.18,-2.907 8.44,-7.606 9.79,-14.114 1.37,-6.515 0.25,-12.129 -3.34,-16.851 -3.57,-4.731 -9.19,-7.895 -16.82,-9.473 -7.18,-1.5 -13.46,-0.812 -18.85,2.047 -5.4,2.852 -8.77,7.535 -10.13,14.039" /><path
         id="path48"
         
         d="m 1721.38,87.1758 -85.15,-17.7422 -3.52,16.832 24.92,5.1875 -29.81,143.0629 -24.91,-5.192 -3.49,16.836 60.25,12.555 33.3,-159.9025 24.9,5.1835 z M 1605.56,304.332 c -1.35,6.504 -0.14,12.141 3.68,16.93 3.8,4.761 9.29,7.91 16.47,9.39 7.64,1.594 14.04,0.93 19.2,-1.968 5.18,-2.907 8.44,-7.606 9.79,-14.114 1.37,-6.515 0.25,-12.129 -3.34,-16.851 -3.57,-4.731 -9.19,-7.895 -16.82,-9.473 -7.18,-1.5 -13.46,-0.812 -18.85,2.047 -5.4,2.852 -8.77,7.535 -10.13,14.039 z" /><path
         id="path50"
         
         d="m 1771.92,191.281 c 2.77,-10.64 6.36,-20.254 10.74,-28.816 4.37,-8.582 9.69,-15.606 15.99,-21.055 6.3,-5.457 13.57,-9.199 21.81,-11.203 8.24,-1.996 17.6,-1.621 28.06,1.109 13.13,3.426 22.36,12.227 27.7,26.407 5.33,14.187 4.6,34.25 -2.16,60.203 -2.77,10.648 -6.36,20.304 -10.77,28.988 -4.39,8.684 -9.65,15.844 -15.76,21.477 -6.09,5.632 -13.04,9.445 -20.8,11.453 -7.78,1.996 -16.56,1.73 -26.35,-0.828 -14.69,-3.825 -24.81,-12.868 -30.37,-27.106 -5.55,-14.238 -4.92,-34.453 1.91,-60.629 z m -37.27,-9.707 c -3.81,14.625 -5.1,28.153 -3.84,40.571 1.26,12.406 4.7,23.441 10.36,33.082 5.64,9.64 13.41,17.886 23.33,24.738 9.92,6.844 21.52,12.008 34.81,15.473 15.49,4.046 29.4,5.359 41.71,3.949 12.29,-1.414 23.02,-5.133 32.16,-11.157 9.14,-6.023 16.88,-14.195 23.24,-24.496 6.35,-10.308 11.32,-22.339 14.9,-36.097 3.83,-14.625 5.15,-28.102 3.97,-40.36 -1.18,-12.273 -4.58,-23.226 -10.23,-32.875 -5.64,-9.64 -13.41,-17.882 -23.33,-24.73 -9.91,-6.848 -21.64,-12.039 -35.15,-15.57 -15.04,-3.918 -28.68,-5.168 -40.87,-3.719 -12.2,1.437 -22.98,5.137 -32.33,11.105 -9.37,5.969 -17.25,14.035 -23.7,24.207 -6.42,10.16 -11.44,22.118 -15.03,35.879" /><path
         id="path52"
         
         d="m 1771.92,191.281 c 2.77,-10.64 6.36,-20.254 10.74,-28.816 4.37,-8.582 9.69,-15.606 15.99,-21.055 6.3,-5.457 13.57,-9.199 21.81,-11.203 8.24,-1.996 17.6,-1.621 28.06,1.109 13.13,3.426 22.36,12.227 27.7,26.407 5.33,14.187 4.6,34.25 -2.16,60.203 -2.77,10.648 -6.36,20.304 -10.77,28.988 -4.39,8.684 -9.65,15.844 -15.76,21.477 -6.09,5.632 -13.04,9.445 -20.8,11.453 -7.78,1.996 -16.56,1.73 -26.35,-0.828 -14.69,-3.825 -24.81,-12.868 -30.37,-27.106 -5.55,-14.238 -4.92,-34.453 1.91,-60.629 z m -37.27,-9.707 c -3.81,14.625 -5.1,28.153 -3.84,40.571 1.26,12.406 4.7,23.441 10.36,33.082 5.64,9.64 13.41,17.886 23.33,24.738 9.92,6.844 21.52,12.008 34.81,15.473 15.49,4.046 29.4,5.359 41.71,3.949 12.29,-1.414 23.02,-5.133 32.16,-11.157 9.14,-6.023 16.88,-14.195 23.24,-24.496 6.35,-10.308 11.32,-22.339 14.9,-36.097 3.83,-14.625 5.15,-28.102 3.97,-40.36 -1.18,-12.273 -4.58,-23.226 -10.23,-32.875 -5.64,-9.64 -13.41,-17.882 -23.33,-24.73 -9.91,-6.848 -21.64,-12.039 -35.15,-15.57 -15.04,-3.918 -28.68,-5.168 -40.87,-3.719 -12.2,1.437 -22.98,5.137 -32.33,11.105 -9.37,5.969 -17.25,14.035 -23.7,24.207 -6.42,10.16 -11.44,22.118 -15.03,35.879 z" /><path
         id="path54"
         
         d="m 2053.18,221.867 c -1.88,5.809 -5.72,10.238 -11.51,13.238 -5.79,3.012 -12.57,5.356 -20.32,7.02 -7.77,1.652 -16.09,3.164 -24.95,4.52 -8.87,1.347 -17.38,3.41 -25.5,6.214 -8.13,2.789 -15.46,6.809 -21.96,12.047 -6.53,5.246 -11.29,12.551 -14.31,21.946 -2.05,6.316 -2.37,12.55 -0.95,18.652 1.41,6.121 4.11,11.871 8.06,17.246 3.96,5.379 9.11,10.23 15.47,14.57 6.35,4.348 13.47,7.785 21.36,10.34 6.59,2.129 12.47,3.785 17.67,4.981 5.18,1.195 9.97,2.086 14.4,2.664 4.41,0.586 8.66,0.937 12.74,1.047 4.08,0.105 8.31,0.148 12.69,0.117 l 14.27,-44.16 -20.93,-6.766 -8.2,25.363 -8.51,5.059 c -3.04,-0.281 -6.26,-0.731 -9.68,-1.36 -3.41,-0.625 -6.97,-1.535 -10.69,-2.738 -10.45,-3.383 -17.61,-7.894 -21.45,-13.535 -3.84,-5.644 -4.77,-11.48 -2.82,-17.508 1.87,-5.828 5.68,-10.187 11.44,-13.094 5.75,-2.902 12.51,-5.179 20.29,-6.832 7.75,-1.668 16.04,-3.097 24.87,-4.343 8.85,-1.239 17.29,-3.16 25.34,-5.735 8.07,-2.566 15.26,-6.211 21.6,-10.894 6.34,-4.715 10.87,-11.309 13.63,-19.817 2.53,-7.847 2.97,-15.425 1.33,-22.691 -1.65,-7.273 -4.91,-14.059 -9.78,-20.316 -4.88,-6.282 -11.17,-11.93 -18.87,-16.934 -7.7,-5.027 -16.27,-9.063 -25.69,-12.105 -10.53,-3.403 -21.22,-5.348 -32.08,-5.852 -10.86,-0.496 -19.74,0.187 -26.63,2.066 l -13.85,42.864 20.93,6.757 7.91,-24.449 8.72,-4.644 c 3.52,-1.231 7.46,-1.852 11.82,-1.871 4.33,-0.02 9.66,0.988 15.98,3.035 10.47,3.383 18.4,8.328 23.77,14.82 5.36,6.496 6.83,13.527 4.39,21.078" /><path
         id="path56"
         
         d="m 2053.18,221.867 c -1.88,5.809 -5.72,10.238 -11.51,13.238 -5.79,3.012 -12.57,5.356 -20.32,7.02 -7.77,1.652 -16.09,3.164 -24.95,4.52 -8.87,1.347 -17.38,3.41 -25.5,6.214 -8.13,2.789 -15.46,6.809 -21.96,12.047 -6.53,5.246 -11.29,12.551 -14.31,21.946 -2.05,6.316 -2.37,12.55 -0.95,18.652 1.41,6.121 4.11,11.871 8.06,17.246 3.96,5.379 9.11,10.23 15.47,14.57 6.35,4.348 13.47,7.785 21.36,10.34 6.59,2.129 12.47,3.785 17.67,4.981 5.18,1.195 9.97,2.086 14.4,2.664 4.41,0.586 8.66,0.937 12.74,1.047 4.08,0.105 8.31,0.148 12.69,0.117 l 14.27,-44.16 -20.93,-6.766 -8.2,25.363 -8.51,5.059 c -3.04,-0.281 -6.26,-0.731 -9.68,-1.36 -3.41,-0.625 -6.97,-1.535 -10.69,-2.738 -10.45,-3.383 -17.61,-7.894 -21.45,-13.535 -3.84,-5.644 -4.77,-11.48 -2.82,-17.508 1.87,-5.828 5.68,-10.187 11.44,-13.094 5.75,-2.902 12.51,-5.179 20.29,-6.832 7.75,-1.668 16.04,-3.097 24.87,-4.343 8.85,-1.239 17.29,-3.16 25.34,-5.735 8.07,-2.566 15.26,-6.211 21.6,-10.894 6.34,-4.715 10.87,-11.309 13.63,-19.817 2.53,-7.847 2.97,-15.425 1.33,-22.691 -1.65,-7.273 -4.91,-14.059 -9.78,-20.316 -4.88,-6.282 -11.17,-11.93 -18.87,-16.934 -7.7,-5.027 -16.27,-9.063 -25.69,-12.105 -10.53,-3.403 -21.22,-5.348 -32.08,-5.852 -10.86,-0.496 -19.74,0.187 -26.63,2.066 l -13.85,42.864 20.93,6.757 7.91,-24.449 8.72,-4.644 c 3.52,-1.231 7.46,-1.852 11.82,-1.871 4.33,-0.02 9.66,0.988 15.98,3.035 10.47,3.383 18.4,8.328 23.77,14.82 5.36,6.496 6.83,13.527 4.39,21.078 z" /></g></g>
         </svg>